{
.appVersion = "1192";
copyright = "Copyright 2011 The Londrina Solid Authors (https://github.com/marcelommp/Londrina-Typeface), with Reserved Font Name \"Londrina Solid\"";
customParameters = (
{
name = description;
value = "";
},
{
name = licenseURL;
value = "http://scripts.sil.org/OFL";
},
{
name = license;
value = "This Font Software is licensed under the SIL Open Font License, Version 1.1. This license is available with a FAQ at: http://scripts.sil.org/OFL";
},
{
name = vendorID;
value = PYRS;
},
{
name = panose;
value = (
0,
0,
3,
0,
0,
0,
0,
0,
0,
0
);
},
{
name = unicodeRanges;
value = (
0,
1
);
},
{
name = codePageRanges;
value = (
1252
);
},
{
name = blueScale;
value = 0.037;
},
{
name = glyphOrder;
value = (
.notdef,
A,
Aacute,
Acircumflex,
Adieresis,
Agrave,
Aring,
Atilde,
AE,
B,
C,
Ccedilla,
D,
Eth,
E,
Eacute,
Ecircumflex,
Edieresis,
Egrave,
F,
G,
H,
I,
Iacute,
Icircumflex,
Idieresis,
Igrave,
J,
K,
L,
M,
N,
Ntilde,
O,
Oacute,
Ocircumflex,
Odieresis,
Ograve,
Oslash,
Otilde,
OE,
P,
Thorn,
Q,
R,
S,
Scaron,
T,
U,
Uacute,
Ucircumflex,
Udieresis,
Ugrave,
V,
W,
X,
Y,
Yacute,
Ydieresis,
Z,
Zcaron,
a,
aacute,
acircumflex,
adieresis,
agrave,
aring,
atilde,
ae,
b,
c,
ccedilla,
d,
eth,
e,
eacute,
ecircumflex,
edieresis,
egrave,
f,
g,
h,
i,
iacute,
icircumflex,
idieresis,
igrave,
ij,
j,
k,
l,
m,
n,
ntilde,
o,
oacute,
ocircumflex,
odieresis,
ograve,
oslash,
otilde,
oe,
p,
thorn,
q,
r,
s,
scaron,
germandbls,
t,
u,
uacute,
ucircumflex,
udieresis,
ugrave,
v,
w,
x,
y,
yacute,
ydieresis,
z,
zcaron,
f_f,
f_f_i,
f_f_l,
fi,
fl,
ordfeminine,
ordmasculine,
zero,
one,
two,
three,
four,
five,
six,
seven,
eight,
nine,
uni00B9,
uni00B2,
uni00B3,
onehalf,
onequarter,
threequarters,
oneeighth,
threeeighths,
fiveeighths,
seveneighths,
asterisk,
backslash,
periodcentered,
bullet,
colon,
comma,
ellipsis,
exclam,
exclamdown,
numbersign,
period,
question,
questiondown,
quotedbl,
quotesingle,
semicolon,
slash,
underscore,
braceleft,
braceright,
bracketleft,
bracketright,
parenleft,

glyphs = (
{
glyphname = A;
lastChange = "2019-04-02 23:24:32 +0000";
layers = (
{
hints = (
{
horizontal = 1;
place = "{-3, 708}";
type = Stem;
},
{
place = "{4, 433}";
type = Stem;
}
);
layerId = "67FB5424-006C-40A0-BA73-E9B40C667CAC";
paths = (
{
closed = 1;
nodes = (
"437 0 LINE",
"420 -1 OFFCURVE",
"392 -4 OFFCURVE",
"394 0 CURVE",
"389 11 OFFCURVE",
"385 23 OFFCURVE",
"382 38 CURVE",
"378 53 OFFCURVE",
"374 68 OFFCURVE",
"371 83 CURVE",
"367 98 OFFCURVE",
"359 127 OFFCURVE",
"348 169 CURVE",
"83 172 LINE",
"78 136 OFFCURVE",
"71 103 OFFCURVE",
"68 88 CURVE SMOOTH",
"65 72 OFFCURVE",
"59 44 OFFCURVE",
"52 3 CURVE",
"52 3 OFFCURVE",
"32 2 OFFCURVE",
"4 2 CURVE",
"5 7 OFFCURVE",
"8 20 OFFCURVE",
"11 41 CURVE SMOOTH",
"14 62 OFFCURVE",
"19 90 OFFCURVE",
"25 124 CURVE SMOOTH",
"31 158 OFFCURVE",
"38 197 OFFCURVE",
"47 242 CURVE SMOOTH",
"55 286 OFFCURVE",
"65 333 OFFCURVE",
"76 383 CURVE SMOOTH",
"87 433 OFFCURVE",
"100 485 OFFCURVE",
"113 539 CURVE SMOOTH",
"126 593 OFFCURVE",
"144 647 OFFCURVE",
"166 700 CURVE",
"171 701 OFFCURVE",
"176 701 OFFCURVE",
"181 701 CURVE SMOOTH",
"186 701 OFFCURVE",
"192 701 OFFCURVE",
"198 701 CURVE SMOOTH",
"203 701 OFFCURVE",
"213 701 OFFCURVE",
"227 702 CURVE",
"240 702 OFFCURVE",
"258 703 OFFCURVE",
"280 705 CURVE",
"282 696 OFFCURVE",
"285 683 OFFCURVE",
"290 666 CURVE",
"294 648 OFFCURVE",
"299 628 OFFCURVE",
"304 606 CURVE SMOOTH",
"309 583 OFFCURVE",
"314 559 OFFCURVE",
"320 534 CURVE",
"325 509 OFFCURVE",
"331 484 OFFCURVE",
"336 461 CURVE SMOOTH",
"341 438 OFFCURVE",
"346 416 OFFCURVE",
"351 397 CURVE SMOOTH",
"356 378 OFFCURVE",
"359 362 OFFCURVE",
"362 351 CURVE"
);
},
{
closed = 1;
nodes = (
"108 213 OFFCURVE",
"119 212 OFFCURVE",
"158 211 CURVE SMOOTH",
"196 210 OFFCURVE",
"259 211 OFFCURVE",
"347 213 CURVE",
"286 510 OFFCURVE",
"253 659 OFFCURVE",
"248 659 CURVE SMOOTH",
"242 659 OFFCURVE",
"233 659 OFFCURVE",
"221 659 CURVE SMOOTH",
"208 659 OFFCURVE",
"199 659 OFFCURVE",
"193 659 CURVE",
"186 658 OFFCURVE",
"175 624 OFFCURVE",
"160 555 CURVE SMOOTH",
"144 486 OFFCURVE",
"120 372 OFFCURVE",
"88 213 CURVE"
);
}
);
width = 434;
}
);
leftKerningGroup = A;
note = A;
rightKerningGroup = A;
unicode = 0041;
},
{
glyphname = Aacute;
lastChange = "2019-04-02 23:24:14 +0000";
layers = (
{
hints = (
{
horizontal = 1;
place = "{-3, 909}";
type = Stem;
},
{
place = "{4, 433}";
type = Stem;
}
);
layerId = "67FB5424-006C-40A0-BA73-E9B40C667CAC";
paths = (
{
closed = 1;
nodes = (
"437 0 LINE",
"420 -1 OFFCURVE",
"392 -4 OFFCURVE",
"394 0 CURVE",
"389 11 OFFCURVE",
"385 23 OFFCURVE",
"382 38 CURVE",
"378 53 OFFCURVE",
"374 68 OFFCURVE",
"371 83 CURVE",
"367 98 OFFCURVE",
"359 127 OFFCURVE",
"348 169 CURVE",
"83 172 LINE",
"78 136 OFFCURVE",
"71 103 OFFCURVE",
"68 88 CURVE SMOOTH",
"65 72 OFFCURVE",
"59 44 OFFCURVE",
"52 3 CURVE",
"52 3 OFFCURVE",
"32 2 OFFCURVE",
"4 2 CURVE",
"5 7 OFFCURVE",
"8 20 OFFCURVE",
"11 41 CURVE SMOOTH",
"14 62 OFFCURVE",
"19 90 OFFCURVE",
"25 124 CURVE SMOOTH",
"31 158 OFFCURVE",
"38 197 OFFCURVE",
"47 242 CURVE SMOOTH",
"55 286 OFFCURVE",
"65 333 OFFCURVE",
"76 383 CURVE SMOOTH",
"87 433 OFFCURVE",
"100 485 OFFCURVE",
"113 539 CURVE SMOOTH",
"126 593 OFFCURVE",
"144 647 OFFCURVE",
"166 700 CURVE",
"171 701 OFFCURVE",
"176 701 OFFCURVE",
"181 701 CURVE SMOOTH",
"186 701 OFFCURVE",
"192 701 OFFCURVE",
"198 701 CURVE SMOOTH",
"203 701 OFFCURVE",
"213 701 OFFCURVE",
"227 702 CURVE",
"240 702 OFFCURVE",
"258 703 OFFCURVE",
"280 705 CURVE",
"282 696 OFFCURVE",
"285 683 OFFCURVE",
"290 666 CURVE",
"294 648 OFFCURVE",
"299 628 OFFCURVE",
"304 606 CURVE SMOOTH",
"309 583 OFFCURVE",
"314 559 OFFCURVE",
"320 534 CURVE",
"325 509 OFFCURVE",
"331 484 OFFCURVE",
"336 461 CURVE SMOOTH",
"341 438 OFFCURVE",
"346 416 OFFCURVE",
"351 397 CURVE SMOOTH",
"356 378 OFFCURVE",
"359 362 OFFCURVE",
"362 351 CURVE"
);
},
{
closed = 1;
nodes = (
"108 213 OFFCURVE",
"119 212 OFFCURVE",
"158 211 CURVE SMOOTH",
"196 210 OFFCURVE",
"259 211 OFFCURVE",
"347 213 CURVE",
"286 510 OFFCURVE",
"253 659 OFFCURVE",
"248 659 CURVE SMOOTH",
"242 659 OFFCURVE",
"233 659 OFFCURVE",
"221 659 CURVE SMOOTH",
"208 659 OFFCURVE",
"199 659 OFFCURVE",
"193 659 CURVE",
"186 658 OFFCURVE",
"175 624 OFFCURVE",
"160 555 CURVE SMOOTH",
"144 486 OFFCURVE",
"120 372 OFFCURVE",
"88 213 CURVE"
);
},
{
closed = 1;
nodes = (
"331 906 LINE",
"321 892 OFFCURVE",
"313 887 OFFCURVE",
"301 875 CURVE",
"289 862 OFFCURVE",
"276 850 OFFCURVE",
"262 837 CURVE SMOOTH",
"248 824 OFFCURVE",
"234 809 OFFCURVE",
"219 793 CURVE SMOOTH",
"204 776 OFFCURVE",
"190 763 OFFCURVE",
"179 752 CURVE",
"184 751 OFFCURVE",
"191 750 OFFCURVE",
"201 749 CURVE SMOOTH",
"211 748 OFFCURVE",
"225 748 OFFCURVE",
"244 750 CURVE",
"247 755 OFFCURVE",
"254 762 OFFCURVE",
"263 771 CURVE SMOOTH",
"272 780 OFFCURVE",
"282 790 OFFCURVE",
"293 802 CURVE",
"304 813 OFFCURVE",
"319 828 OFFCURVE",
"337 847 CURVE SMOOTH",
"354 865 OFFCURVE",
"364 873 OFFCURVE",
"365 870 CURVE"
);
}
);
width = 434;
}
);
leftKerningGroup = A;
note = Aacute;
rightKerningGroup = A;
unicode = 00C1;
},
{
glyphname = Acircumflex;
lastChange = "2019-04-02 23:24:55 +0000";
layers = (
{
hints = (
{
horizontal = 1;
place = "{701, 52}";
type = Stem;
},
{
place = "{280, 55.16}";
type = Stem;
},
{
horizontal = 1;
place = "{674.45, 74.55}";
type = Stem;
}
);
layerId = "67FB5424-006C-40A0-BA73-E9B40C667CAC";
paths = (
{
closed = 1;
nodes = (
"381 754 LINE",
"375 752 OFFCURVE",
"371 755 OFFCURVE",
"367 754 CURVE SMOOTH",
"358 752 OFFCURVE",
"349 751 OFFCURVE",
"336 749 CURVE",
"333 749 OFFCURVE",
"319 761 OFFCURVE",
"294 786 CURVE SMOOTH",
"268 811 OFFCURVE",
"253 826 OFFCURVE",
"248 832 CURVE",
"243 837 OFFCURVE",
"239 843 OFFCURVE",
"234 848 CURVE SMOOTH",
"229 853 OFFCURVE",
"225 856 OFFCURVE",
"222 857 CURVE",
"219 856 OFFCURVE",
"214 853 OFFCURVE",
"209 847 CURVE",
"203 841 OFFCURVE",
"198 835 OFFCURVE",
"193 830 CURVE",
"188 824 OFFCURVE",
"175 810 OFFCURVE",
"154 788 CURVE SMOOTH",
"133 765 OFFCURVE",
"121 754 OFFCURVE",
"118 753 CURVE",
"112 752 OFFCURVE",
"106 752 OFFCURVE",
"100 752 CURVE SMOOTH",
"94 752 OFFCURVE",
"81 752 OFFCURVE",
"60 753 CURVE",
"91 790 OFFCURVE",
"119 819 OFFCURVE",
"142 841 CURVE SMOOTH",
"165 863 OFFCURVE",
"191 888 OFFCURVE",
"220 915 CURVE"
);
},
{
closed = 1;
nodes = (
"437 0 LINE",
"420 -1 OFFCURVE",
"392 -4 OFFCURVE",
"394 0 CURVE",
"389 11 OFFCURVE",
"385 23 OFFCURVE",
"382 38 CURVE",
"378 53 OFFCURVE",
"374 68 OFFCURVE",
"371 83 CURVE",
"367 98 OFFCURVE",
"359 127 OFFCURVE",
"348 169 CURVE",
"83 172 LINE",
"78 136 OFFCURVE",
"71 103 OFFCURVE",
"68 88 CURVE SMOOTH",
"65 72 OFFCURVE",
"59 44 OFFCURVE",
"52 3 CURVE",
"52 3 OFFCURVE",
"32 2 OFFCURVE",
"4 2 CURVE",
"5 7 OFFCURVE",
"8 20 OFFCURVE",
"11 41 CURVE SMOOTH",
"14 62 OFFCURVE",
"19 90 OFFCURVE",
"25 124 CURVE SMOOTH",
"31 158 OFFCURVE",
"38 197 OFFCURVE",
"47 242 CURVE SMOOTH",
"55 286 OFFCURVE",
"65 333 OFFCURVE",
"76 383 CURVE SMOOTH",
"87 433 OFFCURVE",
"100 485 OFFCURVE",
"113 539 CURVE SMOOTH",
"126 593 OFFCURVE",
"144 647 OFFCURVE",
"166 700 CURVE",
"171 701 OFFCURVE",
"176 701 OFFCURVE",
"181 701 CURVE SMOOTH",
"186 701 OFFCURVE",
"192 701 OFFCURVE",
"198 701 CURVE SMOOTH",
"203 701 OFFCURVE",
"213 701 OFFCURVE",
"227 702 CURVE",
"240 702 OFFCURVE",
"258 703 OFFCURVE",
"280 705 CURVE",
"282 696 OFFCURVE",
"285 683 OFFCURVE",
"290 666 CURVE",
"294 648 OFFCURVE",
"299 628 OFFCURVE",
"304 606 CURVE SMOOTH",
"309 583 OFFCURVE",
"314 559 OFFCURVE",
"320 534 CURVE",
"325 509 OFFCURVE",
"331 484 OFFCURVE",
"336 461 CURVE SMOOTH",
"341 438 OFFCURVE",
"346 416 OFFCURVE",
"351 397 CURVE SMOOTH",
"356 378 OFFCURVE",
"359 362 OFFCURVE",
"362 351 CURVE"
);
},
{
closed = 1;
nodes = (
"108 213 OFFCURVE",
"119 212 OFFCURVE",
"158 211 CURVE SMOOTH",
"196 210 OFFCURVE",
"259 211 OFFCURVE",
"347 213 CURVE",
"286 510 OFFCURVE",
"253 659 OFFCURVE",
"248 659 CURVE SMOOTH",
"242 659 OFFCURVE",
"233 659 OFFCURVE",
"221 659 CURVE SMOOTH",
"208 659 OFFCURVE",
"199 659 OFFCURVE",
"193 659 CURVE",
"186 658 OFFCURVE",
"175 624 OFFCURVE",
"160 555 CURVE SMOOTH",
"144 486 OFFCURVE",
"120 372 OFFCURVE",
"88 213 CURVE"
);
}
);
width = 434;
}
);
leftKerningGroup = A;
note = Acircumflex;
rightKerningGroup = A;
unicode = 00C2;
},
{
glyphname = Adieresis;
lastChange = "2019-04-02 23:25:05 +0000";
layers = (
{
hints = (
{
horizontal = 1;
place = "{701, 59}";
type = Stem;
},
{
place = "{161, 96.21}";
type = Stem;
}
);
layerId = "67FB5424-006C-40A0-BA73-E9B40C667CAC";
paths = (
{
closed = 1;
nodes = (
"159 759 LINE",
"120 760 LINE",
"117 760 LINE",
"106 584 OFFCURVE",
"115 775 OFFCURVE",
"115 785 CURVE",
"114 794 OFFCURVE",
"114 804 OFFCURVE",
"115 814 CURVE",
"115 824 OFFCURVE",
"115 833 OFFCURVE",
"116 842 CURVE",
"116 851 OFFCURVE",
"116 857 OFFCURVE",
"116 861 CURVE",
"122 863 OFFCURVE",
"131 864 OFFCURVE",
"143 865 CURVE",
"154 865 OFFCURVE",
"162 864 OFFCURVE",
"167 862 CURVE",
"167 861 OFFCURVE",
"167 857 OFFCURVE",
"166 848 CURVE SMOOTH",
"165 839 OFFCURVE",
"165 829 OFFCURVE",
"164 818 CURVE SMOOTH",
"163 806 OFFCURVE",
"163 795 OFFCURVE",
"162 784 CURVE SMOOTH",
"161 773 OFFCURVE",
"161 766 OFFCURVE",
"161 761 CURVE SMOOTH",
"161 760 LINE",
"161 759 LINE"
);
},
{
closed = 1;
nodes = (
"317 759 LINE",
"278 760 LINE",
"275 760 LINE",
"236 767 OFFCURVE",
"273 775 OFFCURVE",
"273 785 CURVE",
"272 794 OFFCURVE",
"272 804 OFFCURVE",
"273 814 CURVE",
"273 824 OFFCURVE",
"273 833 OFFCURVE",
"274 842 CURVE",
"274 851 OFFCURVE",
"274 857 OFFCURVE",
"274 861 CURVE",
"280 863 OFFCURVE",
"289 864 OFFCURVE",
"301 865 CURVE",
"312 865 OFFCURVE",
"320 864 OFFCURVE",
"325 862 CURVE",
"325 861 OFFCURVE",
"325 857 OFFCURVE",
"324 848 CURVE SMOOTH",
"323 839 OFFCURVE",
"323 829 OFFCURVE",
"322 818 CURVE SMOOTH",
"321 806 OFFCURVE",
"321 795 OFFCURVE",
"320 784 CURVE SMOOTH",
"319 773 OFFCURVE",
"319 766 OFFCURVE",
"319 761 CURVE SMOOTH",
"319 760 LINE",
"319 759 LINE"
);
},
{
closed = 1;
nodes = (
"437 0 LINE",
"420 -1 OFFCURVE",
"392 -4 OFFCURVE",
"394 0 CURVE",
"389 11 OFFCURVE",
"385 23 OFFCURVE",
"382 38 CURVE",
"378 53 OFFCURVE",
"374 68 OFFCURVE",
"371 83 CURVE",
"367 98 OFFCURVE",
"359 127 OFFCURVE",
"348 169 CURVE",
"83 172 LINE",
"78 136 OFFCURVE",
"71 103 OFFCURVE",
"68 88 CURVE SMOOTH",
"65 72 OFFCURVE",
"59 44 OFFCURVE",
"52 3 CURVE",
"52 3 OFFCURVE",
"32 2 OFFCURVE",
"4 2 CURVE",
"5 7 OFFCURVE",
"8 20 OFFCURVE",
"11 41 CURVE SMOOTH",
"14 62 OFFCURVE",
"19 90 OFFCURVE",
"25 124 CURVE SMOOTH",
"31 158 OFFCURVE",
"38 197 OFFCURVE",
"47 242 CURVE SMOOTH",
"55 286 OFFCURVE",
"65 333 OFFCURVE",
"76 383 CURVE SMOOTH",
"87 433 OFFCURVE",
"100 485 OFFCURVE",
"113 539 CURVE SMOOTH",
"126 593 OFFCURVE",
"144 647 OFFCURVE",
"166 700 CURVE",
"171 701 OFFCURVE",
"176 701 OFFCURVE",
"181 701 CURVE SMOOTH",
"186 701 OFFCURVE",
"192 701 OFFCURVE",
"198 701 CURVE SMOOTH",
"203 701 OFFCURVE",
"213 701 OFFCURVE",
"227 702 CURVE",
"240 702 OFFCURVE",
"258 703 OFFCURVE",
"280 705 CURVE",
"282 696 OFFCURVE",
"285 683 OFFCURVE",
"290 666 CURVE",
"294 648 OFFCURVE",
"299 628 OFFCURVE",
"304 606 CURVE SMOOTH",
"309 583 OFFCURVE",
"314 559 OFFCURVE",
"320 534 CURVE",
"325 509 OFFCURVE",
"331 484 OFFCURVE",
"336 461 CURVE SMOOTH",
"341 438 OFFCURVE",
"346 416 OFFCURVE",
"351 397 CURVE SMOOTH",
"356 378 OFFCURVE",
"359 362 OFFCURVE",
"362 351 CURVE"
);
},
{
closed = 1;
nodes = (
"108 213 OFFCURVE",
"119 212 OFFCURVE",
"158 211 CURVE SMOOTH",
"196 210 OFFCURVE",
"259 211 OFFCURVE",
"347 213 CURVE",
"286 510 OFFCURVE",
"253 659 OFFCURVE",
"248 659 CURVE SMOOTH",
"242 659 OFFCURVE",
"233 659 OFFCURVE",
"221 659 CURVE SMOOTH",
"208 659 OFFCURVE",
"199 659 OFFCURVE",
"193 659 CURVE",
"186 658 OFFCURVE",
"175 624 OFFCURVE",
"160 555 CURVE SMOOTH",
"144 486 OFFCURVE",
"120 372 OFFCURVE",
"88 213 CURVE"
);
}
);
width = 434;
}
);
leftKerningGroup = A;
note = Adieresis;
rightKerningGroup = A;
unicode = 00C4;
},
{
glyphname = Agrave;
lastChange = "2019-04-02 23:25:20 +0000";
layers = (
{
hints = (
{
horizontal = 1;
place = "{701, 47}";
type = Stem;
},
{
place = "{4, 433}";
type = Stem;
}
);
layerId = "67FB5424-006C-40A0-BA73-E9B40C667CAC";
paths = (
{
closed = 1;
nodes = (
"107 904 LINE",
"117 892 OFFCURVE",
"125 885 OFFCURVE",
"137 873 CURVE",
"149 860 OFFCURVE",
"162 848 OFFCURVE",
"176 835 CURVE SMOOTH",
"190 822 OFFCURVE",
"205 807 OFFCURVE",
"220 791 CURVE SMOOTH",
"235 774 OFFCURVE",
"248 761 OFFCURVE",
"259 750 CURVE",
"254 749 OFFCURVE",
"247 748 OFFCURVE",
"237 747 CURVE SMOOTH",
"227 746 OFFCURVE",
"213 746 OFFCURVE",
"194 748 CURVE",
"191 753 OFFCURVE",
"185 760 OFFCURVE",
"176 769 CURVE SMOOTH",
"167 778 OFFCURVE",
"156 788 OFFCURVE",
"145 800 CURVE",
"134 811 OFFCURVE",
"119 826 OFFCURVE",
"102 845 CURVE",
"84 863 OFFCURVE",
"74 871 OFFCURVE",
"73 868 CURVE"
);
},
{
closed = 1;
nodes = (
"437 0 LINE",
"420 -1 OFFCURVE",
"392 -4 OFFCURVE",
"394 0 CURVE",
"389 11 OFFCURVE",
"385 23 OFFCURVE",
"382 38 CURVE",
"378 53 OFFCURVE",
"374 68 OFFCURVE",
"371 83 CURVE",
"367 98 OFFCURVE",
"359 127 OFFCURVE",
"348 169 CURVE",
"83 172 LINE",
"78 136 OFFCURVE",
"71 103 OFFCURVE",
"68 88 CURVE SMOOTH",
"65 72 OFFCURVE",
"59 44 OFFCURVE",
"52 3 CURVE",
"52 3 OFFCURVE",
"32 2 OFFCURVE",
"4 2 CURVE",
"5 7 OFFCURVE",
"8 20 OFFCURVE",
"11 41 CURVE SMOOTH",
"14 62 OFFCURVE",
"19 90 OFFCURVE",
"25 124 CURVE SMOOTH",
"31 158 OFFCURVE",
"38 197 OFFCURVE",
"47 242 CURVE SMOOTH",
"55 286 OFFCURVE",
"65 333 OFFCURVE",
"76 383 CURVE SMOOTH",
"87 433 OFFCURVE",
"100 485 OFFCURVE",
"113 539 CURVE SMOOTH",
"126 593 OFFCURVE",
"144 647 OFFCURVE",
"166 700 CURVE",
"171 701 OFFCURVE",
"176 701 OFFCURVE",
"181 701 CURVE SMOOTH",
"186 701 OFFCURVE",
"192 701 OFFCURVE",
"198 701 CURVE SMOOTH",
"203 701 OFFCURVE",
"213 701 OFFCURVE",
"227 702 CURVE",
"240 702 OFFCURVE",
"258 703 OFFCURVE",
"280 705 CURVE",
"282 696 OFFCURVE",
"285 683 OFFCURVE",
"290 666 CURVE",
"294 648 OFFCURVE",
"299 628 OFFCURVE",
"304 606 CURVE SMOOTH",
"309 583 OFFCURVE",
"314 559 OFFCURVE",
"320 534 CURVE",
"325 509 OFFCURVE",
"331 484 OFFCURVE",
"336 461 CURVE SMOOTH",
"341 438 OFFCURVE",
"346 416 OFFCURVE",
"351 397 CURVE SMOOTH",
"356 378 OFFCURVE",
"359 362 OFFCURVE",
"362 351 CURVE"
);
},
{
closed = 1;
nodes = (
"108 213 OFFCURVE",
"119 212 OFFCURVE",
"158 211 CURVE SMOOTH",
"196 210 OFFCURVE",
"259 211 OFFCURVE",
"347 213 CURVE",
"286 510 OFFCURVE",
"253 659 OFFCURVE",
"248 659 CURVE SMOOTH",
"242 659 OFFCURVE",
"233 659 OFFCURVE",
"221 659 CURVE SMOOTH",
"208 659 OFFCURVE",
"199 659 OFFCURVE",
"193 659 CURVE",
"186 658 OFFCURVE",
"175 624 OFFCURVE",
"160 555 CURVE SMOOTH",
"144 486 OFFCURVE",
"120 372 OFFCURVE",
"88 213 CURVE"
);
}
);
width = 434;
}
);
leftKerningGroup = A;
note = Agrave;
rightKerningGroup = A;
unicode = 00C0;
},
{
glyphname = Aring;
lastChange = "2019-04-02 23:25:43 +0000";
layers = (
{
hints = (
{
horizontal = 1;
place = "{701, 50}";
type = Stem;
},
{
place = "{169, 92}";
type = Stem;
},
{
place = "{375.66, 17.34}";
type = Stem;
}
);
layerId = "67FB5424-006C-40A0-BA73-E9B40C667CAC";
paths = (
{
closed = 1;
nodes = (
"305 886 OFFCURVE",
"307 864 OFFCURVE",
"306 841 CURVE SMOOTH",
"305 818 OFFCURVE",
"300 797 OFFCURVE",
"292 777 CURVE",
"286 768 OFFCURVE",
"277 762 OFFCURVE",
"266 759 CURVE SMOOTH",
"255 756 OFFCURVE",
"243 754 OFFCURVE",
"232 753 CURVE SMOOTH",
"223 752 OFFCURVE",
"213 751 OFFCURVE",
"204 751 CURVE SMOOTH",
"195 751 OFFCURVE",
"185 751 OFFCURVE",
"176 752 CURVE SMOOTH",
"167 753 OFFCURVE",
"158 756 OFFCURVE",
"149 761 CURVE SMOOTH",
"140 766 OFFCURVE",
"134 772 OFFCURVE",
"131 781 CURVE",
"128 800 OFFCURVE",
"126 819 OFFCURVE",
"125 839 CURVE SMOOTH",
"124 858 OFFCURVE",
"125 877 OFFCURVE",
"130 895 CURVE SMOOTH",
"132 902 OFFCURVE",
"136 908 OFFCURVE",
"141 915 CURVE",
"150 924 OFFCURVE",
"162 930 OFFCURVE",
"176 933 CURVE SMOOTH",
"189 936 OFFCURVE",
"204 936 OFFCURVE",
"219 935 CURVE SMOOTH",
"233 934 OFFCURVE",
"248 932 OFFCURVE",
"264 928 CURVE SMOOTH",
"279 924 OFFCURVE",
"291 917 OFFCURVE",
"298 906 CURVE"
);
},
{
closed = 1;
nodes = (
"204 892 OFFCURVE",
"195 889 OFFCURVE",
"186 885 CURVE",
"178 880 OFFCURVE",
"173 874 OFFCURVE",
"171 865 CURVE",
"170 858 OFFCURVE",
"169 853 OFFCURVE",
"169 848 CURVE SMOOTH",
"169 841 OFFCURVE",
"169 833 OFFCURVE",
"170 825 CURVE SMOOTH",
"171 816 OFFCURVE",
"174 809 OFFCURVE",
"179 804 CURVE",
"186 798 OFFCURVE",
"194 795 OFFCURVE",
"204 795 CURVE SMOOTH",
"214 795 LINE",
"218 796 OFFCURVE",
"230 797 OFFCURVE",
"239 798 CURVE SMOOTH",
"248 799 OFFCURVE",
"254 803 OFFCURVE",
"257 810 CURVE",
"258 817 OFFCURVE",
"260 824 OFFCURVE",
"261 832 CURVE SMOOTH",
"262 840 OFFCURVE",
"263 848 OFFCURVE",
"262 855 CURVE SMOOTH",
"261 864 OFFCURVE",
"258 872 OFFCURVE",
"255 877 CURVE",
"250 882 OFFCURVE",
"244 886 OFFCURVE",
"237 888 CURVE SMOOTH",
"230 890 OFFCURVE",
"223 891 OFFCURVE",
"216 891 CURVE"
);
},
{
closed = 1;
nodes = (
"437 0 LINE",
"420 -1 OFFCURVE",
"392 -4 OFFCURVE",
"394 0 CURVE",
"389 11 OFFCURVE",
"385 23 OFFCURVE",
"382 38 CURVE",
"378 53 OFFCURVE",
"374 68 OFFCURVE",
"371 83 CURVE",
"367 98 OFFCURVE",
"359 127 OFFCURVE",
"348 169 CURVE",
"83 172 LINE",
"78 136 OFFCURVE",
"71 103 OFFCURVE",
"68 88 CURVE SMOOTH",
"65 72 OFFCURVE",
"59 44 OFFCURVE",
"52 3 CURVE",
"52 3 OFFCURVE",
"32 2 OFFCURVE",
"4 2 CURVE",
"5 7 OFFCURVE",
"8 20 OFFCURVE",
"11 41 CURVE SMOOTH",
"14 62 OFFCURVE",
"19 90 OFFCURVE",
"25 124 CURVE SMOOTH",
"31 158 OFFCURVE",
"38 197 OFFCURVE",
"47 242 CURVE SMOOTH",
"55 286 OFFCURVE",
"65 333 OFFCURVE",
"76 383 CURVE SMOOTH",
"87 433 OFFCURVE",
"100 485 OFFCURVE",
"113 539 CURVE SMOOTH",
"126 593 OFFCURVE",
"144 647 OFFCURVE",
"166 700 CURVE",
"171 701 OFFCURVE",
"176 701 OFFCURVE",
"181 701 CURVE SMOOTH",
"186 701 OFFCURVE",
"192 701 OFFCURVE",
"198 701 CURVE SMOOTH",
"203 701 OFFCURVE",
"213 701 OFFCURVE",
"227 702 CURVE",
"240 702 OFFCURVE",
"258 703 OFFCURVE",
"280 705 CURVE",
"282 696 OFFCURVE",
"285 683 OFFCURVE",
"290 666 CURVE",
"294 648 OFFCURVE",
"299 628 OFFCURVE",
"304 606 CURVE SMOOTH",
"309 583 OFFCURVE",
"314 559 OFFCURVE",
"320 534 CURVE",
"325 509 OFFCURVE",
"331 484 OFFCURVE",
"336 461 CURVE SMOOTH",
"341 438 OFFCURVE",
"346 416 OFFCURVE",
"351 397 CURVE SMOOTH",
"356 378 OFFCURVE",
"359 362 OFFCURVE",
"362 351 CURVE"
);
},
{
closed = 1;
nodes = (
"108 213 OFFCURVE",
"119 212 OFFCURVE",
"158 211 CURVE SMOOTH",
"196 210 OFFCURVE",
"259 211 OFFCURVE",
"347 213 CURVE",
"286 510 OFFCURVE",
"253 659 OFFCURVE",
"248 659 CURVE SMOOTH",
"242 659 OFFCURVE",
"233 659 OFFCURVE",
"221 659 CURVE SMOOTH",
"208 659 OFFCURVE",
"199 659 OFFCURVE",
"193 659 CURVE",
"186 658 OFFCURVE",
"175 624 OFFCURVE",
"160 555 CURVE SMOOTH",
"144 486 OFFCURVE",
"120 372 OFFCURVE",
"88 213 CURVE"
);
}
);
width = 434;
}
);
leftKerningGroup = A;
note = Aring;
rightKerningGroup = A;
unicode = 00C5;
},
{
glyphname = Atilde;
lastChange = "2019-04-02 23:26:10 +0000";
layers = (
{
hints = (
{
horizontal = 1;
place = "{0, 921.5}";
type = Stem;
},
{
place = "{354.06, 38.94}";
type = Stem;
}
);
layerId = "67FB5424-006C-40A0-BA73-E9B40C667CAC";
paths = (
{
closed = 1;
nodes = (
"61 757 LINE",
"52 758 OFFCURVE",
"46 758 OFFCURVE",
"41 758 CURVE SMOOTH",
"35 758 OFFCURVE",
"27 758 OFFCURVE",
"17 757 CURVE",
"19 764 OFFCURVE",
"22 774 OFFCURVE",
"27 786 CURVE",
"31 797 OFFCURVE",
"36 809 OFFCURVE",
"41 822 CURVE SMOOTH",
"46 835 OFFCURVE",
"52 847 OFFCURVE",
"58 858 CURVE SMOOTH",
"64 869 OFFCURVE",
"70 879 OFFCURVE",
"77 886 CURVE SMOOTH",
"86 895 OFFCURVE",
"96 902 OFFCURVE",
"107 908 CURVE SMOOTH",
"118 914 OFFCURVE",
"130 918 OFFCURVE",
"142 920 CURVE SMOOTH",
"154 922 OFFCURVE",
"166 922 OFFCURVE",
"178 920 CURVE",
"190 917 OFFCURVE",
"201 912 OFFCURVE",
"212 905 CURVE",
"222 898 OFFCURVE",
"230 889 OFFCURVE",
"236 880 CURVE",
"241 871 OFFCURVE",
"249 851 OFFCURVE",
"258 821 CURVE SMOOTH",
"267 790 OFFCURVE",
"287 778 OFFCURVE",
"319 785 CURVE SMOOTH",
"351 791 OFFCURVE",
"371 807 OFFCURVE",
"378 833 CURVE SMOOTH",
"385 859 OFFCURVE",
"386 885 OFFCURVE",
"382 912 CURVE",
"419 913 LINE",
"419 912 LINE",
"419 895 OFFCURVE",
"422 878 OFFCURVE",
"419 861 CURVE SMOOTH",
"416 843 OFFCURVE",
"410 826 OFFCURVE",
"402 811 CURVE SMOOTH",
"394 796 OFFCURVE",
"384 783 OFFCURVE",
"371 772 CURVE SMOOTH",
"358 761 OFFCURVE",
"342 754 OFFCURVE",
"325 751 CURVE SMOOTH",
"304 748 OFFCURVE",
"284 749 OFFCURVE",
"265 755 CURVE SMOOTH",
"246 761 OFFCURVE",
"229 786 OFFCURVE",
"216 829 CURVE",
"205 858 OFFCURVE",
"194 875 OFFCURVE",
"183 881 CURVE SMOOTH",
"172 887 OFFCURVE",
"159 889 OFFCURVE",
"144 886 CURVE",
"119 880 OFFCURVE",
"101 866 OFFCURVE",
"89 843 CURVE SMOOTH",
"77 820 OFFCURVE",
"68 791 OFFCURVE",
"61 758 CURVE"
);
},
{
closed = 1;
nodes = (
"437 0 LINE",
"420 -1 OFFCURVE",
"392 -4 OFFCURVE",
"394 0 CURVE",
"389 11 OFFCURVE",
"385 23 OFFCURVE",
"382 38 CURVE",
"378 53 OFFCURVE",
"374 68 OFFCURVE",
"371 83 CURVE",
"367 98 OFFCURVE",
"359 127 OFFCURVE",
"348 169 CURVE",
"83 172 LINE",
"78 136 OFFCURVE",
"71 103 OFFCURVE",
"68 88 CURVE SMOOTH",
"65 72 OFFCURVE",
"59 44 OFFCURVE",
"52 3 CURVE",
"52 3 OFFCURVE",
"32 2 OFFCURVE",
"4 2 CURVE",
"5 7 OFFCURVE",
"8 20 OFFCURVE",
"11 41 CURVE SMOOTH",
"14 62 OFFCURVE",
"19 90 OFFCURVE",
"25 124 CURVE SMOOTH",
"31 158 OFFCURVE",
"38 197 OFFCURVE",
"47 242 CURVE SMOOTH",
"55 286 OFFCURVE",
"65 333 OFFCURVE",
"76 383 CURVE SMOOTH",
"87 433 OFFCURVE",
"100 485 OFFCURVE",
"113 539 CURVE SMOOTH",
"126 593 OFFCURVE",
"144 647 OFFCURVE",
"166 700 CURVE",
"171 701 OFFCURVE",
"176 701 OFFCURVE",
"181 701 CURVE SMOOTH",
"186 701 OFFCURVE",
"192 701 OFFCURVE",
"198 701 CURVE SMOOTH",
"203 701 OFFCURVE",
"213 701 OFFCURVE",
"227 702 CURVE",
"240 702 OFFCURVE",
"258 703 OFFCURVE",
"280 705 CURVE",
"282 696 OFFCURVE",
"285 683 OFFCURVE",
"290 666 CURVE",
"294 648 OFFCURVE",
"299 628 OFFCURVE",
"304 606 CURVE SMOOTH",
"309 583 OFFCURVE",
"314 559 OFFCURVE",
"320 534 CURVE",
"325 509 OFFCURVE",
"331 484 OFFCURVE",
"336 461 CURVE SMOOTH",
"341 438 OFFCURVE",
"346 416 OFFCURVE",
"351 397 CURVE SMOOTH",
"356 378 OFFCURVE",
"359 362 OFFCURVE",
"362 351 CURVE"
);
},
{
closed = 1;
nodes = (
"108 213 OFFCURVE",
"119 212 OFFCURVE",
"158 211 CURVE SMOOTH",
"196 210 OFFCURVE",
"259 211 OFFCURVE",
"347 213 CURVE",
"286 510 OFFCURVE",
"253 659 OFFCURVE",
"248 659 CURVE SMOOTH",
"242 659 OFFCURVE",
"233 659 OFFCURVE",
"221 659 CURVE SMOOTH",
"208 659 OFFCURVE",
"199 659 OFFCURVE",
"193 659 CURVE",
"186 658 OFFCURVE",
"175 624 OFFCURVE",
"160 555 CURVE SMOOTH",
"144 486 OFFCURVE",
"120 372 OFFCURVE",
"88 213 CURVE"
);
}
);
width = 434;
}
);
leftKerningGroup = A;
note = Atilde;
rightKerningGroup = A;
unicode = 00C3;
},
{
glyphname = AE;
lastChange = "2019-04-02 23:28:57 +0000";
layers = (
{
hints = (
{
horizontal = 1;
place = "{45, 125.5}";
type = Stem;
},
{
horizontal = 1;
place = "{311.09, 17.91}";
type = Stem;
},
{
horizontal = 1;
place = "{366, 291}";
type = Stem;
},
{
place = "{447, 43.33}";
type = Stem;
},
{
horizontal = 1;
place = "{213, 113}";
type = Stem;
}
);
layerId = "67FB5424-006C-40A0-BA73-E9B40C667CAC";
paths = (
{
closed = 1;
nodes = (
"694 3 LINE",
"595 -4 OFFCURVE",
"559 2 OFFCURVE",
"494 -1 CURVE SMOOTH",
"429 -4 OFFCURVE",
"392 -1 OFFCURVE",
"394 3 CURVE",
"394 100 LINE",
"393 128 OFFCURVE",
"393 133 OFFCURVE",
"393 168 CURVE",
"88 172 LINE",
"81 134 OFFCURVE",
"76 103 OFFCURVE",
"73 88 CURVE SMOOTH",
"70 72 OFFCURVE",
"64 44 OFFCURVE",
"57 3 CURVE",
"56 3 OFFCURVE",
"55 3 OFFCURVE",
"53 3 CURVE",
"50 2 OFFCURVE",
"36 2 OFFCURVE",
"9 2 CURVE",
"10 7 OFFCURVE",
"13 20 OFFCURVE",
"16 41 CURVE SMOOTH",
"19 62 OFFCURVE",
"24 90 OFFCURVE",
"30 124 CURVE SMOOTH",
"36 158 OFFCURVE",
"43 197 OFFCURVE",
"52 242 CURVE SMOOTH",
"60 286 OFFCURVE",
"70 333 OFFCURVE",
"81 383 CURVE SMOOTH",
"92 433 OFFCURVE",
"105 485 OFFCURVE",
"118 539 CURVE SMOOTH",
"131 593 OFFCURVE",
"149 647 OFFCURVE",
"171 700 CURVE",
"176 701 OFFCURVE",
"186 701 OFFCURVE",
"202 701 CURVE SMOOTH",
"208 701 OFFCURVE",
"275 701 OFFCURVE",
"402 700 CURVE SMOOTH",
"529 699 OFFCURVE",
"604 698 OFFCURVE",
"626 698 CURVE SMOOTH",
"648 698 OFFCURVE",
"666 698 OFFCURVE",
"679 697 CURVE SMOOTH",
"692 696 OFFCURVE",
"699 696 OFFCURVE",
"699 695 CURVE SMOOTH",
"698 657 LINE",
"677 657 OFFCURVE",
"656 659 OFFCURVE",
"637 658 CURVE SMOOTH",
"617 657 OFFCURVE",
"596 656 OFFCURVE",
"574 657 CURVE",
"552 657 OFFCURVE",
"530 657 OFFCURVE",
"508 657 CURVE SMOOTH",
"478 657 OFFCURVE",
"465 656 OFFCURVE",
"449 652 CURVE",
"451 633 OFFCURVE",
"449 596 OFFCURVE",
"447 542 CURVE SMOOTH",
"445 488 OFFCURVE",
"444 430 OFFCURVE",
"445 368 CURVE",
"465 366 OFFCURVE",
"468 366 OFFCURVE",
"496 366 CURVE SMOOTH",
"517 366 OFFCURVE",
"537 366 OFFCURVE",
"558 364 CURVE",
"559 352 OFFCURVE",
"559 342 OFFCURVE",
"559 335 CURVE SMOOTH",
"559 326 LINE",
"532 327 OFFCURVE",
"517 327 OFFCURVE",
"513 326 CURVE SMOOTH",
"509 325 OFFCURVE",
"488 325 OFFCURVE",
"450 326 CURVE",
"447 302 OFFCURVE",
"446 269 OFFCURVE",
"447 228 CURVE SMOOTH",
"448 186 OFFCURVE",
"447 125 OFFCURVE",
"444 46 CURVE",
"465 46 OFFCURVE",
"529 45 OFFCURVE",
"564 43 CURVE SMOOTH",
"607 40 OFFCURVE",
"651 40 OFFCURVE",
"696 41 CURVE"
);
},
{
closed = 1;
nodes = (
"114 211 OFFCURVE",
"124 212 OFFCURVE",
"163 211 CURVE SMOOTH",
"201 210 OFFCURVE",
"305 211 OFFCURVE",
"393 213 CURVE",
"398 488 OFFCURVE",
"392 604 OFFCURVE",
"392 659 CURVE",
"225 659 LINE SMOOTH",
"222 659 OFFCURVE",
"204 659 OFFCURVE",
"198 659 CURVE",
"191 647 OFFCURVE",
"180 624 OFFCURVE",
"165 555 CURVE SMOOTH",
"149 486 OFFCURVE",
"125 372 OFFCURVE",
"93 213 CURVE"
);
}
);
width = 716;
}
);
leftKerningGroup = AE;
note = AE;
rightKerningGroup = AE;
unicode = 00C6;
},
{
glyphname = B;
lastChange = "2019-04-02 23:29:35 +0000";
layers = (
{
hints = (
{
horizontal = 1;
place = "{295.7, 8.3}";
type = Stem;
},
{
place = "{40.25, 426.37}";
type = Stem;
},
{
place = "{82, 310}";
type = Stem;
}
);
layerId = "67FB5424-006C-40A0-BA73-E9B40C667CAC";
paths = (
{
closed = 1;
nodes = (
"388 344 OFFCURVE",
"387 344 OFFCURVE",
"388 341 CURVE SMOOTH",
"389 338 OFFCURVE",
"392 335 OFFCURVE",
"395 331 CURVE",
"406 318 OFFCURVE",
"416 305 OFFCURVE",
"426 292 CURVE",
"435 279 OFFCURVE",
"444 265 OFFCURVE",
"451 251 CURVE SMOOTH",
"458 236 OFFCURVE",
"462 220 OFFCURVE",
"465 203 CURVE SMOOTH",
"468 186 OFFCURVE",
"467 166 OFFCURVE",
"463 145 CURVE SMOOTH",
"458 114 OFFCURVE",
"448 88 OFFCURVE",
"433 69 CURVE SMOOTH",
"418 49 OFFCURVE",
"399 34 OFFCURVE",
"378 23 CURVE SMOOTH",
"357 12 OFFCURVE",
"333 5 OFFCURVE",
"307 2 CURVE",
"281 -2 OFFCURVE",
"254 -4 OFFCURVE",
"227 -5 CURVE",
"199 -5 OFFCURVE",
"171 -4 OFFCURVE",
"144 -2 CURVE SMOOTH",
"116 0 OFFCURVE",
"90 1 OFFCURVE",
"66 2 CURVE",
"62 2 OFFCURVE",
"58 2 OFFCURVE",
"55 2 CURVE SMOOTH",
"51 2 OFFCURVE",
"47 3 OFFCURVE",
"44 4 CURVE",
"40 119 OFFCURVE",
"39 234 OFFCURVE",
"41 348 CURVE SMOOTH",
"43 461 OFFCURVE",
"43 576 OFFCURVE",
"41 692 CURVE",
"42 693 LINE",
"68 700 OFFCURVE",
"97 706 OFFCURVE",
"127 710 CURVE SMOOTH",
"157 714 OFFCURVE",
"187 715 OFFCURVE",
"216 714 CURVE SMOOTH",
"245 713 OFFCURVE",
"274 708 OFFCURVE",
"301 701 CURVE SMOOTH",
"328 694 OFFCURVE",
"351 682 OFFCURVE",
"372 666 CURVE SMOOTH",
"393 649 OFFCURVE",
"409 628 OFFCURVE",
"421 603 CURVE SMOOTH",
"433 577 OFFCURVE",
"439 545 OFFCURVE",
"439 508 CURVE SMOOTH",
"439 480 OFFCURVE",
"434 453 OFFCURVE",
"425 426 CURVE SMOOTH",
"415 399 OFFCURVE",
"403 375 OFFCURVE",
"390 352 CURVE"
);
},
{
closed = 1;
nodes = (
"99 346 OFFCURVE",
"123 349 OFFCURVE",
"162 346 CURVE SMOOTH",
"201 343 OFFCURVE",
"238 343 OFFCURVE",
"275 347 CURVE SMOOTH",
"312 351 OFFCURVE",
"334 355 OFFCURVE",
"342 359 CURVE SMOOTH",
"350 363 OFFCURVE",
"361 381 OFFCURVE",
"375 414 CURVE",
"390 445 OFFCURVE",
"396 488 OFFCURVE",
"392 545 CURVE SMOOTH",
"387 601 OFFCURVE",
"366 637 OFFCURVE",
"327 653 CURVE SMOOTH",
"288 668 OFFCURVE",
"255 676 OFFCURVE",
"226 676 CURVE SMOOTH",
"197 675 OFFCURVE",
"169 675 OFFCURVE",
"141 674 CURVE SMOOTH",
"112 673 OFFCURVE",
"93 669 OFFCURVE",
"83 664 CURVE",
"84 649 OFFCURVE",
"84 599 OFFCURVE",
"82 515 CURVE SMOOTH",
"80 430 OFFCURVE",
"84 371 OFFCURVE",
"84 348 CURVE"
);
},
{
closed = 1;
nodes = (
"101 144 OFFCURVE",
"127 37 OFFCURVE",
"164 34 CURVE SMOOTH",
"201 31 OFFCURVE",
"238 31 OFFCURVE",
"275 35 CURVE SMOOTH",
"312 39 OFFCURVE",
"338 45 OFFCURVE",
"354 54 CURVE SMOOTH",
"369 62 OFFCURVE",
"386 86 OFFCURVE",
"404 126 CURVE SMOOTH",
"414 150 OFFCURVE",
"411 186 OFFCURVE",
"395 233 CURVE SMOOTH",
"379 280 OFFCURVE",
"350 303 OFFCURVE",
"307 304 CURVE SMOOTH",
"264 304 OFFCURVE",
"229 299 OFFCURVE",
"216 300 CURVE",
"203 300 OFFCURVE",
"164 303 OFFCURVE",
"87 298 CURVE",
"86 290 OFFCURVE",
"81 278 OFFCURVE",
"81 231 CURVE SMOOTH",
"81 187 OFFCURVE",
"90 124 OFFCURVE",
"93 41 CURVE"
);
}
);
width = 477;
}
);
note = B;
rightKerningGroup = B;
unicode = 0042;
},
{
glyphname = C;
layers = (
{
hints = (
{
horizontal = 1;
place = "{-12, 40}";
type = Stem;
},
{
horizontal = 1;
place = "{680, 46}";
type = Stem;
},
{
place = "{32, 32.3}";
type = Stem;
},
{
place = "{423.98, 41.02}";
type = Stem;
},
{
place = "{425, 48.25}";
type = Stem;
}
);
layerId = "67FB5424-006C-40A0-BA73-E9B40C667CAC";
paths = (
{
closed = 1;
nodes = (
"50 169 OFFCURVE",
"75 289 OFFCURVE",
"76 360 CURVE",
"68 575 OFFCURVE",
"113 682 OFFCURVE",
"212 680 CURVE SMOOTH",
"294 678 OFFCURVE",
"348 661 OFFCURVE",
"373 628 CURVE SMOOTH",
"398 595 OFFCURVE",
"413 571 OFFCURVE",
"417 554 CURVE",
"420 537 OFFCURVE",
"423 512 OFFCURVE",
"425 481 CURVE SMOOTH",
"427 449 OFFCURVE",
"427 428 OFFCURVE",
"426 418 CURVE",
"422 415 OFFCURVE",
"437 415 OFFCURVE",
"471 420 CURVE",
"474 451 OFFCURVE",
"474 482 OFFCURVE",
"471 511 CURVE SMOOTH",
"468 540 OFFCURVE",
"461 568 OFFCURVE",
"448 593 CURVE SMOOTH",
"435 618 OFFCURVE",
"418 640 OFFCURVE",
"397 659 CURVE SMOOTH",
"376 678 OFFCURVE",
"352 694 OFFCURVE",
"326 706 CURVE",
"299 717 OFFCURVE",
"271 724 OFFCURVE",
"241 726 CURVE SMOOTH",
"211 728 OFFCURVE",
"181 724 OFFCURVE",
"150 714 CURVE SMOOTH",
"141 711 OFFCURVE",
"132 708 OFFCURVE",
"123 705 CURVE",
"114 701 OFFCURVE",
"106 696 OFFCURVE",
"99 691 CURVE",
"86 680 OFFCURVE",
"76 667 OFFCURVE",
"67 652 CURVE SMOOTH",
"58 637 OFFCURVE",
"50 621 OFFCURVE",
"44 604 CURVE",
"40 594 OFFCURVE",
"36 572 OFFCURVE",
"33 537 CURVE",
"32 483 OFFCURVE",
"32 436 OFFCURVE",
"32 395 CURVE SMOOTH",
"31 354 OFFCURVE",
"31 317 OFFCURVE",
"32 285 CURVE SMOOTH",
"32 252 OFFCURVE",
"32 223 OFFCURVE",
"33 197 CURVE SMOOTH",
"34 171 OFFCURVE",
"35 146 OFFCURVE",
"36 122 CURVE",
"39 94 OFFCURVE",
"48 71 OFFCURVE",
"63 52 CURVE SMOOTH",
"78 33 OFFCURVE",
"96 19 OFFCURVE",
"118 9 CURVE",
"140 -2 OFFCURVE",
"164 -9 OFFCURVE",
"189 -12 CURVE SMOOTH",
"214 -15 OFFCURVE",
"239 -14 OFFCURVE",
"263 -11 CURVE",
"300 -10 OFFCURVE",
"333 -1 OFFCURVE",
"362 17 CURVE SMOOTH",
"391 34 OFFCURVE",
"414 57 OFFCURVE",
"432 84 CURVE SMOOTH",
"450 111 OFFCURVE",
"462 142 OFFCURVE",
"467 177 CURVE SMOOTH",
"472 211 OFFCURVE",
"472 248 OFFCURVE",
"465 287 CURVE",
"451 285 OFFCURVE",
"436 284 OFFCURVE",
"421 283 CURVE",
"430 200 OFFCURVE",
"419 139 OFFCURVE",
"387 98 CURVE SMOOTH",
"355 57 OFFCURVE",
"316 34 OFFCURVE",
"269 28 CURVE SMOOTH",
"220 23 OFFCURVE",
"176 32 OFFCURVE",
"137 55 CURVE SMOOTH",
"98 78 OFFCURVE",
"77 125 OFFCURVE",
"76 197 CURVE"
);
}
);
width = 488;
}
);
leftKerningGroup = C;
note = C;
rightKerningGroup = C;
unicode = 0043;
},
{
glyphname = Ccedilla;
layers = (
{
hints = (
{
horizontal = 1;
place = "{-20, 11}";
type = Stem;
},
{
horizontal = 1;
place = "{283, 137}";
type = Stem;
},
{
place = "{31.25, 442}";
type = Stem;
}
);
layerId = "67FB5424-006C-40A0-BA73-E9B40C667CAC";
paths = (
{
closed = 1;
nodes = (
"135 -9 OFFCURVE",
"203 -12 OFFCURVE",
"204 -9 CURVE",
"169 -8 OFFCURVE",
"140 -2 OFFCURVE",
"118 9 CURVE",
"96 19 OFFCURVE",
"78 33 OFFCURVE",
"63 52 CURVE SMOOTH",
"48 71 OFFCURVE",
"39 94 OFFCURVE",
"36 122 CURVE",
"35 146 OFFCURVE",
"34 171 OFFCURVE",
"33 197 CURVE SMOOTH",
"32 223 OFFCURVE",
"32 252 OFFCURVE",
"32 285 CURVE",
"31 317 OFFCURVE",
"31 354 OFFCURVE",
"32 395 CURVE SMOOTH",
"32 436 OFFCURVE",
"32 483 OFFCURVE",
"33 537 CURVE",
"36 572 OFFCURVE",
"40 594 OFFCURVE",
"44 604 CURVE",
"50 621 OFFCURVE",
"58 637 OFFCURVE",
"67 652 CURVE SMOOTH",
"76 667 OFFCURVE",
"86 680 OFFCURVE",
"99 691 CURVE",
"106 696 OFFCURVE",
"114 701 OFFCURVE",
"123 705 CURVE",
"132 708 OFFCURVE",
"141 711 OFFCURVE",
"150 714 CURVE SMOOTH",
"181 724 OFFCURVE",
"211 728 OFFCURVE",
"241 726 CURVE SMOOTH",
"271 724 OFFCURVE",
"299 717 OFFCURVE",
"326 706 CURVE",
"352 694 OFFCURVE",
"376 678 OFFCURVE",
"397 659 CURVE SMOOTH",
"418 640 OFFCURVE",
"435 618 OFFCURVE",
"448 593 CURVE SMOOTH",
"461 568 OFFCURVE",
"468 540 OFFCURVE",
"471 511 CURVE SMOOTH",
"474 482 OFFCURVE",
"474 451 OFFCURVE",
"471 420 CURVE",
"437 415 OFFCURVE",
"422 415 OFFCURVE",
"426 418 CURVE",
"427 428 OFFCURVE",
"427 449 OFFCURVE",
"425 481 CURVE SMOOTH",
"423 512 OFFCURVE",
"420 537 OFFCURVE",
"417 554 CURVE",
"413 571 OFFCURVE",
"398 595 OFFCURVE",
"373 628 CURVE SMOOTH",
"348 661 OFFCURVE",
"294 678 OFFCURVE",
"212 680 CURVE SMOOTH",
"113 682 OFFCURVE",
"68 575 OFFCURVE",
"76 360 CURVE",
"75 289 OFFCURVE",
"75 235 OFFCURVE",
"76 197 CURVE SMOOTH",
"77 125 OFFCURVE",
"98 78 OFFCURVE",
"137 55 CURVE SMOOTH",
"176 32 OFFCURVE",
"220 23 OFFCURVE",
"269 28 CURVE SMOOTH",
"316 34 OFFCURVE",
"355 57 OFFCURVE",
"387 98 CURVE SMOOTH",
"419 139 OFFCURVE",
"430 200 OFFCURVE",
"421 283 CURVE",
"436 284 OFFCURVE",
"451 285 OFFCURVE",
"465 287 CURVE",
"472 248 OFFCURVE",
"472 211 OFFCURVE",
"467 177 CURVE SMOOTH",
"462 142 OFFCURVE",
"450 111 OFFCURVE",
"432 84 CURVE SMOOTH",
"414 57 OFFCURVE",
"391 34 OFFCURVE",
"362 17 CURVE SMOOTH",
"333 -1 OFFCURVE",
"296 -10 OFFCURVE",
"253 -9 CURVE",
"250 -26 OFFCURVE",
"246 -43 OFFCURVE",
"242 -58 CURVE",
"237 -80 OFFCURVE",
"233 -93 OFFCURVE",
"232 -98 CURVE",
"232 -98 OFFCURVE",
"225 -98 OFFCURVE",
"212 -98 CURVE SMOOTH",
"199 -98 OFFCURVE",
"189 -98 OFFCURVE",
"182 -98 CURVE",
"182 -97 LINE",
"190 -67 OFFCURVE",
"196 -41 OFFCURVE",
"201 -20 CURVE"
);
}
);
width = 476;
}
);
leftKerningGroup = C;
note = Ccedilla;
rightKerningGroup = C;
unicode = 00C7;
},
{
glyphname = D;
layers = (
{
hints = (
{
horizontal = 1;
place = "{590.12, 72.88}";
type = Stem;
},
{
place = "{39, 423}";
type = Stem;
}
);
layerId = "67FB5424-006C-40A0-BA73-E9B40C667CAC";
paths = (
{
closed = 1;
nodes = (
"211 462 OFFCURVE",
"326 685 OFFCURVE",
"346 670 CURVE",
"365 654 OFFCURVE",
"381 636 OFFCURVE",
"393 617 CURVE SMOOTH",
"407 594 OFFCURVE",
"419 571 OFFCURVE",
"429 547 CURVE SMOOTH",
"439 522 OFFCURVE",
"447 497 OFFCURVE",
"453 470 CURVE",
"456 459 OFFCURVE",
"459 449 OFFCURVE",
"460 439 CURVE SMOOTH",
"461 428 OFFCURVE",
"461 418 OFFCURVE",
"462 407 CURVE",
"461 376 OFFCURVE",
"460 344 OFFCURVE",
"459 313 CURVE SMOOTH",
"458 281 OFFCURVE",
"454 250 OFFCURVE",
"448 219 CURVE",
"448 218 OFFCURVE",
"448 218 OFFCURVE",
"448 218 CURVE SMOOTH",
"447 218 OFFCURVE",
"444 208 OFFCURVE",
"437 188 CURVE SMOOTH",
"430 168 OFFCURVE",
"416 140 OFFCURVE",
"393 105 CURVE SMOOTH",
"370 70 OFFCURVE",
"345 36 OFFCURVE",
"320 5 CURVE",
"276 4 OFFCURVE",
"232 3 OFFCURVE",
"187 3 CURVE SMOOTH",
"142 2 OFFCURVE",
"99 2 OFFCURVE",
"57 2 CURVE SMOOTH",
"57 2 OFFCURVE",
"57 2 OFFCURVE",
"56 1 CURVE",
"49 54 OFFCURVE",
"44 108 OFFCURVE",
"42 165 CURVE SMOOTH",
"40 221 OFFCURVE",
"39 278 OFFCURVE",
"39 336 CURVE SMOOTH",
"39 394 OFFCURVE",
"40 453 OFFCURVE",
"41 512 CURVE SMOOTH",
"42 571 OFFCURVE",
"41 629 OFFCURVE",
"40 687 CURVE",
"41 688 OFFCURVE",
"41 688 OFFCURVE",
"42 689 CURVE",
"42 690 OFFCURVE",
"42 690 OFFCURVE",
"43 691 CURVE",
"62 696 OFFCURVE",
"81 699 OFFCURVE",
"102 701 CURVE",
"122 702 OFFCURVE",
"142 703 OFFCURVE",
"163 703 CURVE",
"184 702 OFFCURVE",
"204 702 OFFCURVE",
"225 701 CURVE SMOOTH",
"245 700 OFFCURVE",
"265 700 OFFCURVE",
"284 701 CURVE"
);
},
{
closed = 1;
nodes = (
"311 288 OFFCURVE",
"336 95 OFFCURVE",
"358 122 CURVE SMOOTH",
"380 148 OFFCURVE",
"400 206 OFFCURVE",
"418 296 CURVE",
"423 345 OFFCURVE",
"422 393 OFFCURVE",
"417 441 CURVE",
"400 518 OFFCURVE",
"377 573 OFFCURVE",
"348 608 CURVE SMOOTH",
"318 643 OFFCURVE",
"293 660 OFFCURVE",
"273 661 CURVE SMOOTH",
"253 662 OFFCURVE",
"236 662 OFFCURVE",
"223 663 CURVE",
"210 663 OFFCURVE",
"165 661 OFFCURVE",
"88 657 CURVE",
"81 657 LINE",
"80 657 LINE",
"87 636 OFFCURVE",
"87 587 OFFCURVE",
"87 508 CURVE SMOOTH",
"87 429 OFFCURVE",
"86 379 OFFCURVE",
"84 357 CURVE",
"81 334 OFFCURVE",
"82 282 OFFCURVE",
"86 201 CURVE SMOOTH",
"90 120 OFFCURVE",
"93 69 OFFCURVE",
"94 49 CURVE",
"101 46 OFFCURVE",
"128 45 OFFCURVE",
"173 46 CURVE SMOOTH",
"218 47 OFFCURVE",
"247 49 OFFCURVE",
"259 50 CURVE",
"290 50 LINE"
);
}
);
width = 482;
}
);
note = D;
rightKerningGroup = D;
unicode = 0044;
},
{
glyphname = Eth;
layers = (
{
hints = (
{
horizontal = 1;
place = "{1, 702}";
type = Stem;
},
{
place = "{29, 10}";
type = Stem;
},
{
place = "{86, 184.52}";
type = Stem;
},
{
place = "{228, 193.25}";
type = Stem;
},
{
horizontal = 1;
place = "{46, 271}";
type = Stem;
},
{
horizontal = 1;
place = "{375, 288}";
type = Stem;
}
);
layerId = "67FB5424-006C-40A0-BA73-E9B40C667CAC";
paths = (
{
closed = 1;
nodes = (
"1 215 OFFCURVE",
"-1 322 OFFCURVE",
"-4 322 CURVE",
"-4 330 OFFCURVE",
"-4 335 OFFCURVE",
"-3 338 CURVE SMOOTH",
"-2 341 OFFCURVE",
"-2 347 OFFCURVE",
"-2 356 CURVE",
"-1 365 OFFCURVE",
"-1 371 OFFCURVE",
"-1 373 CURVE",
"0 373 OFFCURVE",
"7 373 OFFCURVE",
"21 374 CURVE",
"26 374 OFFCURVE",
"32 374 OFFCURVE",
"39 374 CURVE",
"39 419 OFFCURVE",
"39 465 OFFCURVE",
"40 511 CURVE SMOOTH",
"41 570 OFFCURVE",
"41 629 OFFCURVE",
"40 687 CURVE",
"41 688 OFFCURVE",
"41 688 OFFCURVE",
"42 689 CURVE",
"42 690 OFFCURVE",
"42 690 OFFCURVE",
"43 691 CURVE",
"62 696 OFFCURVE",
"81 699 OFFCURVE",
"102 701 CURVE",
"122 702 OFFCURVE",
"142 703 OFFCURVE",
"163 703 CURVE",
"184 702 OFFCURVE",
"204 702 OFFCURVE",
"225 701 CURVE SMOOTH",
"245 700 OFFCURVE",
"265 700 OFFCURVE",
"284 701 CURVE",
"305 696 OFFCURVE",
"326 685 OFFCURVE",
"346 670 CURVE",
"365 654 OFFCURVE",
"381 636 OFFCURVE",
"393 617 CURVE SMOOTH",
"407 594 OFFCURVE",
"419 571 OFFCURVE",
"429 547 CURVE SMOOTH",
"439 522 OFFCURVE",
"447 497 OFFCURVE",
"453 470 CURVE",
"456 459 OFFCURVE",
"459 449 OFFCURVE",
"460 439 CURVE SMOOTH",
"461 428 OFFCURVE",
"461 418 OFFCURVE",
"462 407 CURVE",
"461 376 OFFCURVE",
"460 344 OFFCURVE",
"459 313 CURVE SMOOTH",
"458 281 OFFCURVE",
"454 250 OFFCURVE",
"448 219 CURVE",
"447 218 LINE",
"447 218 OFFCURVE",
"444 208 OFFCURVE",
"437 188 CURVE SMOOTH",
"430 168 OFFCURVE",
"416 140 OFFCURVE",
"393 105 CURVE SMOOTH",
"370 70 OFFCURVE",
"345 36 OFFCURVE",
"320 5 CURVE",
"276 4 OFFCURVE",
"232 3 OFFCURVE",
"187 3 CURVE SMOOTH",
"142 2 OFFCURVE",
"99 2 OFFCURVE",
"57 2 CURVE",
"56 1 LINE",
"49 54 OFFCURVE",
"44 108 OFFCURVE",
"42 164 CURVE SMOOTH",
"40 215 OFFCURVE",
"39 267 OFFCURVE",
"39 320 CURVE",
"36 320 OFFCURVE",
"32 320 OFFCURVE",
"29 320 CURVE"
);
},
{
closed = 1;
nodes = (
"226 161 OFFCURVE",
"336 95 OFFCURVE",
"358 122 CURVE SMOOTH",
"380 148 OFFCURVE",
"400 206 OFFCURVE",
"418 296 CURVE",
"423 345 OFFCURVE",
"422 393 OFFCURVE",
"417 441 CURVE",
"400 518 OFFCURVE",
"377 573 OFFCURVE",
"348 608 CURVE SMOOTH",
"318 643 OFFCURVE",
"293 660 OFFCURVE",
"273 661 CURVE SMOOTH",
"253 662 OFFCURVE",
"236 662 OFFCURVE",
"223 663 CURVE",
"210 663 OFFCURVE",
"165 661 OFFCURVE",
"88 657 CURVE",
"80 657 LINE",
"87 636 OFFCURVE",
"87 587 OFFCURVE",
"87 508 CURVE SMOOTH",
"87 447 OFFCURVE",
"86 402 OFFCURVE",
"85 375 CURVE",
"90 375 LINE",
"225 375 LINE",
"179 356 OFFCURVE",
"227 337 OFFCURVE",
"228 317 CURVE",
"188 317 LINE SMOOTH",
"179 317 OFFCURVE",
"138 317 OFFCURVE",
"106 318 CURVE SMOOTH",
"97 318 OFFCURVE",
"89 318 OFFCURVE",
"82 318 CURVE",
"82 291 OFFCURVE",
"83 252 OFFCURVE",
"86 201 CURVE SMOOTH",
"90 120 OFFCURVE",
"93 69 OFFCURVE",
"94 49 CURVE",
"101 46 OFFCURVE",
"128 45 OFFCURVE",
"173 46 CURVE SMOOTH",
"218 47 OFFCURVE",
"247 49 OFFCURVE",
"259 50 CURVE",
"290 50 LINE"
);
}
);
width = 482;
}
);
note = Eth;
rightKerningGroup = D;
unicode = 00D0;
},
{
glyphname = E;
layers = (
{
hints = (
{
horizontal = 1;
place = "{45, 280}";
type = Stem;
},
{
horizontal = 1;
place = "{366, 291}";
type = Stem;
},
{
place = "{39.25, 420.75}";
type = Stem;
}
);
layerId = "67FB5424-006C-40A0-BA73-E9B40C667CAC";
paths = (
{
closed = 1;
nodes = (
"457 39 LINE",
"455 3 LINE",
"235 3 OFFCURVE",
"318 3 OFFCURVE",
"248 1 CURVE SMOOTH",
"177 -2 OFFCURVE",
"110 0 OFFCURVE",
"45 5 CURVE",
"45 63 OFFCURVE",
"44 121 OFFCURVE",
"43 178 CURVE SMOOTH",
"42 235 OFFCURVE",
"41 291 OFFCURVE",
"40 348 CURVE SMOOTH",
"39 405 OFFCURVE",
"39 461 OFFCURVE",
"40 518 CURVE SMOOTH",
"41 575 OFFCURVE",
"43 632 OFFCURVE",
"46 689 CURVE",
"72 690 OFFCURVE",
"100 692 OFFCURVE",
"131 693 CURVE SMOOTH",
"161 694 OFFCURVE",
"191 694 OFFCURVE",
"222 695 CURVE SMOOTH",
"253 696 OFFCURVE",
"282 696 OFFCURVE",
"311 697 CURVE SMOOTH",
"340 698 OFFCURVE",
"365 698 OFFCURVE",
"387 698 CURVE SMOOTH",
"409 698 OFFCURVE",
"427 698 OFFCURVE",
"440 697 CURVE SMOOTH",
"453 696 OFFCURVE",
"460 696 OFFCURVE",
"460 695 CURVE SMOOTH",
"459 657 LINE",
"438 671 OFFCURVE",
"417 659 OFFCURVE",
"398 658 CURVE SMOOTH",
"378 657 OFFCURVE",
"357 656 OFFCURVE",
"335 657 CURVE",
"313 657 OFFCURVE",
"291 657 OFFCURVE",
"269 657 CURVE SMOOTH",
"247 657 OFFCURVE",
"189 656 OFFCURVE",
"95 653 CURVE SMOOTH",
"92 653 LINE",
"91 652 LINE",
"93 633 OFFCURVE",
"90 585 OFFCURVE",
"86 509 CURVE SMOOTH",
"82 433 OFFCURVE",
"82 386 OFFCURVE",
"87 368 CURVE",
"88 367 LINE",
"180 367 OFFCURVE",
"236 366 OFFCURVE",
"257 366 CURVE SMOOTH",
"278 366 OFFCURVE",
"298 366 OFFCURVE",
"319 365 CURVE",
"319 364 LINE",
"320 352 OFFCURVE",
"320 342 OFFCURVE",
"320 336 CURVE SMOOTH",
"320 329 OFFCURVE",
"320 327 OFFCURVE",
"321 329 CURVE",
"294 328 OFFCURVE",
"278 327 OFFCURVE",
"274 326 CURVE SMOOTH",
"270 325 OFFCURVE",
"262 324 OFFCURVE",
"251 325 CURVE SMOOTH",
"239 326 OFFCURVE",
"210 326 OFFCURVE",
"165 325 CURVE SMOOTH",
"120 324 OFFCURVE",
"95 322 OFFCURVE",
"92 319 CURVE",
"89 300 OFFCURVE",
"88 269 OFFCURVE",
"89 228 CURVE SMOOTH",
"90 186 OFFCURVE",
"89 125 OFFCURVE",
"86 46 CURVE",
"87 45 LINE",
"203 46 OFFCURVE",
"282 45 OFFCURVE",
"325 43 CURVE SMOOTH",
"368 40 OFFCURVE",
"412 40 OFFCURVE",
"457 41 CURVE"
);
}
);
width = 481;
}
);
note = E;
rightKerningGroup = AE;
unicode = 0045;
},
{
glyphname = Eacute;
layers = (
{
hints = (
{
horizontal = 1;
place = "{45, 280}";
type = Stem;
},
{
horizontal = 1;
place = "{366, 291}";
type = Stem;
},
{
horizontal = 1;
place = "{697, 72.43}";
type = Stem;
},
{
place = "{39.25, 420.75}";
type = Stem;
},
{
horizontal = 1;
place = "{695, 58}";
type = Stem;
}
);
layerId = "67FB5424-006C-40A0-BA73-E9B40C667CAC";
paths = (
{
closed = 1;
nodes = (
"457 39 LINE",
"455 3 LINE",
"235 3 OFFCURVE",
"318 3 OFFCURVE",
"248 1 CURVE SMOOTH",
"177 -2 OFFCURVE",
"110 0 OFFCURVE",
"45 5 CURVE",
"45 63 OFFCURVE",
"44 121 OFFCURVE",
"43 178 CURVE SMOOTH",
"42 235 OFFCURVE",
"41 291 OFFCURVE",
"40 348 CURVE SMOOTH",
"39 405 OFFCURVE",
"39 461 OFFCURVE",
"40 518 CURVE SMOOTH",
"41 575 OFFCURVE",
"43 632 OFFCURVE",
"46 689 CURVE",
"72 690 OFFCURVE",
"100 692 OFFCURVE",
"131 693 CURVE SMOOTH",
"161 694 OFFCURVE",
"191 694 OFFCURVE",
"222 695 CURVE SMOOTH",
"253 696 OFFCURVE",
"282 696 OFFCURVE",
"311 697 CURVE SMOOTH",
"340 698 OFFCURVE",
"365 698 OFFCURVE",
"387 698 CURVE SMOOTH",
"409 698 OFFCURVE",
"427 698 OFFCURVE",
"440 697 CURVE SMOOTH",
"453 696 OFFCURVE",
"460 696 OFFCURVE",
"460 695 CURVE SMOOTH",
"459 657 LINE",
"438 671 OFFCURVE",
"417 659 OFFCURVE",
"398 658 CURVE SMOOTH",
"378 657 OFFCURVE",
"357 656 OFFCURVE",
"335 657 CURVE",
"313 657 OFFCURVE",
"291 657 OFFCURVE",
"269 657 CURVE SMOOTH",
"247 657 OFFCURVE",
"189 656 OFFCURVE",
"95 653 CURVE SMOOTH",
"92 653 LINE",
"91 652 LINE",
"93 633 OFFCURVE",
"90 585 OFFCURVE",
"86 509 CURVE SMOOTH",
"82 433 OFFCURVE",
"82 386 OFFCURVE",
"87 368 CURVE",
"88 367 LINE",
"180 367 OFFCURVE",
"236 366 OFFCURVE",
"257 366 CURVE SMOOTH",
"278 366 OFFCURVE",
"298 366 OFFCURVE",
"319 365 CURVE",
"319 364 LINE",
"320 352 OFFCURVE",
"320 342 OFFCURVE",
"320 336 CURVE SMOOTH",
"320 329 OFFCURVE",
"320 327 OFFCURVE",
"321 329 CURVE",
"294 328 OFFCURVE",
"278 327 OFFCURVE",
"274 326 CURVE SMOOTH",
"270 325 OFFCURVE",
"262 324 OFFCURVE",
"251 325 CURVE SMOOTH",
"239 326 OFFCURVE",
"210 326 OFFCURVE",
"165 325 CURVE SMOOTH",
"120 324 OFFCURVE",
"95 322 OFFCURVE",
"92 319 CURVE",
"89 300 OFFCURVE",
"88 269 OFFCURVE",
"89 228 CURVE SMOOTH",
"90 186 OFFCURVE",
"89 125 OFFCURVE",
"86 46 CURVE",
"87 45 LINE",
"203 46 OFFCURVE",
"282 45 OFFCURVE",
"325 43 CURVE SMOOTH",
"368 40 OFFCURVE",
"412 40 OFFCURVE",
"457 41 CURVE"
);
},
{
closed = 1;
nodes = (
"346 907 LINE",
"375 610 OFFCURVE",
"328 888 OFFCURVE",
"316 876 CURVE",
"304 863 OFFCURVE",
"291 851 OFFCURVE",
"277 838 CURVE SMOOTH",
"263 825 OFFCURVE",
"249 810 OFFCURVE",
"234 794 CURVE SMOOTH",
"219 777 OFFCURVE",
"205 764 OFFCURVE",
"194 753 CURVE",
"199 752 OFFCURVE",
"206 751 OFFCURVE",
"216 750 CURVE SMOOTH",
"226 749 OFFCURVE",
"240 749 OFFCURVE",
"259 751 CURVE",
"262 756 OFFCURVE",
"269 763 OFFCURVE",
"278 772 CURVE SMOOTH",
"287 781 OFFCURVE",
"297 791 OFFCURVE",
"308 803 CURVE",
"319 814 OFFCURVE",
"334 829 OFFCURVE",
"352 848 CURVE SMOOTH",
"369 866 OFFCURVE",
"379 874 OFFCURVE",
"380 871 CURVE"
);
}
);
width = 481;
}
);
note = Eacute;
rightKerningGroup = AE;
unicode = 00C9;
},
{
glyphname = Ecircumflex;
layers = (
{
hints = (
{
horizontal = 1;
place = "{45, 280}";
type = Stem;
},
{
horizontal = 1;
place = "{366, 291}";
type = Stem;
},
{
horizontal = 1;
place = "{693, 60}";
type = Stem;
},
{
place = "{39.25, 420.75}";
type = Stem;
},
{
horizontal = 1;
place = "{697, 52}";
type = Stem;
}
);
layerId = "67FB5424-006C-40A0-BA73-E9B40C667CAC";
paths = (
{
closed = 1;
nodes = (
"457 39 LINE",
"455 3 LINE",
"235 3 OFFCURVE",
"318 3 OFFCURVE",
"248 1 CURVE SMOOTH",
"177 -2 OFFCURVE",
"110 0 OFFCURVE",
"45 5 CURVE",
"45 63 OFFCURVE",
"44 121 OFFCURVE",
"43 178 CURVE SMOOTH",
"42 235 OFFCURVE",
"41 291 OFFCURVE",
"40 348 CURVE SMOOTH",
"39 405 OFFCURVE",
"39 461 OFFCURVE",
"40 518 CURVE SMOOTH",
"41 575 OFFCURVE",
"43 632 OFFCURVE",
"46 689 CURVE",
"72 690 OFFCURVE",
"100 692 OFFCURVE",
"131 693 CURVE SMOOTH",
"161 694 OFFCURVE",
"191 694 OFFCURVE",
"222 695 CURVE SMOOTH",
"253 696 OFFCURVE",
"282 696 OFFCURVE",
"311 697 CURVE SMOOTH",
"340 698 OFFCURVE",
"365 698 OFFCURVE",
"387 698 CURVE SMOOTH",
"409 698 OFFCURVE",
"427 698 OFFCURVE",
"440 697 CURVE SMOOTH",
"453 696 OFFCURVE",
"460 696 OFFCURVE",
"460 695 CURVE SMOOTH",
"459 657 LINE",
"438 671 OFFCURVE",
"417 659 OFFCURVE",
"398 658 CURVE SMOOTH",
"378 657 OFFCURVE",
"357 656 OFFCURVE",
"335 657 CURVE",
"313 657 OFFCURVE",
"291 657 OFFCURVE",
"269 657 CURVE SMOOTH",
"247 657 OFFCURVE",
"189 656 OFFCURVE",
"95 653 CURVE SMOOTH",
"92 653 LINE",
"91 652 LINE",
"93 633 OFFCURVE",
"90 585 OFFCURVE",
"86 509 CURVE SMOOTH",
"82 433 OFFCURVE",
"82 386 OFFCURVE",
"87 368 CURVE",
"88 367 LINE",
"180 367 OFFCURVE",
"236 366 OFFCURVE",
"257 366 CURVE SMOOTH",
"278 366 OFFCURVE",
"298 366 OFFCURVE",
"319 365 CURVE",
"319 364 LINE",
"320 352 OFFCURVE",
"320 342 OFFCURVE",
"320 336 CURVE SMOOTH",
"320 329 OFFCURVE",
"320 327 OFFCURVE",
"321 329 CURVE",
"294 328 OFFCURVE",
"278 327 OFFCURVE",
"274 326 CURVE SMOOTH",
"270 325 OFFCURVE",
"262 324 OFFCURVE",
"251 325 CURVE SMOOTH",
"239 326 OFFCURVE",
"210 326 OFFCURVE",
"165 325 CURVE SMOOTH",
"120 324 OFFCURVE",
"95 322 OFFCURVE",
"92 319 CURVE",
"89 300 OFFCURVE",
"88 269 OFFCURVE",
"89 228 CURVE SMOOTH",
"90 186 OFFCURVE",
"89 125 OFFCURVE",
"86 46 CURVE",
"87 45 LINE",
"203 46 OFFCURVE",
"282 45 OFFCURVE",
"325 43 CURVE SMOOTH",
"368 40 OFFCURVE",
"412 40 OFFCURVE",
"457 41 CURVE"
);
},
{
closed = 1;
nodes = (
"412 754 LINE",
"426 517 OFFCURVE",
"406 755 OFFCURVE",
"398 754 CURVE SMOOTH",
"390 753 OFFCURVE",
"380 751 OFFCURVE",
"367 749 CURVE",
"364 749 OFFCURVE",
"350 761 OFFCURVE",
"325 786 CURVE SMOOTH",
"299 811 OFFCURVE",
"284 826 OFFCURVE",
"279 832 CURVE",
"274 837 OFFCURVE",
"270 843 OFFCURVE",
"265 848 CURVE SMOOTH",
"260 853 OFFCURVE",
"256 856 OFFCURVE",
"253 857 CURVE",
"250 856 OFFCURVE",
"245 853 OFFCURVE",
"240 847 CURVE",
"234 841 OFFCURVE",
"229 835 OFFCURVE",
"224 830 CURVE",
"219 824 OFFCURVE",
"206 810 OFFCURVE",
"185 788 CURVE SMOOTH",
"164 765 OFFCURVE",
"152 754 OFFCURVE",
"149 753 CURVE",
"143 752 OFFCURVE",
"137 752 OFFCURVE",
"131 752 CURVE SMOOTH",
"125 752 OFFCURVE",
"112 752 OFFCURVE",
"91 753 CURVE",
"122 790 OFFCURVE",
"150 819 OFFCURVE",
"173 841 CURVE SMOOTH",
"196 863 OFFCURVE",
"222 888 OFFCURVE",
"251 915 CURVE"
);
}
);
width = 481;
}
);
note = Ecircumflex;
rightKerningGroup = AE;
unicode = 00CA;
},
{
glyphname = Edieresis;
layers = (
{
hints = (
{
horizontal = 1;
place = "{45, 280}";
type = Stem;
},
{
horizontal = 1;
place = "{366, 291}";
type = Stem;
},
{
horizontal = 1;
place = "{695, 65}";
type = Stem;
},
{
place = "{86, 91.93}";
type = Stem;
},
{
place = "{175, 96.21}";
type = Stem;
}
);
layerId = "67FB5424-006C-40A0-BA73-E9B40C667CAC";
paths = (
{
closed = 1;
nodes = (
"457 39 LINE",
"455 3 LINE",
"235 3 OFFCURVE",
"318 3 OFFCURVE",
"248 1 CURVE SMOOTH",
"177 -2 OFFCURVE",
"110 0 OFFCURVE",
"45 5 CURVE",
"45 63 OFFCURVE",
"44 121 OFFCURVE",
"43 178 CURVE SMOOTH",
"42 235 OFFCURVE",
"41 291 OFFCURVE",
"40 348 CURVE SMOOTH",
"39 405 OFFCURVE",
"39 461 OFFCURVE",
"40 518 CURVE SMOOTH",
"41 575 OFFCURVE",
"43 632 OFFCURVE",
"46 689 CURVE",
"72 690 OFFCURVE",
"100 692 OFFCURVE",
"131 693 CURVE SMOOTH",
"161 694 OFFCURVE",
"191 694 OFFCURVE",
"222 695 CURVE SMOOTH",
"253 696 OFFCURVE",
"282 696 OFFCURVE",
"311 697 CURVE SMOOTH",
"340 698 OFFCURVE",
"365 698 OFFCURVE",
"387 698 CURVE SMOOTH",
"409 698 OFFCURVE",
"427 698 OFFCURVE",
"440 697 CURVE SMOOTH",
"453 696 OFFCURVE",
"460 696 OFFCURVE",
"460 695 CURVE SMOOTH",
"459 657 LINE",
"438 671 OFFCURVE",
"417 659 OFFCURVE",
"398 658 CURVE SMOOTH",
"378 657 OFFCURVE",
"357 656 OFFCURVE",
"335 657 CURVE",
"313 657 OFFCURVE",
"291 657 OFFCURVE",
"269 657 CURVE SMOOTH",
"247 657 OFFCURVE",
"189 656 OFFCURVE",
"95 653 CURVE SMOOTH",
"92 653 LINE",
"91 652 LINE",
"93 633 OFFCURVE",
"90 585 OFFCURVE",
"86 509 CURVE SMOOTH",
"82 433 OFFCURVE",
"82 386 OFFCURVE",
"87 368 CURVE",
"88 367 LINE",
"180 367 OFFCURVE",
"236 366 OFFCURVE",
"257 366 CURVE SMOOTH",
"278 366 OFFCURVE",
"298 366 OFFCURVE",
"319 365 CURVE",
"319 364 LINE",
"320 352 OFFCURVE",
"320 342 OFFCURVE",
"320 336 CURVE SMOOTH",
"320 329 OFFCURVE",
"320 327 OFFCURVE",
"321 329 CURVE",
"294 328 OFFCURVE",
"278 327 OFFCURVE",
"274 326 CURVE SMOOTH",
"270 325 OFFCURVE",
"262 324 OFFCURVE",
"251 325 CURVE SMOOTH",
"239 326 OFFCURVE",
"210 326 OFFCURVE",
"165 325 CURVE SMOOTH",
"120 324 OFFCURVE",
"95 322 OFFCURVE",
"92 319 CURVE",
"89 300 OFFCURVE",
"88 269 OFFCURVE",
"89 228 CURVE SMOOTH",
"90 186 OFFCURVE",
"89 125 OFFCURVE",
"86 46 CURVE",
"87 45 LINE",
"203 46 OFFCURVE",
"282 45 OFFCURVE",
"325 43 CURVE SMOOTH",
"368 40 OFFCURVE",
"412 40 OFFCURVE",
"457 41 CURVE"
);
},
{
closed = 1;
nodes = (
"173 759 LINE",
"134 760 LINE",
"131 760 LINE",
"238 527 OFFCURVE",
"129 775 OFFCURVE",
"129 785 CURVE",
"128 794 OFFCURVE",
"128 804 OFFCURVE",
"129 814 CURVE",
"129 824 OFFCURVE",
"129 833 OFFCURVE",
"130 842 CURVE",
"130 851 OFFCURVE",
"130 857 OFFCURVE",
"130 861 CURVE",
"136 863 OFFCURVE",
"145 864 OFFCURVE",
"157 865 CURVE",
"168 865 OFFCURVE",
"176 864 OFFCURVE",
"181 862 CURVE",
"181 861 OFFCURVE",
"181 857 OFFCURVE",
"180 848 CURVE SMOOTH",
"179 839 OFFCURVE",
"179 829 OFFCURVE",
"178 818 CURVE SMOOTH",
"177 806 OFFCURVE",
"177 795 OFFCURVE",
"176 784 CURVE SMOOTH",
"175 773 OFFCURVE",
"175 766 OFFCURVE",
"175 761 CURVE SMOOTH",
"175 760 LINE",
"175 759 LINE"
);
},
{
closed = 1;
nodes = (
"331 759 LINE",
"292 760 LINE",
"289 760 LINE",
"250 767 OFFCURVE",
"287 775 OFFCURVE",
"287 785 CURVE",
"286 794 OFFCURVE",
"286 804 OFFCURVE",
"287 814 CURVE",
"287 824 OFFCURVE",
"287 833 OFFCURVE",
"288 842 CURVE",
"288 851 OFFCURVE",
"288 857 OFFCURVE",
"288 861 CURVE",
"294 863 OFFCURVE",
"303 864 OFFCURVE",
"315 865 CURVE",
"326 865 OFFCURVE",
"334 864 OFFCURVE",
"339 862 CURVE",
"339 861 OFFCURVE",
"339 857 OFFCURVE",
"338 848 CURVE SMOOTH",
"337 839 OFFCURVE",
"337 829 OFFCURVE",
"336 818 CURVE SMOOTH",
"335 806 OFFCURVE",
"335 795 OFFCURVE",
"334 784 CURVE SMOOTH",
"333 773 OFFCURVE",
"333 766 OFFCURVE",
"333 761 CURVE SMOOTH",
"333 760 LINE",
"333 759 LINE"
);
}
);
width = 481;
}
);
note = Edieresis;
rightKerningGroup = AE;
unicode = 00CB;
},
{
glyphname = Egrave;
layers = (
{
hints = (
{
horizontal = 1;
place = "{45, 280}";
type = Stem;
},
{
horizontal = 1;
place = "{366, 291}";
type = Stem;
},
{
horizontal = 1;
place = "{695, 53}";
type = Stem;
},
{
place = "{39.25, 420.75}";
type = Stem;
}
);
layerId = "67FB5424-006C-40A0-BA73-E9B40C667CAC";
paths = (
{
closed = 1;
nodes = (
"457 39 LINE",
"455 3 LINE",
"235 3 OFFCURVE",
"318 3 OFFCURVE",
"248 1 CURVE SMOOTH",
"177 -2 OFFCURVE",
"110 0 OFFCURVE",
"45 5 CURVE",
"45 63 OFFCURVE",
"44 121 OFFCURVE",
"43 178 CURVE SMOOTH",
"42 235 OFFCURVE",
"41 291 OFFCURVE",
"40 348 CURVE SMOOTH",
"39 405 OFFCURVE",
"39 461 OFFCURVE",
"40 518 CURVE SMOOTH",
"41 575 OFFCURVE",
"43 632 OFFCURVE",
"46 689 CURVE",
"72 690 OFFCURVE",
"100 692 OFFCURVE",
"131 693 CURVE SMOOTH",
"161 694 OFFCURVE",
"191 694 OFFCURVE",
"222 695 CURVE SMOOTH",
"253 696 OFFCURVE",
"282 696 OFFCURVE",
"311 697 CURVE SMOOTH",
"340 698 OFFCURVE",
"365 698 OFFCURVE",
"387 698 CURVE SMOOTH",
"409 698 OFFCURVE",
"427 698 OFFCURVE",
"440 697 CURVE SMOOTH",
"453 696 OFFCURVE",
"460 696 OFFCURVE",
"460 695 CURVE SMOOTH",
"459 657 LINE",
"438 671 OFFCURVE",
"417 659 OFFCURVE",
"398 658 CURVE SMOOTH",
"378 657 OFFCURVE",
"357 656 OFFCURVE",
"335 657 CURVE",
"313 657 OFFCURVE",
"291 657 OFFCURVE",
"269 657 CURVE SMOOTH",
"247 657 OFFCURVE",
"189 656 OFFCURVE",
"95 653 CURVE SMOOTH",
"92 653 LINE",
"91 652 LINE",
"93 633 OFFCURVE",
"90 585 OFFCURVE",
"86 509 CURVE SMOOTH",
"82 433 OFFCURVE",
"82 386 OFFCURVE",
"87 368 CURVE",
"88 367 LINE",
"180 367 OFFCURVE",
"236 366 OFFCURVE",
"257 366 CURVE SMOOTH",
"278 366 OFFCURVE",
"298 366 OFFCURVE",
"319 365 CURVE",
"319 364 LINE",
"320 352 OFFCURVE",
"320 342 OFFCURVE",
"320 336 CURVE SMOOTH",
"320 329 OFFCURVE",
"320 327 OFFCURVE",
"321 329 CURVE",
"294 328 OFFCURVE",
"278 327 OFFCURVE",
"274 326 CURVE SMOOTH",
"270 325 OFFCURVE",
"262 324 OFFCURVE",
"251 325 CURVE SMOOTH",
"239 326 OFFCURVE",
"210 326 OFFCURVE",
"165 325 CURVE SMOOTH",
"120 324 OFFCURVE",
"95 322 OFFCURVE",
"92 319 CURVE",
"89 300 OFFCURVE",
"88 269 OFFCURVE",
"89 228 CURVE SMOOTH",
"90 186 OFFCURVE",
"89 125 OFFCURVE",
"86 46 CURVE",
"87 45 LINE",
"203 46 OFFCURVE",
"282 45 OFFCURVE",
"325 43 CURVE SMOOTH",
"368 40 OFFCURVE",
"412 40 OFFCURVE",
"457 41 CURVE"
);
},
{
closed = 1;
nodes = (
"164 904 LINE",
"270 608 OFFCURVE",
"182 885 OFFCURVE",
"194 873 CURVE",
"206 860 OFFCURVE",
"219 848 OFFCURVE",
"233 835 CURVE SMOOTH",
"247 822 OFFCURVE",
"262 807 OFFCURVE",
"277 791 CURVE SMOOTH",
"292 774 OFFCURVE",
"305 761 OFFCURVE",
"316 750 CURVE",
"311 749 OFFCURVE",
"304 748 OFFCURVE",
"294 747 CURVE SMOOTH",
"284 746 OFFCURVE",
"270 746 OFFCURVE",
"251 748 CURVE",
"248 753 OFFCURVE",
"242 760 OFFCURVE",
"233 769 CURVE SMOOTH",
"224 778 OFFCURVE",
"213 788 OFFCURVE",
"202 800 CURVE",
"191 811 OFFCURVE",
"176 826 OFFCURVE",
"159 845 CURVE",
"141 863 OFFCURVE",
"131 871 OFFCURVE",
"130 868 CURVE"
);
}
);
width = 481;
}
);
note = Egrave;
rightKerningGroup = AE;
unicode = 00C8;
},
{
glyphname = F;
layers = (
{
hints = (
{
horizontal = 1;
place = "{-2.75, 700.75}";
type = Stem;
},
{
place = "{87, 179.96}";
type = Stem;
},
{
horizontal = 1;
place = "{358, 285}";
type = Stem;
}
);
layerId = "67FB5424-006C-40A0-BA73-E9B40C667CAC";
paths = (
{
closed = 1;
nodes = (
"351 318 LINE",
"204 213 OFFCURVE",
"298 319 OFFCURVE",
"281 319 CURVE SMOOTH",
"264 319 OFFCURVE",
"199 317 OFFCURVE",
"88 314 CURVE SMOOTH",
"87 314 LINE",
"89 227 OFFCURVE",
"89 162 OFFCURVE",
"88 121 CURVE SMOOTH",
"87 79 OFFCURVE",
"87 39 OFFCURVE",
"86 1 CURVE",
"68 0 OFFCURVE",
"65 -1 OFFCURVE",
"77 -2 CURVE SMOOTH",
"88 -3 OFFCURVE",
"86 -3 OFFCURVE",
"70 -2 CURVE SMOOTH",
"54 -1 OFFCURVE",
"45 0 OFFCURVE",
"42 1 CURVE",
"41 2 LINE",
"41 42 OFFCURVE",
"41 80 OFFCURVE",
"41 115 CURVE SMOOTH",
"41 150 OFFCURVE",
"41 183 OFFCURVE",
"42 216 CURVE SMOOTH",
"42 249 OFFCURVE",
"42 282 OFFCURVE",
"42 315 CURVE SMOOTH",
"42 348 OFFCURVE",
"42 382 OFFCURVE",
"43 419 CURVE SMOOTH",
"43 456 OFFCURVE",
"43 495 OFFCURVE",
"43 538 CURVE SMOOTH",
"43 580 OFFCURVE",
"43 627 OFFCURVE",
"43 679 CURVE SMOOTH",
"43 680 LINE",
"54 682 OFFCURVE",
"71 684 OFFCURVE",
"92 686 CURVE SMOOTH",
"113 688 OFFCURVE",
"138 690 OFFCURVE",
"165 692 CURVE SMOOTH",
"192 694 OFFCURVE",
"220 696 OFFCURVE",
"251 697 CURVE SMOOTH",
"281 698 OFFCURVE",
"311 698 OFFCURVE",
"340 698 CURVE SMOOTH",
"369 697 OFFCURVE",
"397 696 OFFCURVE",
"423 693 CURVE SMOOTH",
"449 690 OFFCURVE",
"471 687 OFFCURVE",
"490 682 CURVE",
"490 673 OFFCURVE",
"490 662 OFFCURVE",
"489 648 CURVE",
"435 651 OFFCURVE",
"397 653 OFFCURVE",
"374 654 CURVE SMOOTH",
"351 655 OFFCURVE",
"327 656 OFFCURVE",
"304 655 CURVE SMOOTH",
"280 654 OFFCURVE",
"256 652 OFFCURVE",
"233 651 CURVE SMOOTH",
"209 650 OFFCURVE",
"160 647 OFFCURVE",
"85 643 CURVE",
"85 536 OFFCURVE",
"85 467 OFFCURVE",
"84 434 CURVE SMOOTH",
"83 401 OFFCURVE",
"85 376 OFFCURVE",
"88 359 CURVE",
"89 358 OFFCURVE",
"89 358 OFFCURVE",
"90 358 CURVE SMOOTH",
"149 358 OFFCURVE",
"195 358 OFFCURVE",
"228 358 CURVE SMOOTH",
"261 358 OFFCURVE",
"284 358 OFFCURVE",
"297 358 CURVE",
"310 357 OFFCURVE",
"321 357 OFFCURVE",
"330 357 CURVE SMOOTH",
"338 357 OFFCURVE",
"346 357 OFFCURVE",
"353 358 CURVE",
"354 355 OFFCURVE",
"355 350 OFFCURVE",
"355 343 CURVE SMOOTH",
"355 335 OFFCURVE",
"355 329 OFFCURVE",
"355 326 CURVE",
"354 322 OFFCURVE",
"354 319 OFFCURVE",
"353 318 CURVE"
);
}
);
width = 494;
}
);
note = F;
rightKerningGroup = F;
unicode = 0046;
},
{
glyphname = G;
layers = (
{
hints = (
{
horizontal = 1;
place = "{295.64, 19.36}";
type = Stem;
},
{
place = "{70, 135.79}";
type = Stem;
}
);
layerId = "67FB5424-006C-40A0-BA73-E9B40C667CAC";
paths = (
{
closed = 1;
nodes = (
"161 231 OFFCURVE",
"242 347 OFFCURVE",
"243 348 CURVE",
"252 353 OFFCURVE",
"266 357 OFFCURVE",
"286 358 CURVE SMOOTH",
"305 359 OFFCURVE",
"326 359 OFFCURVE",
"348 358 CURVE SMOOTH",
"370 357 OFFCURVE",
"391 356 OFFCURVE",
"410 355 CURVE",
"429 353 OFFCURVE",
"441 352 OFFCURVE",
"448 352 CURVE SMOOTH",
"450 352 LINE",
"451 351 LINE",
"454 316 OFFCURVE",
"458 278 OFFCURVE",
"459 239 CURVE SMOOTH",
"460 199 OFFCURVE",
"458 161 OFFCURVE",
"451 125 CURVE",
"448 91 OFFCURVE",
"437 65 OFFCURVE",
"420 47 CURVE SMOOTH",
"403 29 OFFCURVE",
"381 15 OFFCURVE",
"356 6 CURVE",
"339 1 OFFCURVE",
"322 -3 OFFCURVE",
"304 -7 CURVE",
"286 -10 OFFCURVE",
"268 -13 OFFCURVE",
"249 -15 CURVE",
"230 -16 OFFCURVE",
"212 -16 OFFCURVE",
"195 -14 CURVE SMOOTH",
"177 -12 OFFCURVE",
"160 -8 OFFCURVE",
"144 -1 CURVE SMOOTH",
"117 10 OFFCURVE",
"97 26 OFFCURVE",
"83 45 CURVE SMOOTH",
"69 64 OFFCURVE",
"58 88 OFFCURVE",
"50 117 CURVE SMOOTH",
"48 124 OFFCURVE",
"46 135 OFFCURVE",
"44 148 CURVE",
"41 161 OFFCURVE",
"39 174 OFFCURVE",
"38 187 CURVE SMOOTH",
"36 208 OFFCURVE",
"34 228 OFFCURVE",
"33 245 CURVE SMOOTH",
"32 262 OFFCURVE",
"31 280 OFFCURVE",
"30 297 CURVE SMOOTH",
"29 314 OFFCURVE",
"28 332 OFFCURVE",
"28 351 CURVE",
"27 370 OFFCURVE",
"27 391 OFFCURVE",
"28 416 CURVE SMOOTH",
"29 437 OFFCURVE",
"30 459 OFFCURVE",
"31 482 CURVE SMOOTH",
"32 504 OFFCURVE",
"35 526 OFFCURVE",
"38 547 CURVE SMOOTH",
"41 569 OFFCURVE",
"47 590 OFFCURVE",
"56 611 CURVE",
"64 632 OFFCURVE",
"78 649 OFFCURVE",
"97 662 CURVE",
"110 673 OFFCURVE",
"125 682 OFFCURVE",
"142 687 CURVE SMOOTH",
"159 692 OFFCURVE",
"176 696 OFFCURVE",
"194 699 CURVE SMOOTH",
"231 704 OFFCURVE",
"266 703 OFFCURVE",
"299 696 CURVE SMOOTH",
"332 689 OFFCURVE",
"361 676 OFFCURVE",
"385 658 CURVE SMOOTH",
"409 640 OFFCURVE",
"427 616 OFFCURVE",
"439 587 CURVE SMOOTH",
"451 557 OFFCURVE",
"455 522 OFFCURVE",
"450 481 CURVE",
"449 475 LINE",
"448 475 OFFCURVE",
"445 472 OFFCURVE",
"440 472 CURVE SMOOTH",
"435 472 OFFCURVE",
"422 476 OFFCURVE",
"401 483 CURVE",
"399 490 OFFCURVE",
"399 502 OFFCURVE",
"402 519 CURVE SMOOTH",
"405 536 OFFCURVE",
"400 562 OFFCURVE",
"389 595 CURVE SMOOTH",
"378 628 OFFCURVE",
"350 649 OFFCURVE",
"307 658 CURVE SMOOTH",
"264 667 OFFCURVE",
"228 668 OFFCURVE",
"200 662 CURVE SMOOTH",
"172 656 OFFCURVE",
"149 646 OFFCURVE",
"130 631 CURVE SMOOTH",
"111 616 OFFCURVE",
"100 599 OFFCURVE",
"95 579 CURVE SMOOTH",
"90 559 OFFCURVE",
"87 546 OFFCURVE",
"86 541 CURVE",
"81 525 OFFCURVE",
"79 504 OFFCURVE",
"78 478 CURVE SMOOTH",
"77 451 OFFCURVE",
"75 427 OFFCURVE",
"74 405 CURVE",
"72 382 OFFCURVE",
"71 358 OFFCURVE",
"70 331 CURVE SMOOTH",
"69 304 OFFCURVE",
"69 278 OFFCURVE",
"71 253 CURVE SMOOTH",
"78 170 OFFCURVE",
"89 119 OFFCURVE",
"103 100 CURVE",
"116 81 OFFCURVE",
"129 66 OFFCURVE",
"142 56 CURVE",
"148 52 OFFCURVE",
"158 45 OFFCURVE",
"173 36 CURVE",
"213 24 OFFCURVE",
"245 19 OFFCURVE",
"270 20 CURVE SMOOTH",
"295 21 OFFCURVE",
"314 25 OFFCURVE",
"329 32 CURVE SMOOTH",
"344 39 OFFCURVE",
"357 45 OFFCURVE",
"369 50 CURVE SMOOTH",
"381 55 OFFCURVE",
"395 80 OFFCURVE",
"411 124 CURVE",
"414 167 OFFCURVE",
"415 204 OFFCURVE",
"413 233 CURVE SMOOTH",
"410 262 OFFCURVE",
"408 279 OFFCURVE",
"406 286 CURVE SMOOTH",
"404 293 OFFCURVE",
"403 299 OFFCURVE",
"403 304 CURVE",
"402 309 OFFCURVE",
"401 312 OFFCURVE",
"399 313 CURVE",
"395 314 OFFCURVE",
"376 314 OFFCURVE",
"343 315 CURVE SMOOTH",
"309 315 OFFCURVE",
"288 315 OFFCURVE",
"281 315 CURVE",
"273 314 OFFCURVE",
"266 314 OFFCURVE",
"260 315 CURVE",
"253 315 OFFCURVE",
"248 316 OFFCURVE",
"245 317 CURVE",
"243 324 OFFCURVE",
"241 333 OFFCURVE",
"240 345 CURVE",
"240 346 LINE",
"240 346 OFFCURVE",
"240 347 OFFCURVE",
"241 347 CURVE"
);
}
);
width = 481;
}
);
leftKerningGroup = G;
note = G;
rightKerningGroup = G;
unicode = 0047;
},
{
glyphname = H;
layers = (
{
hints = (
{
horizontal = 1;
place = "{1, 705.25}";
type = Stem;
},
{
place = "{90, 324}";
type = Stem;
},
{
place = "{70.82, 331.18}";
type = Stem;
}
);
layerId = "67FB5424-006C-40A0-BA73-E9B40C667CAC";
paths = (
{
closed = 1;
nodes = (
"469 6 LINE",
"301 2 OFFCURVE",
"442 4 OFFCURVE",
"423 6 CURVE",
"422 6 LINE",
"417 75 OFFCURVE",
"414 122 OFFCURVE",
"414 145 CURVE",
"413 168 OFFCURVE",
"412 227 OFFCURVE",
"409 322 CURVE",
"318 321 LINE",
"286 325 OFFCURVE",
"179 323 OFFCURVE",
"90 317 CURVE",
"90 217 OFFCURVE",
"90 156 OFFCURVE",
"91 133 CURVE SMOOTH",
"92 110 OFFCURVE",
"92 88 OFFCURVE",
"92 67 CURVE",
"91 45 OFFCURVE",
"92 23 OFFCURVE",
"93 2 CURVE",
"76 1 OFFCURVE",
"63 1 OFFCURVE",
"54 1 CURVE",
"53 20 OFFCURVE",
"51 45 OFFCURVE",
"50 78 CURVE SMOOTH",
"48 110 OFFCURVE",
"46 146 OFFCURVE",
"45 187 CURVE SMOOTH",
"44 227 OFFCURVE",
"43 270 OFFCURVE",
"42 315 CURVE SMOOTH",
"41 360 OFFCURVE",
"40 406 OFFCURVE",
"39 452 CURVE SMOOTH",
"38 497 OFFCURVE",
"38 541 OFFCURVE",
"39 584 CURVE SMOOTH",
"39 626 OFFCURVE",
"39 664 OFFCURVE",
"40 698 CURVE SMOOTH",
"40 699 LINE",
"41 699 LINE",
"43 699 LINE",
"73 697 LINE",
"65 561 OFFCURVE",
"80 447 OFFCURVE",
"87 357 CURVE",
"88 357 LINE SMOOTH",
"174 356 OFFCURVE",
"245 357 OFFCURVE",
"299 358 CURVE SMOOTH",
"353 359 OFFCURVE",
"388 361 OFFCURVE",
"405 362 CURVE",
"406 362 LINE",
"402 460 OFFCURVE",
"401 574 OFFCURVE",
"402 705 CURVE",
"419 706 OFFCURVE",
"432 707 OFFCURVE",
"442 706 CURVE"
);
}
);
width = 499;
}
);
note = H;
unicode = 0048;
},
{
glyphname = I;
layers = (
{
hints = (
{
horizontal = 1;
place = "{-4, 712.38}";
type = Stem;
},
{
place = "{96, 59}";
type = Stem;
}
);
layerId = "67FB5424-006C-40A0-BA73-E9B40C667CAC";
paths = (
{
closed = 1;
nodes = (
"91 470 OFFCURVE",
"142 704 OFFCURVE",
"155 703 CURVE",
"155 699 LINE SMOOTH",
"155 643 OFFCURVE",
"154 584 OFFCURVE",
"153 526 CURVE SMOOTH",
"151 468 OFFCURVE",
"150 410 OFFCURVE",
"151 352 CURVE SMOOTH",
"152 293 OFFCURVE",
"152 235 OFFCURVE",
"151 177 CURVE SMOOTH",
"150 119 OFFCURVE",
"151 60 OFFCURVE",
"154 1 CURVE",
"147 0 OFFCURVE",
"142 0 OFFCURVE",
"139 -1 CURVE",
"135 -1 OFFCURVE",
"129 -1 OFFCURVE",
"120 -1 CURVE SMOOTH",
"111 -1 OFFCURVE",
"103 -2 OFFCURVE",
"96 -4 CURVE",
"97 77 OFFCURVE",
"98 173 OFFCURVE",
"97 283 CURVE SMOOTH",
"96 392 OFFCURVE",
"96 476 OFFCURVE",
"96 535 CURVE",
"95 593 OFFCURVE",
"98 650 OFFCURVE",
"104 706 CURVE",
"104 708 LINE",
"115 708 OFFCURVE",
"121 709 OFFCURVE",
"123 708 CURVE SMOOTH",
"125 707 OFFCURVE",
"127 706 OFFCURVE",
"128 706 CURVE"
);
}
);
width = 260;
}
);
note = I;
rightKerningGroup = I;
unicode = 0049;
},
{
glyphname = Iacute;
layers = (
{
hints = (
{
horizontal = 1;
place = "{-4, 908}";
type = Stem;
},
{
place = "{96, 196}";
type = Stem;
}
);
layerId = "67FB5424-006C-40A0-BA73-E9B40C667CAC";
paths = (
{
closed = 1;
nodes = (
"91 470 OFFCURVE",
"142 704 OFFCURVE",
"155 703 CURVE",
"155 699 LINE SMOOTH",
"155 643 OFFCURVE",
"154 584 OFFCURVE",
"153 526 CURVE SMOOTH",
"151 468 OFFCURVE",
"150 410 OFFCURVE",
"151 352 CURVE SMOOTH",
"152 293 OFFCURVE",
"152 235 OFFCURVE",
"151 177 CURVE SMOOTH",
"150 119 OFFCURVE",
"151 60 OFFCURVE",
"154 1 CURVE",
"147 0 OFFCURVE",
"142 0 OFFCURVE",
"139 -1 CURVE",
"135 -1 OFFCURVE",
"129 -1 OFFCURVE",
"120 -1 CURVE SMOOTH",
"111 -1 OFFCURVE",
"103 -2 OFFCURVE",
"96 -4 CURVE",
"97 77 OFFCURVE",
"98 173 OFFCURVE",
"97 283 CURVE SMOOTH",
"96 392 OFFCURVE",
"96 476 OFFCURVE",
"96 535 CURVE",
"95 593 OFFCURVE",
"98 650 OFFCURVE",
"104 706 CURVE",
"104 708 LINE",
"115 708 OFFCURVE",
"121 709 OFFCURVE",
"123 708 CURVE SMOOTH",
"125 707 OFFCURVE",
"127 706 OFFCURVE",
"128 706 CURVE"
);
},
{
closed = 1;
nodes = (
"258 904 LINE",
"207 829 OFFCURVE",
"240 885 OFFCURVE",
"228 873 CURVE",
"216 860 OFFCURVE",
"203 848 OFFCURVE",
"189 835 CURVE SMOOTH",
"175 822 OFFCURVE",
"161 807 OFFCURVE",
"146 791 CURVE SMOOTH",
"131 774 OFFCURVE",
"117 761 OFFCURVE",
"106 750 CURVE",
"111 749 OFFCURVE",
"118 748 OFFCURVE",
"128 747 CURVE SMOOTH",
"138 746 OFFCURVE",
"152 746 OFFCURVE",
"171 748 CURVE",
"174 753 OFFCURVE",
"181 760 OFFCURVE",
"190 769 CURVE SMOOTH",
"199 778 OFFCURVE",
"209 788 OFFCURVE",
"220 800 CURVE",
"231 811 OFFCURVE",
"246 826 OFFCURVE",
"264 845 CURVE SMOOTH",
"281 863 OFFCURVE",
"291 871 OFFCURVE",
"292 868 CURVE"
);
}
);
width = 259;
}
);
note = Iacute;
rightKerningGroup = I;
unicode = 00CD;
},
{
glyphname = Icircumflex;
layers = (
{
hints = (
{
horizontal = 1;
place = "{-4, 919}";
type = Stem;
},
{
place = "{-19, 321}";
type = Stem;
}
);
layerId = "67FB5424-006C-40A0-BA73-E9B40C667CAC";
paths = (
{
closed = 1;
nodes = (
"91 470 OFFCURVE",
"142 704 OFFCURVE",
"155 703 CURVE",
"155 699 LINE SMOOTH",
"155 643 OFFCURVE",
"154 584 OFFCURVE",
"153 526 CURVE SMOOTH",
"151 468 OFFCURVE",
"150 410 OFFCURVE",
"151 352 CURVE SMOOTH",
"152 293 OFFCURVE",
"152 235 OFFCURVE",
"151 177 CURVE SMOOTH",
"150 119 OFFCURVE",
"151 60 OFFCURVE",
"154 1 CURVE",
"147 0 OFFCURVE",
"142 0 OFFCURVE",
"139 -1 CURVE",
"135 -1 OFFCURVE",
"129 -1 OFFCURVE",
"120 -1 CURVE SMOOTH",
"111 -1 OFFCURVE",
"103 -2 OFFCURVE",
"96 -4 CURVE",
"97 77 OFFCURVE",
"98 173 OFFCURVE",
"97 283 CURVE SMOOTH",
"96 392 OFFCURVE",
"96 476 OFFCURVE",
"96 535 CURVE",
"95 593 OFFCURVE",
"98 650 OFFCURVE",
"104 706 CURVE",
"104 708 LINE",
"115 708 OFFCURVE",
"121 709 OFFCURVE",
"123 708 CURVE SMOOTH",
"125 707 OFFCURVE",
"127 706 OFFCURVE",
"128 706 CURVE"
);
},
{
closed = 1;
nodes = (
"302 754 LINE",
"243 739 OFFCURVE",
"296 755 OFFCURVE",
"288 754 CURVE SMOOTH",
"280 753 OFFCURVE",
"270 751 OFFCURVE",
"257 749 CURVE",
"254 749 OFFCURVE",
"240 761 OFFCURVE",
"215 786 CURVE SMOOTH",
"189 811 OFFCURVE",
"174 826 OFFCURVE",
"169 832 CURVE",
"164 837 OFFCURVE",
"160 843 OFFCURVE",
"155 848 CURVE SMOOTH",
"150 853 OFFCURVE",
"146 856 OFFCURVE",
"143 857 CURVE",
"140 856 OFFCURVE",
"135 853 OFFCURVE",
"130 847 CURVE",
"124 841 OFFCURVE",
"119 835 OFFCURVE",
"114 830 CURVE",
"109 824 OFFCURVE",
"96 810 OFFCURVE",
"75 788 CURVE SMOOTH",
"54 765 OFFCURVE",
"42 754 OFFCURVE",
"39 753 CURVE",
"33 752 OFFCURVE",
"27 752 OFFCURVE",
"21 752 CURVE SMOOTH",
"15 752 OFFCURVE",
"2 752 OFFCURVE",
"-19 753 CURVE",
"12 790 OFFCURVE",
"40 819 OFFCURVE",
"63 841 CURVE SMOOTH",
"86 863 OFFCURVE",
"112 888 OFFCURVE",
"141 915 CURVE"
);
}
);
width = 260;
}
);
note = Icircumflex;
rightKerningGroup = I;
unicode = 00CE;
},
{
glyphname = Idieresis;
layers = (
{
hints = (
{
horizontal = 1;
place = "{706, 54}";
type = Stem;
},
{
place = "{32, 12.98}";
type = Stem;
},
{
place = "{155, 33}";
type = Stem;
},
{
place = "{76, 96.21}";
type = Stem;
}
);
layerId = "67FB5424-006C-40A0-BA73-E9B40C667CAC";
paths = (
{
closed = 1;
nodes = (
"91 470 OFFCURVE",
"142 704 OFFCURVE",
"155 703 CURVE",
"155 699 LINE SMOOTH",
"155 643 OFFCURVE",
"154 584 OFFCURVE",
"153 526 CURVE SMOOTH",
"151 468 OFFCURVE",
"150 410 OFFCURVE",
"151 352 CURVE SMOOTH",
"152 293 OFFCURVE",
"152 235 OFFCURVE",
"151 177 CURVE SMOOTH",
"150 119 OFFCURVE",
"151 60 OFFCURVE",
"154 1 CURVE",
"147 0 OFFCURVE",
"142 0 OFFCURVE",
"139 -1 CURVE",
"135 -1 OFFCURVE",
"129 -1 OFFCURVE",
"120 -1 CURVE SMOOTH",
"111 -1 OFFCURVE",
"103 -2 OFFCURVE",
"96 -4 CURVE",
"97 77 OFFCURVE",
"98 173 OFFCURVE",
"97 283 CURVE SMOOTH",
"96 392 OFFCURVE",
"96 476 OFFCURVE",
"96 535 CURVE",
"95 593 OFFCURVE",
"98 650 OFFCURVE",
"104 706 CURVE",
"104 708 LINE",
"115 708 OFFCURVE",
"121 709 OFFCURVE",
"123 708 CURVE SMOOTH",
"125 707 OFFCURVE",
"127 706 OFFCURVE",
"128 706 CURVE"
);
},
{
closed = 1;
nodes = (
"74 759 LINE",
"35 760 LINE",
"32 760 LINE",
"63 749 OFFCURVE",
"30 775 OFFCURVE",
"30 785 CURVE",
"29 794 OFFCURVE",
"29 804 OFFCURVE",
"30 814 CURVE",
"30 824 OFFCURVE",
"30 833 OFFCURVE",
"31 842 CURVE",
"31 851 OFFCURVE",
"31 857 OFFCURVE",
"31 861 CURVE",
"37 863 OFFCURVE",
"46 864 OFFCURVE",
"58 865 CURVE",
"69 865 OFFCURVE",
"77 864 OFFCURVE",
"82 862 CURVE",
"82 861 OFFCURVE",
"82 857 OFFCURVE",
"81 848 CURVE SMOOTH",
"80 839 OFFCURVE",
"80 829 OFFCURVE",
"79 818 CURVE SMOOTH",
"78 806 OFFCURVE",
"78 795 OFFCURVE",
"77 784 CURVE SMOOTH",
"76 773 OFFCURVE",
"76 766 OFFCURVE",
"76 761 CURVE SMOOTH",
"76 760 LINE",
"76 759 LINE"
);
},
{
closed = 1;
nodes = (
"232 759 LINE",
"193 760 LINE",
"190 760 LINE",
"151 767 OFFCURVE",
"188 775 OFFCURVE",
"188 785 CURVE",
"187 794 OFFCURVE",
"187 804 OFFCURVE",
"188 814 CURVE",
"188 824 OFFCURVE",
"188 833 OFFCURVE",
"189 842 CURVE",
"189 851 OFFCURVE",
"189 857 OFFCURVE",
"189 861 CURVE",
"195 863 OFFCURVE",
"204 864 OFFCURVE",
"216 865 CURVE",
"227 865 OFFCURVE",
"235 864 OFFCURVE",
"240 862 CURVE",
"240 861 OFFCURVE",
"240 857 OFFCURVE",
"239 848 CURVE SMOOTH",
"238 839 OFFCURVE",
"238 829 OFFCURVE",
"237 818 CURVE SMOOTH",
"236 806 OFFCURVE",
"236 795 OFFCURVE",
"235 784 CURVE SMOOTH",
"234 773 OFFCURVE",
"234 766 OFFCURVE",
"234 761 CURVE SMOOTH",
"234 760 LINE",
"234 759 LINE"
);
}
);
width = 260;
}
);
note = Idieresis;
rightKerningGroup = I;
unicode = 00CF;
},
{
glyphname = Igrave;
layers = (
{
hints = (
{
horizontal = 1;
place = "{729.01, 18.99}";
type = Stem;
},
{
place = "{-15, 186}";
type = Stem;
}
);
layerId = "67FB5424-006C-40A0-BA73-E9B40C667CAC";
paths = (
{
closed = 1;
nodes = (
"19 904 LINE",
"21 594 OFFCURVE",
"37 885 OFFCURVE",
"49 873 CURVE",
"61 860 OFFCURVE",
"74 848 OFFCURVE",
"88 835 CURVE SMOOTH",
"102 822 OFFCURVE",
"117 807 OFFCURVE",
"132 791 CURVE SMOOTH",
"147 774 OFFCURVE",
"160 761 OFFCURVE",
"171 750 CURVE",
"166 749 OFFCURVE",
"159 748 OFFCURVE",
"149 747 CURVE SMOOTH",
"139 746 OFFCURVE",
"125 746 OFFCURVE",
"106 748 CURVE",
"103 753 OFFCURVE",
"97 760 OFFCURVE",
"88 769 CURVE SMOOTH",
"79 778 OFFCURVE",
"68 788 OFFCURVE",
"57 800 CURVE",
"46 811 OFFCURVE",
"31 826 OFFCURVE",
"14 845 CURVE",
"-4 863 OFFCURVE",
"-14 871 OFFCURVE",
"-15 868 CURVE"
);
},
{
closed = 1;
nodes = (
"86 759 OFFCURVE",
"142 704 OFFCURVE",
"155 703 CURVE",
"155 699 LINE SMOOTH",
"155 643 OFFCURVE",
"154 584 OFFCURVE",
"153 526 CURVE SMOOTH",
"151 468 OFFCURVE",
"150 410 OFFCURVE",
"151 352 CURVE SMOOTH",
"152 293 OFFCURVE",
"152 235 OFFCURVE",
"151 177 CURVE SMOOTH",
"150 119 OFFCURVE",
"151 60 OFFCURVE",
"154 1 CURVE",
"147 0 OFFCURVE",
"142 0 OFFCURVE",
"139 -1 CURVE",
"135 -1 OFFCURVE",
"129 -1 OFFCURVE",
"120 -1 CURVE SMOOTH",
"111 -1 OFFCURVE",
"103 -2 OFFCURVE",
"96 -4 CURVE",
"97 77 OFFCURVE",
"98 173 OFFCURVE",
"97 283 CURVE SMOOTH",
"96 392 OFFCURVE",
"96 476 OFFCURVE",
"96 535 CURVE",
"95 593 OFFCURVE",
"98 650 OFFCURVE",
"104 706 CURVE",
"104 708 LINE",
"115 708 OFFCURVE",
"121 709 OFFCURVE",
"123 708 CURVE SMOOTH",
"125 707 OFFCURVE",
"127 706 OFFCURVE",
"128 706 CURVE"
);
}
);
width = 260;
}
);
note = Igrave;
rightKerningGroup = I;
unicode = 00CC;
},
{
glyphname = J;
layers = (
{
hints = (
{
horizontal = 1;
place = "{-8, 720}";
type = Stem;
},
{
place = "{361.48, 17.52}";
type = Stem;
}
);
layerId = "67FB5424-006C-40A0-BA73-E9B40C667CAC";
paths = (
{
closed = 1;
nodes = (
"379 710 LINE",
"425 712 LINE",
"282 412 OFFCURVE",
"424 586 OFFCURVE",
"427 522 CURVE SMOOTH",
"430 458 OFFCURVE",
"430 394 OFFCURVE",
"429 329 CURVE SMOOTH",
"428 302 OFFCURVE",
"427 272 OFFCURVE",
"426 241 CURVE SMOOTH",
"425 209 OFFCURVE",
"422 178 OFFCURVE",
"416 149 CURVE SMOOTH",
"409 120 OFFCURVE",
"398 93 OFFCURVE",
"383 69 CURVE SMOOTH",
"367 45 OFFCURVE",
"344 27 OFFCURVE",
"313 16 CURVE",
"285 2 OFFCURVE",
"254 -6 OFFCURVE",
"221 -8 CURVE SMOOTH",
"188 -9 OFFCURVE",
"156 -7 OFFCURVE",
"126 0 CURVE",
"99 8 OFFCURVE",
"77 23 OFFCURVE",
"60 44 CURVE SMOOTH",
"43 65 OFFCURVE",
"31 90 OFFCURVE",
"22 118 CURVE SMOOTH",
"13 145 OFFCURVE",
"8 174 OFFCURVE",
"6 205 CURVE",
"3 235 OFFCURVE",
"3 263 OFFCURVE",
"4 288 CURVE",
"18 289 OFFCURVE",
"31 288 OFFCURVE",
"43 286 CURVE",
"43 285 LINE",
"43 280 LINE",
"44 272 OFFCURVE",
"45 259 OFFCURVE",
"47 246 CURVE",
"48 233 OFFCURVE",
"51 210 OFFCURVE",
"54 177 CURVE SMOOTH",
"57 144 OFFCURVE",
"70 110 OFFCURVE",
"93 75 CURVE SMOOTH",
"116 40 OFFCURVE",
"162 28 OFFCURVE",
"231 39 CURVE SMOOTH",
"300 50 OFFCURVE",
"340 70 OFFCURVE",
"353 101 CURVE SMOOTH",
"366 131 OFFCURVE",
"373 161 OFFCURVE",
"375 191 CURVE SMOOTH",
"376 220 OFFCURVE",
"377 240 OFFCURVE",
"378 250 CURVE",
"378 315 OFFCURVE",
"378 387 OFFCURVE",
"377 466 CURVE SMOOTH",
"376 545 OFFCURVE",
"376 624 OFFCURVE",
"379 703 CURVE"
);
}
);
width = 463;
}
);
leftKerningGroup = J;
note = J;
rightKerningGroup = J;
unicode = 004A;
},
{
glyphname = K;
layers = (
{
hints = (
{
horizontal = 1;
place = "{2, 697}";
type = Stem;
},
{
place = "{96, 108.11}";
type = Stem;
}
);
layerId = "67FB5424-006C-40A0-BA73-E9B40C667CAC";
paths = (
{
closed = 1;
nodes = (
"463 4 LINE",
"403 2 LINE",
"161 114 OFFCURVE",
"225 191 OFFCURVE",
"190 230 CURVE SMOOTH",
"155 269 OFFCURVE",
"124 299 OFFCURVE",
"98 322 CURVE",
"99 302 OFFCURVE",
"99 273 OFFCURVE",
"97 236 CURVE SMOOTH",
"94 199 OFFCURVE",
"94 156 OFFCURVE",
"96 107 CURVE SMOOTH",
"98 58 OFFCURVE",
"99 24 OFFCURVE",
"99 5 CURVE",
"90 2 OFFCURVE",
"80 1 OFFCURVE",
"71 2 CURVE",
"61 2 OFFCURVE",
"52 3 OFFCURVE",
"43 5 CURVE",
"38 120 OFFCURVE",
"37 235 OFFCURVE",
"41 351 CURVE SMOOTH",
"44 466 OFFCURVE",
"46 582 OFFCURVE",
"45 699 CURVE",
"96 697 LINE",
"80 660 OFFCURVE",
"98 619 OFFCURVE",
"97 577 CURVE SMOOTH",
"96 535 OFFCURVE",
"97 476 OFFCURVE",
"98 401 CURVE SMOOTH",
"98 400 OFFCURVE",
"112 413 OFFCURVE",
"139 438 CURVE SMOOTH",
"166 463 OFFCURVE",
"200 496 OFFCURVE",
"242 535 CURVE SMOOTH",
"283 574 OFFCURVE",
"315 605 OFFCURVE",
"338 627 CURVE SMOOTH",
"361 649 OFFCURVE",
"381 671 OFFCURVE",
"398 692 CURVE",
"462 692 LINE",
"405 652 OFFCURVE",
"389 613 OFFCURVE",
"351 576 CURVE SMOOTH",
"312 538 OFFCURVE",
"284 509 OFFCURVE",
"266 489 CURVE SMOOTH",
"248 469 OFFCURVE",
"204 427 OFFCURVE",
"133 362 CURVE"
);
}
);
width = 459;
}
);
note = K;
rightKerningGroup = K;
unicode = 004B;
},
{
glyphname = L;
layers = (
{
hints = (
{
horizontal = 1;
place = "{-3, 708.5}";
type = Stem;
},
{
place = "{36, 420}";
type = Stem;
}
);
layerId = "67FB5424-006C-40A0-BA73-E9B40C667CAC";
paths = (
{
closed = 1;
nodes = (
"304 21 OFFCURVE",
"455 22 OFFCURVE",
"454 1 CURVE",
"446 0 OFFCURVE",
"438 0 OFFCURVE",
"431 0 CURVE",
"424 1 OFFCURVE",
"414 1 OFFCURVE",
"403 0 CURVE SMOOTH",
"391 -1 OFFCURVE",
"371 -1 OFFCURVE",
"344 -2 CURVE SMOOTH",
"316 -3 OFFCURVE",
"278 -3 OFFCURVE",
"230 -3 CURVE SMOOTH",
"181 -3 OFFCURVE",
"117 -2 OFFCURVE",
"36 -1 CURVE",
"36 17 LINE",
"38 61 OFFCURVE",
"40 112 OFFCURVE",
"41 153 CURVE SMOOTH",
"42 193 OFFCURVE",
"43 231 OFFCURVE",
"44 266 CURVE SMOOTH",
"44 301 OFFCURVE",
"44 334 OFFCURVE",
"44 367 CURVE SMOOTH",
"44 400 OFFCURVE",
"44 433 OFFCURVE",
"43 467 CURVE SMOOTH",
"42 501 OFFCURVE",
"42 537 OFFCURVE",
"41 576 CURVE SMOOTH",
"40 614 OFFCURVE",
"40 656 OFFCURVE",
"39 703 CURVE",
"46 706 OFFCURVE",
"55 706 OFFCURVE",
"66 705 CURVE",
"77 703 OFFCURVE",
"88 700 OFFCURVE",
"97 696 CURVE",
"96 653 OFFCURVE",
"95 608 OFFCURVE",
"96 563 CURVE SMOOTH",
"96 517 OFFCURVE",
"96 471 OFFCURVE",
"97 425 CURVE SMOOTH",
"98 379 OFFCURVE",
"98 333 OFFCURVE",
"99 288 CURVE SMOOTH",
"99 242 OFFCURVE",
"98 161 OFFCURVE",
"95 46 CURVE SMOOTH",
"95 45 LINE",
"100 47 OFFCURVE",
"126 48 OFFCURVE",
"173 49 CURVE SMOOTH",
"220 50 OFFCURVE",
"252 50 OFFCURVE",
"269 49 CURVE SMOOTH",
"286 48 OFFCURVE",
"305 48 OFFCURVE",
"325 47 CURVE SMOOTH",
"344 46 OFFCURVE",
"363 45 OFFCURVE",
"381 44 CURVE SMOOTH",
"398 43 OFFCURVE",
"414 43 OFFCURVE",
"428 43 CURVE",
"441 42 OFFCURVE",
"451 42 OFFCURVE",
"456 43 CURVE"
);
}
);
width = 461;
}
);
note = L;
rightKerningGroup = L;
unicode = 004C;
},
{
glyphname = M;
layers = (
{
hints = (
{
horizontal = 1;
place = "{0, 21}";
target = up;
type = BottomGhost;
},
{
place = "{89, 318}";
type = Stem;
}
);
layerId = "67FB5424-006C-40A0-BA73-E9B40C667CAC";
paths = (
{
closed = 1;
nodes = (
"456 -1 LINE",
"294 1 OFFCURVE",
"438 1 OFFCURVE",
"431 2 CURVE",
"424 2 OFFCURVE",
"417 2 OFFCURVE",
"409 2 CURVE",
"408 31 OFFCURVE",
"407 62 OFFCURVE",
"407 95 CURVE",
"406 128 OFFCURVE",
"407 162 OFFCURVE",
"408 197 CURVE SMOOTH",
"409 232 OFFCURVE",
"409 266 OFFCURVE",
"408 299 CURVE SMOOTH",
"406 332 OFFCURVE",
"406 441 OFFCURVE",
"407 624 CURVE",
"402 617 OFFCURVE",
"398 607 OFFCURVE",
"393 596 CURVE SMOOTH",
"388 584 OFFCURVE",
"366 539 OFFCURVE",
"327 460 CURVE SMOOTH",
"288 381 OFFCURVE",
"265 336 OFFCURVE",
"260 323 CURVE SMOOTH",
"255 310 OFFCURVE",
"251 304 OFFCURVE",
"248 304 CURVE",
"234 320 OFFCURVE",
"221 343 OFFCURVE",
"208 372 CURVE SMOOTH",
"195 401 OFFCURVE",
"172 448 OFFCURVE",
"139 514 CURVE SMOOTH",
"106 580 OFFCURVE",
"89 613 OFFCURVE",
"89 613 CURVE",
"92 396 OFFCURVE",
"95 256 OFFCURVE",
"96 192 CURVE SMOOTH",
"97 128 OFFCURVE",
"99 65 OFFCURVE",
"103 3 CURVE",
"48 0 LINE",
"65 1 OFFCURVE",
"46 1 OFFCURVE",
"45 3 CURVE",
"44 6 OFFCURVE",
"44 12 OFFCURVE",
"43 22 CURVE SMOOTH",
"42 32 OFFCURVE",
"42 47 OFFCURVE",
"42 68 CURVE",
"41 88 OFFCURVE",
"41 115 OFFCURVE",
"41 148 CURVE SMOOTH",
"41 181 OFFCURVE",
"41 223 OFFCURVE",
"42 272 CURVE SMOOTH",
"42 321 OFFCURVE",
"42 380 OFFCURVE",
"43 448 CURVE SMOOTH",
"43 516 OFFCURVE",
"43 595 OFFCURVE",
"44 686 CURVE",
"53 689 OFFCURVE",
"70 690 OFFCURVE",
"95 691 CURVE",
"96 691 LINE",
"102 684 OFFCURVE",
"108 674 OFFCURVE",
"114 661 CURVE SMOOTH",
"120 647 OFFCURVE",
"139 608 OFFCURVE",
"171 543 CURVE SMOOTH",
"203 478 OFFCURVE",
"227 427 OFFCURVE",
"244 391 CURVE",
"257 415 OFFCURVE",
"267 436 OFFCURVE",
"274 454 CURVE SMOOTH",
"280 471 OFFCURVE",
"301 514 OFFCURVE",
"336 582 CURVE SMOOTH",
"371 649 OFFCURVE",
"391 687 OFFCURVE",
"397 695 CURVE",
"402 694 OFFCURVE",
"411 695 OFFCURVE",
"424 696 CURVE SMOOTH",
"437 697 OFFCURVE",
"449 697 OFFCURVE",
"460 697 CURVE",
"457 633 OFFCURVE",
"457 570 OFFCURVE",
"460 508 CURVE SMOOTH",
"463 445 OFFCURVE",
"462 382 OFFCURVE",
"459 318 CURVE"
);
}
);
width = 501;
}
);
note = M;
rightKerningGroup = I;
unicode = 004D;
},
{
glyphname = N;
layers = (
{
hints = (
{
horizontal = 1;
place = "{-1.62, 709.62}";
type = Stem;
},
{
place = "{92, 7}";
type = Stem;
}
);
layerId = "67FB5424-006C-40A0-BA73-E9B40C667CAC";
paths = (
{
closed = 1;
nodes = (
"303 -1 OFFCURVE",
"441 1 OFFCURVE",
"412 4 CURVE",
"390 53 OFFCURVE",
"369 94 OFFCURVE",
"348 126 CURVE SMOOTH",
"327 157 OFFCURVE",
"250 293 OFFCURVE",
"119 533 CURVE",
"108 556 OFFCURVE",
"101 571 OFFCURVE",
"99 578 CURVE",
"96 584 OFFCURVE",
"94 581 OFFCURVE",
"92 569 CURVE",
"94 548 OFFCURVE",
"95 525 OFFCURVE",
"94 500 CURVE SMOOTH",
"93 475 OFFCURVE",
"94 407 OFFCURVE",
"97 294 CURVE SMOOTH",
"100 181 OFFCURVE",
"101 111 OFFCURVE",
"101 83 CURVE SMOOTH",
"101 68 OFFCURVE",
"101 53 OFFCURVE",
"101 39 CURVE SMOOTH",
"101 24 OFFCURVE",
"101 11 OFFCURVE",
"102 0 CURVE",
"95 -2 OFFCURVE",
"87 -2 OFFCURVE",
"78 -1 CURVE SMOOTH",
"69 0 OFFCURVE",
"57 1 OFFCURVE",
"42 1 CURVE",
"42 71 LINE SMOOTH",
"42 111 OFFCURVE",
"42 195 OFFCURVE",
"41 252 CURVE SMOOTH",
"40 309 OFFCURVE",
"39 369 OFFCURVE",
"39 432 CURVE SMOOTH",
"39 478 OFFCURVE",
"40 524 OFFCURVE",
"41 569 CURVE SMOOTH",
"42 614 OFFCURVE",
"45 657 OFFCURVE",
"48 700 CURVE",
"55 701 OFFCURVE",
"64 701 OFFCURVE",
"77 699 CURVE SMOOTH",
"90 697 OFFCURVE",
"96 695 OFFCURVE",
"96 694 CURVE",
"101 682 OFFCURVE",
"105 672 OFFCURVE",
"109 664 CURVE SMOOTH",
"113 656 OFFCURVE",
"120 644 OFFCURVE",
"129 628 CURVE SMOOTH",
"138 611 OFFCURVE",
"145 596 OFFCURVE",
"151 582 CURVE",
"152 579 OFFCURVE",
"190 513 OFFCURVE",
"263 384 CURVE SMOOTH",
"336 255 OFFCURVE",
"378 182 OFFCURVE",
"388 163 CURVE",
"397 144 OFFCURVE",
"405 131 OFFCURVE",
"410 124 CURVE",
"410 157 OFFCURVE",
"410 179 OFFCURVE",
"410 190 CURVE SMOOTH",
"410 225 OFFCURVE",
"410 254 OFFCURVE",
"409 277 CURVE SMOOTH",
"408 300 OFFCURVE",
"407 323 OFFCURVE",
"407 347 CURVE",
"404 542 OFFCURVE",
"401 647 OFFCURVE",
"400 662 CURVE SMOOTH",
"399 676 OFFCURVE",
"398 691 OFFCURVE",
"398 708 CURVE",
"417 709 OFFCURVE",
"437 708 OFFCURVE",
"456 704 CURVE",
"456 382 LINE",
"457 461 OFFCURVE",
"457 326 OFFCURVE",
"457 297 CURVE SMOOTH",
"457 268 OFFCURVE",
"457 240 OFFCURVE",
"457 211 CURVE SMOOTH",
"457 192 OFFCURVE",
"457 173 OFFCURVE",
"457 155 CURVE",
"456 137 OFFCURVE",
"456 119 OFFCURVE",
"456 100 CURVE",
"453 77 OFFCURVE",
"453 51 OFFCURVE",
"457 20 CURVE",
"457 0 LINE"
);
}
);
width = 498;
}
);
note = N;
rightKerningGroup = I;
unicode = 004E;
},
{
glyphname = Ntilde;
layers = (
{
hints = (
{
horizontal = 1;
place = "{708, 43}";
type = Stem;
},
{
place = "{92, 7}";
type = Stem;
},
{
horizontal = 1;
place = "{700, 57}";
type = Stem;
}
);
layerId = "67FB5424-006C-40A0-BA73-E9B40C667CAC";
paths = (
{
closed = 1;
nodes = (
"303 -1 OFFCURVE",
"441 1 OFFCURVE",
"412 4 CURVE",
"390 53 OFFCURVE",
"369 94 OFFCURVE",
"348 126 CURVE SMOOTH",
"327 157 OFFCURVE",
"250 293 OFFCURVE",
"119 533 CURVE",
"108 556 OFFCURVE",
"101 571 OFFCURVE",
"99 578 CURVE",
"96 584 OFFCURVE",
"94 581 OFFCURVE",
"92 569 CURVE",
"94 548 OFFCURVE",
"95 525 OFFCURVE",
"94 500 CURVE SMOOTH",
"93 475 OFFCURVE",
"94 407 OFFCURVE",
"97 294 CURVE SMOOTH",
"100 181 OFFCURVE",
"101 111 OFFCURVE",
"101 83 CURVE SMOOTH",
"101 68 OFFCURVE",
"101 53 OFFCURVE",
"101 39 CURVE SMOOTH",
"101 24 OFFCURVE",
"101 11 OFFCURVE",
"102 0 CURVE",
"95 -2 OFFCURVE",
"87 -2 OFFCURVE",
"78 -1 CURVE SMOOTH",
"69 0 OFFCURVE",
"57 1 OFFCURVE",
"42 1 CURVE",
"42 71 LINE SMOOTH",
"42 111 OFFCURVE",
"42 195 OFFCURVE",
"41 252 CURVE SMOOTH",
"40 309 OFFCURVE",
"39 369 OFFCURVE",
"39 432 CURVE SMOOTH",
"39 478 OFFCURVE",
"40 524 OFFCURVE",
"41 569 CURVE SMOOTH",
"42 614 OFFCURVE",
"45 657 OFFCURVE",
"48 700 CURVE",
"55 701 OFFCURVE",
"64 701 OFFCURVE",
"77 699 CURVE SMOOTH",
"90 697 OFFCURVE",
"96 695 OFFCURVE",
"96 694 CURVE",
"101 682 OFFCURVE",
"105 672 OFFCURVE",
"109 664 CURVE SMOOTH",
"113 656 OFFCURVE",
"120 644 OFFCURVE",
"129 628 CURVE SMOOTH",
"138 611 OFFCURVE",
"145 596 OFFCURVE",
"151 582 CURVE",
"152 579 OFFCURVE",
"190 513 OFFCURVE",
"263 384 CURVE SMOOTH",
"336 255 OFFCURVE",
"378 182 OFFCURVE",
"388 163 CURVE",
"397 144 OFFCURVE",
"405 131 OFFCURVE",
"410 124 CURVE",
"410 157 OFFCURVE",
"410 179 OFFCURVE",
"410 190 CURVE SMOOTH",
"410 225 OFFCURVE",
"410 254 OFFCURVE",
"409 277 CURVE SMOOTH",
"408 300 OFFCURVE",
"407 323 OFFCURVE",
"407 347 CURVE",
"404 542 OFFCURVE",
"401 647 OFFCURVE",
"400 662 CURVE SMOOTH",
"399 676 OFFCURVE",
"398 691 OFFCURVE",
"398 708 CURVE",
"417 709 OFFCURVE",
"437 708 OFFCURVE",
"456 704 CURVE",
"456 382 LINE",
"457 461 OFFCURVE",
"457 326 OFFCURVE",
"457 297 CURVE SMOOTH",
"457 268 OFFCURVE",
"457 240 OFFCURVE",
"457 211 CURVE SMOOTH",
"457 192 OFFCURVE",
"457 173 OFFCURVE",
"457 155 CURVE",
"456 137 OFFCURVE",
"456 119 OFFCURVE",
"456 100 CURVE",
"453 77 OFFCURVE",
"453 51 OFFCURVE",
"457 20 CURVE",
"457 0 LINE"
);
},
{
closed = 1;
nodes = (
"105 757 LINE",
"214 512 OFFCURVE",
"90 758 OFFCURVE",
"85 758 CURVE SMOOTH",
"79 758 OFFCURVE",
"71 758 OFFCURVE",
"61 757 CURVE",
"63 764 OFFCURVE",
"66 774 OFFCURVE",
"71 786 CURVE",
"75 797 OFFCURVE",
"80 809 OFFCURVE",
"85 822 CURVE SMOOTH",
"90 835 OFFCURVE",
"96 847 OFFCURVE",
"102 858 CURVE SMOOTH",
"108 869 OFFCURVE",
"114 879 OFFCURVE",
"121 886 CURVE SMOOTH",
"130 895 OFFCURVE",
"140 902 OFFCURVE",
"151 908 CURVE SMOOTH",
"162 914 OFFCURVE",
"174 918 OFFCURVE",
"186 920 CURVE SMOOTH",
"198 922 OFFCURVE",
"210 922 OFFCURVE",
"222 920 CURVE",
"234 917 OFFCURVE",
"245 912 OFFCURVE",
"256 905 CURVE",
"266 898 OFFCURVE",
"274 889 OFFCURVE",
"280 880 CURVE",
"285 871 OFFCURVE",
"293 851 OFFCURVE",
"302 821 CURVE SMOOTH",
"311 790 OFFCURVE",
"331 778 OFFCURVE",
"363 785 CURVE SMOOTH",
"395 791 OFFCURVE",
"415 807 OFFCURVE",
"422 833 CURVE SMOOTH",
"429 859 OFFCURVE",
"430 885 OFFCURVE",
"426 912 CURVE",
"463 913 LINE",
"463 912 LINE",
"453 895 OFFCURVE",
"466 878 OFFCURVE",
"463 861 CURVE SMOOTH",
"460 843 OFFCURVE",
"454 826 OFFCURVE",
"446 811 CURVE SMOOTH",
"438 796 OFFCURVE",
"428 783 OFFCURVE",
"415 772 CURVE SMOOTH",
"402 761 OFFCURVE",
"386 754 OFFCURVE",
"369 751 CURVE SMOOTH",
"348 748 OFFCURVE",
"328 749 OFFCURVE",
"309 755 CURVE SMOOTH",
"290 761 OFFCURVE",
"273 786 OFFCURVE",
"260 829 CURVE",
"249 858 OFFCURVE",
"238 875 OFFCURVE",
"227 881 CURVE SMOOTH",
"216 887 OFFCURVE",
"203 889 OFFCURVE",
"188 886 CURVE",
"163 880 OFFCURVE",
"145 866 OFFCURVE",
"133 843 CURVE SMOOTH",
"121 820 OFFCURVE",
"112 791 OFFCURVE",
"105 758 CURVE"
);
}
);
width = 516;
}
);
note = Ntilde;
rightKerningGroup = I;
unicode = 00D1;
},
{
glyphname = O;
layers = (
{
hints = (
{
horizontal = 1;
place = "{-13.75, 713.75}";
type = Stem;
},
{
place = "{353.6, 54.4}";
type = Stem;
}
);
layerId = "67FB5424-006C-40A0-BA73-E9B40C667CAC";
paths = (
{
closed = 1;
nodes = (
"283 418 OFFCURVE",
"429 615 OFFCURVE",
"437 592 CURVE",
"442 582 OFFCURVE",
"445 572 OFFCURVE",
"448 562 CURVE",
"450 551 OFFCURVE",
"452 541 OFFCURVE",
"453 530 CURVE SMOOTH",
"454 513 OFFCURVE",
"455 497 OFFCURVE",
"456 481 CURVE",
"456 464 OFFCURVE",
"456 448 OFFCURVE",
"455 431 CURVE SMOOTH",
"453 396 OFFCURVE",
"452 361 OFFCURVE",
"453 328 CURVE SMOOTH",
"454 295 OFFCURVE",
"453 261 OFFCURVE",
"450 226 CURVE SMOOTH",
"447 193 LINE",
"447 181 OFFCURVE",
"442 146 OFFCURVE",
"436 123 CURVE SMOOTH",
"430 99 OFFCURVE",
"421 77 OFFCURVE",
"409 58 CURVE",
"398 42 OFFCURVE",
"383 29 OFFCURVE",
"365 20 CURVE SMOOTH",
"346 10 OFFCURVE",
"327 2 OFFCURVE",
"306 -3 CURVE SMOOTH",
"287 -8 OFFCURVE",
"269 -12 OFFCURVE",
"250 -13 CURVE SMOOTH",
"231 -14 OFFCURVE",
"211 -14 OFFCURVE",
"192 -13 CURVE SMOOTH",
"178 -12 OFFCURVE",
"165 -10 OFFCURVE",
"152 -8 CURVE",
"139 -5 OFFCURVE",
"126 -1 OFFCURVE",
"115 4 CURVE SMOOTH",
"103 9 OFFCURVE",
"92 16 OFFCURVE",
"83 25 CURVE",
"74 33 OFFCURVE",
"66 44 OFFCURVE",
"60 57 CURVE",
"51 74 OFFCURVE",
"45 92 OFFCURVE",
"42 111 CURVE SMOOTH",
"39 130 OFFCURVE",
"37 149 OFFCURVE",
"36 168 CURVE SMOOTH",
"34 220 OFFCURVE",
"32 272 OFFCURVE",
"30 325 CURVE SMOOTH",
"27 377 OFFCURVE",
"28 429 OFFCURVE",
"31 482 CURVE SMOOTH",
"32 512 OFFCURVE",
"36 542 OFFCURVE",
"43 573 CURVE SMOOTH",
"50 603 OFFCURVE",
"63 630 OFFCURVE",
"84 653 CURVE",
"91 660 OFFCURVE",
"98 666 OFFCURVE",
"107 671 CURVE",
"129 682 OFFCURVE",
"153 690 OFFCURVE",
"179 695 CURVE SMOOTH",
"204 700 OFFCURVE",
"230 701 OFFCURVE",
"256 700 CURVE SMOOTH",
"281 699 OFFCURVE",
"306 694 OFFCURVE",
"331 687 CURVE",
"355 679 OFFCURVE",
"377 668 OFFCURVE",
"396 653 CURVE"
);
},
{
closed = 1;
nodes = (
"408 439 LINE",
"402 507 LINE",
"400 556 OFFCURVE",
"402 515 OFFCURVE",
"401 528 CURVE SMOOTH",
"400 541 OFFCURVE",
"399 553 OFFCURVE",
"398 564 CURVE",
"397 583 OFFCURVE",
"390 600 OFFCURVE",
"377 615 CURVE SMOOTH",
"364 630 OFFCURVE",
"349 642 OFFCURVE",
"334 649 CURVE",
"321 654 OFFCURVE",
"297 659 OFFCURVE",
"262 663 CURVE SMOOTH",
"227 666 OFFCURVE",
"186 657 OFFCURVE",
"137 635 CURVE",
"114 617 OFFCURVE",
"98 594 OFFCURVE",
"90 566 CURVE",
"85 541 OFFCURVE",
"80 514 OFFCURVE",
"77 486 CURVE",
"73 458 OFFCURVE",
"72 400 OFFCURVE",
"73 311 CURVE SMOOTH",
"75 224 OFFCURVE",
"78 169 OFFCURVE",
"83 145 CURVE SMOOTH",
"88 120 OFFCURVE",
"93 97 OFFCURVE",
"100 75 CURVE",
"107 62 OFFCURVE",
"120 49 OFFCURVE",
"141 36 CURVE SMOOTH",
"162 23 OFFCURVE",
"195 18 OFFCURVE",
"242 22 CURVE SMOOTH",
"288 26 OFFCURVE",
"318 33 OFFCURVE",
"333 42 CURVE SMOOTH",
"348 51 OFFCURVE",
"360 61 OFFCURVE",
"370 72 CURVE",
"376 80 OFFCURVE",
"380 87 OFFCURVE",
"383 92 CURVE SMOOTH",
"386 97 OFFCURVE",
"389 102 OFFCURVE",
"392 107 CURVE SMOOTH",
"395 112 OFFCURVE",
"397 120 OFFCURVE",
"398 129 CURVE SMOOTH",
"399 138 OFFCURVE",
"401 149 OFFCURVE",
"402 163 CURVE SMOOTH",
"403 176 OFFCURVE",
"404 202 OFFCURVE",
"406 241 CURVE SMOOTH",
"407 279 OFFCURVE",
"408 299 OFFCURVE",
"408 300 CURVE SMOOTH"
);
}
);
width = 483;
}
);
leftKerningGroup = G;
note = O;
rightKerningGroup = O;
unicode = 004F;
},
{
glyphname = Oacute;
layers = (
{
hints = (
{
horizontal = 1;
place = "{748, 57.08}";
type = Stem;
},
{
place = "{353.6, 54.4}";
type = Stem;
}
);
layerId = "67FB5424-006C-40A0-BA73-E9B40C667CAC";
paths = (
{
closed = 1;
nodes = (
"283 418 OFFCURVE",
"429 615 OFFCURVE",
"437 592 CURVE",
"442 582 OFFCURVE",
"445 572 OFFCURVE",
"448 562 CURVE",
"450 551 OFFCURVE",
"452 541 OFFCURVE",
"453 530 CURVE SMOOTH",
"454 513 OFFCURVE",
"455 497 OFFCURVE",
"456 481 CURVE",
"456 464 OFFCURVE",
"456 448 OFFCURVE",
"455 431 CURVE SMOOTH",
"453 396 OFFCURVE",
"452 361 OFFCURVE",
"453 328 CURVE SMOOTH",
"454 295 OFFCURVE",
"453 261 OFFCURVE",
"450 226 CURVE SMOOTH",
"447 193 LINE",
"447 181 OFFCURVE",
"442 146 OFFCURVE",
"436 123 CURVE SMOOTH",
"430 99 OFFCURVE",
"421 77 OFFCURVE",
"409 58 CURVE",
"398 42 OFFCURVE",
"383 29 OFFCURVE",
"365 20 CURVE SMOOTH",
"346 10 OFFCURVE",
"327 2 OFFCURVE",
"306 -3 CURVE SMOOTH",
"287 -8 OFFCURVE",
"269 -12 OFFCURVE",
"250 -13 CURVE SMOOTH",
"231 -14 OFFCURVE",
"211 -14 OFFCURVE",
"192 -13 CURVE SMOOTH",
"178 -12 OFFCURVE",
"165 -10 OFFCURVE",
"152 -8 CURVE",
"139 -5 OFFCURVE",
"126 -1 OFFCURVE",
"115 4 CURVE SMOOTH",
"103 9 OFFCURVE",
"92 16 OFFCURVE",
"83 25 CURVE",
"74 33 OFFCURVE",
"66 44 OFFCURVE",
"60 57 CURVE",
"51 74 OFFCURVE",
"45 92 OFFCURVE",
"42 111 CURVE SMOOTH",
"39 130 OFFCURVE",
"37 149 OFFCURVE",
"36 168 CURVE SMOOTH",
"34 220 OFFCURVE",
"32 272 OFFCURVE",
"30 325 CURVE SMOOTH",
"27 377 OFFCURVE",
"28 429 OFFCURVE",
"31 482 CURVE SMOOTH",
"32 512 OFFCURVE",
"36 542 OFFCURVE",
"43 573 CURVE SMOOTH",
"50 603 OFFCURVE",
"63 630 OFFCURVE",
"84 653 CURVE",
"91 660 OFFCURVE",
"98 666 OFFCURVE",
"107 671 CURVE",
"129 682 OFFCURVE",
"153 690 OFFCURVE",
"179 695 CURVE SMOOTH",
"204 700 OFFCURVE",
"230 701 OFFCURVE",
"256 700 CURVE SMOOTH",
"281 699 OFFCURVE",
"306 694 OFFCURVE",
"331 687 CURVE",
"355 679 OFFCURVE",
"377 668 OFFCURVE",
"396 653 CURVE"
);
},
{
closed = 1;
nodes = (
"408 439 LINE",
"402 507 LINE",
"400 556 OFFCURVE",
"402 515 OFFCURVE",
"401 528 CURVE SMOOTH",
"400 541 OFFCURVE",
"399 553 OFFCURVE",
"398 564 CURVE",
"397 583 OFFCURVE",
"390 600 OFFCURVE",
"377 615 CURVE SMOOTH",
"364 630 OFFCURVE",
"349 642 OFFCURVE",
"334 649 CURVE",
"321 654 OFFCURVE",
"297 659 OFFCURVE",
"262 663 CURVE SMOOTH",
"227 666 OFFCURVE",
"186 657 OFFCURVE",
"137 635 CURVE",
"114 617 OFFCURVE",
"98 594 OFFCURVE",
"90 566 CURVE",
"85 541 OFFCURVE",
"80 514 OFFCURVE",
"77 486 CURVE",
"73 458 OFFCURVE",
"72 400 OFFCURVE",
"73 311 CURVE SMOOTH",
"75 224 OFFCURVE",
"78 169 OFFCURVE",
"83 145 CURVE SMOOTH",
"88 120 OFFCURVE",
"93 97 OFFCURVE",
"100 75 CURVE",
"107 62 OFFCURVE",
"120 49 OFFCURVE",
"141 36 CURVE SMOOTH",
"162 23 OFFCURVE",
"195 18 OFFCURVE",
"242 22 CURVE SMOOTH",
"288 26 OFFCURVE",
"318 33 OFFCURVE",
"333 42 CURVE SMOOTH",
"348 51 OFFCURVE",
"360 61 OFFCURVE",
"370 72 CURVE",
"376 80 OFFCURVE",
"380 87 OFFCURVE",
"383 92 CURVE SMOOTH",
"386 97 OFFCURVE",
"389 102 OFFCURVE",
"392 107 CURVE SMOOTH",
"395 112 OFFCURVE",
"397 120 OFFCURVE",
"398 129 CURVE SMOOTH",
"399 138 OFFCURVE",
"401 149 OFFCURVE",
"402 163 CURVE SMOOTH",
"403 176 OFFCURVE",
"404 202 OFFCURVE",
"406 241 CURVE SMOOTH",
"407 279 OFFCURVE",
"408 299 OFFCURVE",
"408 300 CURVE SMOOTH"
);
},
{
closed = 1;
nodes = (
"344 904 LINE",
"357 694 OFFCURVE",
"326 885 OFFCURVE",
"314 873 CURVE",
"302 860 OFFCURVE",
"289 848 OFFCURVE",
"275 835 CURVE SMOOTH",
"261 822 OFFCURVE",
"247 807 OFFCURVE",
"232 791 CURVE SMOOTH",
"217 774 OFFCURVE",
"203 761 OFFCURVE",
"192 750 CURVE",
"197 749 OFFCURVE",
"204 748 OFFCURVE",
"214 747 CURVE SMOOTH",
"224 746 OFFCURVE",
"238 746 OFFCURVE",
"257 748 CURVE",
"260 753 OFFCURVE",
"267 760 OFFCURVE",
"276 769 CURVE SMOOTH",
"285 778 OFFCURVE",
"295 788 OFFCURVE",
"306 800 CURVE",
"317 811 OFFCURVE",
"332 826 OFFCURVE",
"350 845 CURVE SMOOTH",
"367 863 OFFCURVE",
"377 871 OFFCURVE",
"378 868 CURVE"
);
}
);
width = 485;
}
);
leftKerningGroup = G;
note = Oacute;
rightKerningGroup = O;
unicode = 00D3;
},
{
glyphname = Ocircumflex;
layers = (
{
hints = (
{
horizontal = 1;
place = "{700, 53}";
type = Stem;
},
{
place = "{353.6, 54.4}";
type = Stem;
}
);
layerId = "67FB5424-006C-40A0-BA73-E9B40C667CAC";
paths = (
{
closed = 1;
nodes = (
"283 418 OFFCURVE",
"429 615 OFFCURVE",
"437 592 CURVE",
"442 582 OFFCURVE",
"445 572 OFFCURVE",
"448 562 CURVE",
"450 551 OFFCURVE",
"452 541 OFFCURVE",
"453 530 CURVE SMOOTH",
"454 513 OFFCURVE",
"455 497 OFFCURVE",
"456 481 CURVE",
"456 464 OFFCURVE",
"456 448 OFFCURVE",
"455 431 CURVE SMOOTH",
"453 396 OFFCURVE",
"452 361 OFFCURVE",
"453 328 CURVE SMOOTH",
"454 295 OFFCURVE",
"453 261 OFFCURVE",
"450 226 CURVE SMOOTH",
"447 193 LINE",
"447 181 OFFCURVE",
"442 146 OFFCURVE",
"436 123 CURVE SMOOTH",
"430 99 OFFCURVE",
"421 77 OFFCURVE",
"409 58 CURVE",
"398 42 OFFCURVE",
"383 29 OFFCURVE",
"365 20 CURVE SMOOTH",
"346 10 OFFCURVE",
"327 2 OFFCURVE",
"306 -3 CURVE SMOOTH",
"287 -8 OFFCURVE",
"269 -12 OFFCURVE",
"250 -13 CURVE SMOOTH",
"231 -14 OFFCURVE",
"211 -14 OFFCURVE",
"192 -13 CURVE SMOOTH",
"178 -12 OFFCURVE",
"165 -10 OFFCURVE",
"152 -8 CURVE",
"139 -5 OFFCURVE",
"126 -1 OFFCURVE",
"115 4 CURVE SMOOTH",
"103 9 OFFCURVE",
"92 16 OFFCURVE",
"83 25 CURVE",
"74 33 OFFCURVE",
"66 44 OFFCURVE",
"60 57 CURVE",
"51 74 OFFCURVE",
"45 92 OFFCURVE",
"42 111 CURVE SMOOTH",
"39 130 OFFCURVE",
"37 149 OFFCURVE",
"36 168 CURVE SMOOTH",
"34 220 OFFCURVE",
"32 272 OFFCURVE",
"30 325 CURVE SMOOTH",
"27 377 OFFCURVE",
"28 429 OFFCURVE",
"31 482 CURVE SMOOTH",
"32 512 OFFCURVE",
"36 542 OFFCURVE",
"43 573 CURVE SMOOTH",
"50 603 OFFCURVE",
"63 630 OFFCURVE",
"84 653 CURVE",
"91 660 OFFCURVE",
"98 666 OFFCURVE",
"107 671 CURVE",
"129 682 OFFCURVE",
"153 690 OFFCURVE",
"179 695 CURVE SMOOTH",
"204 700 OFFCURVE",
"230 701 OFFCURVE",
"256 700 CURVE SMOOTH",
"281 699 OFFCURVE",
"306 694 OFFCURVE",
"331 687 CURVE",
"355 679 OFFCURVE",
"377 668 OFFCURVE",
"396 653 CURVE"
);
},
{
closed = 1;
nodes = (
"408 439 LINE",
"402 507 LINE",
"400 556 OFFCURVE",
"402 515 OFFCURVE",
"401 528 CURVE SMOOTH",
"400 541 OFFCURVE",
"399 553 OFFCURVE",
"398 564 CURVE",
"397 583 OFFCURVE",
"390 600 OFFCURVE",
"377 615 CURVE SMOOTH",
"364 630 OFFCURVE",
"349 642 OFFCURVE",
"334 649 CURVE",
"321 654 OFFCURVE",
"297 659 OFFCURVE",
"262 663 CURVE SMOOTH",
"227 666 OFFCURVE",
"186 657 OFFCURVE",
"137 635 CURVE",
"114 617 OFFCURVE",
"98 594 OFFCURVE",
"90 566 CURVE",
"85 541 OFFCURVE",
"80 514 OFFCURVE",
"77 486 CURVE",
"73 458 OFFCURVE",
"72 400 OFFCURVE",
"73 311 CURVE SMOOTH",
"75 224 OFFCURVE",
"78 169 OFFCURVE",
"83 145 CURVE SMOOTH",
"88 120 OFFCURVE",
"93 97 OFFCURVE",
"100 75 CURVE",
"107 62 OFFCURVE",
"120 49 OFFCURVE",
"141 36 CURVE SMOOTH",
"162 23 OFFCURVE",
"195 18 OFFCURVE",
"242 22 CURVE SMOOTH",
"288 26 OFFCURVE",
"318 33 OFFCURVE",
"333 42 CURVE SMOOTH",
"348 51 OFFCURVE",
"360 61 OFFCURVE",
"370 72 CURVE",
"376 80 OFFCURVE",
"380 87 OFFCURVE",
"383 92 CURVE SMOOTH",
"386 97 OFFCURVE",
"389 102 OFFCURVE",
"392 107 CURVE SMOOTH",
"395 112 OFFCURVE",
"397 120 OFFCURVE",
"398 129 CURVE SMOOTH",
"399 138 OFFCURVE",
"401 149 OFFCURVE",
"402 163 CURVE SMOOTH",
"403 176 OFFCURVE",
"404 202 OFFCURVE",
"406 241 CURVE SMOOTH",
"407 279 OFFCURVE",
"408 299 OFFCURVE",
"408 300 CURVE SMOOTH"
);
},
{
closed = 1;
nodes = (
"410 754 LINE",
"408 603 OFFCURVE",
"404 755 OFFCURVE",
"396 754 CURVE SMOOTH",
"388 753 OFFCURVE",
"378 751 OFFCURVE",
"365 749 CURVE",
"362 749 OFFCURVE",
"348 761 OFFCURVE",
"323 786 CURVE SMOOTH",
"297 811 OFFCURVE",
"282 826 OFFCURVE",
"277 832 CURVE",
"272 837 OFFCURVE",
"268 843 OFFCURVE",
"263 848 CURVE SMOOTH",
"258 853 OFFCURVE",
"254 856 OFFCURVE",
"251 857 CURVE",
"248 856 OFFCURVE",
"243 853 OFFCURVE",
"238 847 CURVE",
"232 841 OFFCURVE",
"227 835 OFFCURVE",
"222 830 CURVE",
"217 824 OFFCURVE",
"204 810 OFFCURVE",
"183 788 CURVE SMOOTH",
"162 765 OFFCURVE",
"150 754 OFFCURVE",
"147 753 CURVE",
"141 752 OFFCURVE",
"135 752 OFFCURVE",
"129 752 CURVE SMOOTH",
"123 752 OFFCURVE",
"110 752 OFFCURVE",
"89 753 CURVE",
"120 790 OFFCURVE",
"148 819 OFFCURVE",
"171 841 CURVE SMOOTH",
"194 863 OFFCURVE",
"220 888 OFFCURVE",
"249 915 CURVE"
);
}
);
width = 484;
}
);
leftKerningGroup = G;
note = Ocircumflex;
rightKerningGroup = O;
unicode = 00D4;
},
{
glyphname = Odieresis;
layers = (
{
hints = (
{
horizontal = 1;
place = "{700, 60}";
type = Stem;
},
{
place = "{190, 96.21}";
type = Stem;
},
{
place = "{353.6, 54.4}";
type = Stem;
},
{
place = "{146, 37.63}";
type = Stem;
}
);
layerId = "67FB5424-006C-40A0-BA73-E9B40C667CAC";
paths = (
{
closed = 1;
nodes = (
"283 418 OFFCURVE",
"429 615 OFFCURVE",
"437 592 CURVE",
"442 582 OFFCURVE",
"445 572 OFFCURVE",
"448 562 CURVE",
"450 551 OFFCURVE",
"452 541 OFFCURVE",
"453 530 CURVE SMOOTH",
"454 513 OFFCURVE",
"455 497 OFFCURVE",
"456 481 CURVE",
"456 464 OFFCURVE",
"456 448 OFFCURVE",
"455 431 CURVE SMOOTH",
"453 396 OFFCURVE",
"452 361 OFFCURVE",
"453 328 CURVE SMOOTH",
"454 295 OFFCURVE",
"453 261 OFFCURVE",
"450 226 CURVE SMOOTH",
"447 193 LINE",
"447 181 OFFCURVE",
"442 146 OFFCURVE",
"436 123 CURVE SMOOTH",
"430 99 OFFCURVE",
"421 77 OFFCURVE",
"409 58 CURVE",
"398 42 OFFCURVE",
"383 29 OFFCURVE",
"365 20 CURVE SMOOTH",
"346 10 OFFCURVE",
"327 2 OFFCURVE",
"306 -3 CURVE SMOOTH",
"287 -8 OFFCURVE",
"269 -12 OFFCURVE",
"250 -13 CURVE SMOOTH",
"231 -14 OFFCURVE",
"211 -14 OFFCURVE",
"192 -13 CURVE SMOOTH",
"178 -12 OFFCURVE",
"165 -10 OFFCURVE",
"152 -8 CURVE",
"139 -5 OFFCURVE",
"126 -1 OFFCURVE",
"115 4 CURVE SMOOTH",
"103 9 OFFCURVE",
"92 16 OFFCURVE",
"83 25 CURVE",
"74 33 OFFCURVE",
"66 44 OFFCURVE",
"60 57 CURVE",
"51 74 OFFCURVE",
"45 92 OFFCURVE",
"42 111 CURVE SMOOTH",
"39 130 OFFCURVE",
"37 149 OFFCURVE",
"36 168 CURVE SMOOTH",
"34 220 OFFCURVE",
"32 272 OFFCURVE",
"30 325 CURVE SMOOTH",
"27 377 OFFCURVE",
"28 429 OFFCURVE",
"31 482 CURVE SMOOTH",
"32 512 OFFCURVE",
"36 542 OFFCURVE",
"43 573 CURVE SMOOTH",
"50 603 OFFCURVE",
"63 630 OFFCURVE",
"84 653 CURVE",
"91 660 OFFCURVE",
"98 666 OFFCURVE",
"107 671 CURVE",
"129 682 OFFCURVE",
"153 690 OFFCURVE",
"179 695 CURVE SMOOTH",
"204 700 OFFCURVE",
"230 701 OFFCURVE",
"256 700 CURVE SMOOTH",
"281 699 OFFCURVE",
"306 694 OFFCURVE",
"331 687 CURVE",
"355 679 OFFCURVE",
"377 668 OFFCURVE",
"396 653 CURVE"
);
},
{
closed = 1;
nodes = (
"408 439 LINE",
"402 507 LINE",
"400 556 OFFCURVE",
"402 515 OFFCURVE",
"401 528 CURVE SMOOTH",
"400 541 OFFCURVE",
"399 553 OFFCURVE",
"398 564 CURVE",
"397 583 OFFCURVE",
"390 600 OFFCURVE",
"377 615 CURVE SMOOTH",
"364 630 OFFCURVE",
"349 642 OFFCURVE",
"334 649 CURVE",
"321 654 OFFCURVE",
"297 659 OFFCURVE",
"262 663 CURVE SMOOTH",
"227 666 OFFCURVE",
"186 657 OFFCURVE",
"137 635 CURVE",
"114 617 OFFCURVE",
"98 594 OFFCURVE",
"90 566 CURVE",
"85 541 OFFCURVE",
"80 514 OFFCURVE",
"77 486 CURVE",
"73 458 OFFCURVE",
"72 400 OFFCURVE",
"73 311 CURVE SMOOTH",
"75 224 OFFCURVE",
"78 169 OFFCURVE",
"83 145 CURVE SMOOTH",
"88 120 OFFCURVE",
"93 97 OFFCURVE",
"100 75 CURVE",
"107 62 OFFCURVE",
"120 49 OFFCURVE",
"141 36 CURVE SMOOTH",
"162 23 OFFCURVE",
"195 18 OFFCURVE",
"242 22 CURVE SMOOTH",
"288 26 OFFCURVE",
"318 33 OFFCURVE",
"333 42 CURVE SMOOTH",
"348 51 OFFCURVE",
"360 61 OFFCURVE",
"370 72 CURVE",
"376 80 OFFCURVE",
"380 87 OFFCURVE",
"383 92 CURVE SMOOTH",
"386 97 OFFCURVE",
"389 102 OFFCURVE",
"392 107 CURVE SMOOTH",
"395 112 OFFCURVE",
"397 120 OFFCURVE",
"398 129 CURVE SMOOTH",
"399 138 OFFCURVE",
"401 149 OFFCURVE",
"402 163 CURVE SMOOTH",
"403 176 OFFCURVE",
"404 202 OFFCURVE",
"406 241 CURVE SMOOTH",
"407 279 OFFCURVE",
"408 299 OFFCURVE",
"408 300 CURVE SMOOTH"
);
},
{
closed = 1;
nodes = (
"188 759 LINE",
"149 760 LINE",
"146 760 LINE",
"232 613 OFFCURVE",
"144 775 OFFCURVE",
"144 785 CURVE",
"143 794 OFFCURVE",
"143 804 OFFCURVE",
"144 814 CURVE",
"144 824 OFFCURVE",
"144 833 OFFCURVE",
"145 842 CURVE",
"145 851 OFFCURVE",
"145 857 OFFCURVE",
"145 861 CURVE",
"151 863 OFFCURVE",
"160 864 OFFCURVE",
"172 865 CURVE",
"183 865 OFFCURVE",
"191 864 OFFCURVE",
"196 862 CURVE",
"196 861 OFFCURVE",
"196 857 OFFCURVE",
"195 848 CURVE SMOOTH",
"194 839 OFFCURVE",
"194 829 OFFCURVE",
"193 818 CURVE SMOOTH",
"192 806 OFFCURVE",
"192 795 OFFCURVE",
"191 784 CURVE SMOOTH",
"190 773 OFFCURVE",
"190 766 OFFCURVE",
"190 761 CURVE SMOOTH",
"190 760 LINE",
"190 759 LINE"
);
},
{
closed = 1;
nodes = (
"346 759 LINE",
"307 760 LINE",
"304 760 LINE",
"265 767 OFFCURVE",
"302 775 OFFCURVE",
"302 785 CURVE",
"301 794 OFFCURVE",
"301 804 OFFCURVE",
"302 814 CURVE",
"302 824 OFFCURVE",
"302 833 OFFCURVE",
"303 842 CURVE",
"303 851 OFFCURVE",
"303 857 OFFCURVE",
"303 861 CURVE",
"309 863 OFFCURVE",
"318 864 OFFCURVE",
"330 865 CURVE",
"341 865 OFFCURVE",
"349 864 OFFCURVE",
"354 862 CURVE",
"354 861 OFFCURVE",
"354 857 OFFCURVE",
"353 848 CURVE SMOOTH",
"352 839 OFFCURVE",
"352 829 OFFCURVE",
"351 818 CURVE SMOOTH",
"350 806 OFFCURVE",
"350 795 OFFCURVE",
"349 784 CURVE SMOOTH",
"348 773 OFFCURVE",
"348 766 OFFCURVE",
"348 761 CURVE SMOOTH",
"348 760 LINE",
"348 759 LINE"
);
}
);
width = 484;
}
);
leftKerningGroup = G;
note = Odieresis;
rightKerningGroup = O;
unicode = 00D6;
},
{
glyphname = Ograve;
layers = (
{
hints = (
{
horizontal = 1;
place = "{700, 48}";
type = Stem;
},
{
place = "{353.6, 54.4}";
type = Stem;
}
);
layerId = "67FB5424-006C-40A0-BA73-E9B40C667CAC";
paths = (
{
closed = 1;
nodes = (
"283 418 OFFCURVE",
"429 615 OFFCURVE",
"437 592 CURVE",
"442 582 OFFCURVE",
"445 572 OFFCURVE",
"448 562 CURVE",
"450 551 OFFCURVE",
"452 541 OFFCURVE",
"453 530 CURVE SMOOTH",
"454 513 OFFCURVE",
"455 497 OFFCURVE",
"456 481 CURVE",
"456 464 OFFCURVE",
"456 448 OFFCURVE",
"455 431 CURVE SMOOTH",
"453 396 OFFCURVE",
"452 361 OFFCURVE",
"453 328 CURVE SMOOTH",
"454 295 OFFCURVE",
"453 261 OFFCURVE",
"450 226 CURVE SMOOTH",
"447 193 LINE",
"447 181 OFFCURVE",
"442 146 OFFCURVE",
"436 123 CURVE SMOOTH",
"430 99 OFFCURVE",
"421 77 OFFCURVE",
"409 58 CURVE",
"398 42 OFFCURVE",
"383 29 OFFCURVE",
"365 20 CURVE SMOOTH",
"346 10 OFFCURVE",
"327 2 OFFCURVE",
"306 -3 CURVE SMOOTH",
"287 -8 OFFCURVE",
"269 -12 OFFCURVE",
"250 -13 CURVE SMOOTH",
"231 -14 OFFCURVE",
"211 -14 OFFCURVE",
"192 -13 CURVE SMOOTH",
"178 -12 OFFCURVE",
"165 -10 OFFCURVE",
"152 -8 CURVE",
"139 -5 OFFCURVE",
"126 -1 OFFCURVE",
"115 4 CURVE SMOOTH",
"103 9 OFFCURVE",
"92 16 OFFCURVE",
"83 25 CURVE",
"74 33 OFFCURVE",
"66 44 OFFCURVE",
"60 57 CURVE",
"51 74 OFFCURVE",
"45 92 OFFCURVE",
"42 111 CURVE SMOOTH",
"39 130 OFFCURVE",
"37 149 OFFCURVE",
"36 168 CURVE SMOOTH",
"34 220 OFFCURVE",
"32 272 OFFCURVE",
"30 325 CURVE SMOOTH",
"27 377 OFFCURVE",
"28 429 OFFCURVE",
"31 482 CURVE SMOOTH",
"32 512 OFFCURVE",
"36 542 OFFCURVE",
"43 573 CURVE SMOOTH",
"50 603 OFFCURVE",
"63 630 OFFCURVE",
"84 653 CURVE",
"91 660 OFFCURVE",
"98 666 OFFCURVE",
"107 671 CURVE",
"129 682 OFFCURVE",
"153 690 OFFCURVE",
"179 695 CURVE SMOOTH",
"204 700 OFFCURVE",
"230 701 OFFCURVE",
"256 700 CURVE SMOOTH",
"281 699 OFFCURVE",
"306 694 OFFCURVE",
"331 687 CURVE",
"355 679 OFFCURVE",
"377 668 OFFCURVE",
"396 653 CURVE"
);
},
{
closed = 1;
nodes = (
"408 439 LINE",
"402 507 LINE",
"400 556 OFFCURVE",
"402 515 OFFCURVE",
"401 528 CURVE SMOOTH",
"400 541 OFFCURVE",
"399 553 OFFCURVE",
"398 564 CURVE",
"397 583 OFFCURVE",
"390 600 OFFCURVE",
"377 615 CURVE SMOOTH",
"364 630 OFFCURVE",
"349 642 OFFCURVE",
"334 649 CURVE",
"321 654 OFFCURVE",
"297 659 OFFCURVE",
"262 663 CURVE SMOOTH",
"227 666 OFFCURVE",
"186 657 OFFCURVE",
"137 635 CURVE",
"114 617 OFFCURVE",
"98 594 OFFCURVE",
"90 566 CURVE",
"85 541 OFFCURVE",
"80 514 OFFCURVE",
"77 486 CURVE",
"73 458 OFFCURVE",
"72 400 OFFCURVE",
"73 311 CURVE SMOOTH",
"75 224 OFFCURVE",
"78 169 OFFCURVE",
"83 145 CURVE SMOOTH",
"88 120 OFFCURVE",
"93 97 OFFCURVE",
"100 75 CURVE",
"107 62 OFFCURVE",
"120 49 OFFCURVE",
"141 36 CURVE SMOOTH",
"162 23 OFFCURVE",
"195 18 OFFCURVE",
"242 22 CURVE SMOOTH",
"288 26 OFFCURVE",
"318 33 OFFCURVE",
"333 42 CURVE SMOOTH",
"348 51 OFFCURVE",
"360 61 OFFCURVE",
"370 72 CURVE",
"376 80 OFFCURVE",
"380 87 OFFCURVE",
"383 92 CURVE SMOOTH",
"386 97 OFFCURVE",
"389 102 OFFCURVE",
"392 107 CURVE SMOOTH",
"395 112 OFFCURVE",
"397 120 OFFCURVE",
"398 129 CURVE SMOOTH",
"399 138 OFFCURVE",
"401 149 OFFCURVE",
"402 163 CURVE SMOOTH",
"403 176 OFFCURVE",
"404 202 OFFCURVE",
"406 241 CURVE SMOOTH",
"407 279 OFFCURVE",
"408 299 OFFCURVE",
"408 300 CURVE SMOOTH"
);
},
{
closed = 1;
nodes = (
"120 904 LINE",
"224 694 OFFCURVE",
"138 885 OFFCURVE",
"150 873 CURVE",
"162 860 OFFCURVE",
"175 848 OFFCURVE",
"189 835 CURVE SMOOTH",
"203 822 OFFCURVE",
"218 807 OFFCURVE",
"233 791 CURVE SMOOTH",
"248 774 OFFCURVE",
"261 761 OFFCURVE",
"272 750 CURVE",
"267 749 OFFCURVE",
"260 748 OFFCURVE",
"250 747 CURVE SMOOTH",
"240 746 OFFCURVE",
"226 746 OFFCURVE",
"207 748 CURVE",
"204 753 OFFCURVE",
"198 760 OFFCURVE",
"189 769 CURVE SMOOTH",
"180 778 OFFCURVE",
"169 788 OFFCURVE",
"158 800 CURVE",
"147 811 OFFCURVE",
"132 826 OFFCURVE",
"115 845 CURVE",
"97 863 OFFCURVE",
"87 871 OFFCURVE",
"86 868 CURVE"
);
}
);
width = 485;
}
);
leftKerningGroup = G;
note = Ograve;
rightKerningGroup = O;
unicode = 00D2;
},
{
glyphname = Oslash;
layers = (
{
hints = (
{
horizontal = 1;
place = "{-17, 21}";
target = up;
type = BottomGhost;
},
{
horizontal = 1;
place = "{15, 25}";
type = Stem;
},
{
horizontal = 1;
place = "{665, 43}";
type = Stem;
},
{
place = "{33, 42}";
type = Stem;
},
{
horizontal = 1;
place = "{57, 11.41}";
type = Stem;
}
);
layerId = "67FB5424-006C-40A0-BA73-E9B40C667CAC";
paths = (
{
closed = 1;
nodes = (
"65 38 OFFCURVE",
"100 54 OFFCURVE",
"105 49 CURVE",
"102 40 OFFCURVE",
"100 32 OFFCURVE",
"97 23 CURVE SMOOTH",
"93 12 OFFCURVE",
"90 4 OFFCURVE",
"88 -3 CURVE SMOOTH",
"86 -10 OFFCURVE",
"84 -15 OFFCURVE",
"82 -20 CURVE",
"110 -19 OFFCURVE",
"126 -18 OFFCURVE",
"130 -17 CURVE",
"131 -16 OFFCURVE",
"132 -15 OFFCURVE",
"134 -12 CURVE",
"146 22 LINE",
"147 8 OFFCURVE",
"157 17 OFFCURVE",
"163 15 CURVE SMOOTH",
"182 8 OFFCURVE",
"203 3 OFFCURVE",
"228 2 CURVE SMOOTH",
"256 0 OFFCURVE",
"281 4 OFFCURVE",
"304 15 CURVE",
"327 25 OFFCURVE",
"346 40 OFFCURVE",
"363 59 CURVE SMOOTH",
"380 78 OFFCURVE",
"394 99 OFFCURVE",
"406 124 CURVE SMOOTH",
"418 149 OFFCURVE",
"428 175 OFFCURVE",
"435 204 CURVE SMOOTH",
"442 233 OFFCURVE",
"446 261 OFFCURVE",
"449 290 CURVE SMOOTH",
"452 319 OFFCURVE",
"452 346 OFFCURVE",
"451 372 CURVE",
"452 391 OFFCURVE",
"452 411 OFFCURVE",
"451 430 CURVE",
"449 449 OFFCURVE",
"446 470 OFFCURVE",
"443 491 CURVE SMOOTH",
"439 520 OFFCURVE",
"432 547 OFFCURVE",
"421 574 CURVE SMOOTH",
"410 601 OFFCURVE",
"395 624 OFFCURVE",
"377 644 CURVE",
"374 647 OFFCURVE",
"370 651 OFFCURVE",
"367 654 CURVE",
"374 675 OFFCURVE",
"379 690 OFFCURVE",
"382 699 CURVE",
"383 703 OFFCURVE",
"384 706 OFFCURVE",
"385 709 CURVE",
"386 711 OFFCURVE",
"387 714 OFFCURVE",
"388 718 CURVE",
"379 722 OFFCURVE",
"364 725 OFFCURVE",
"341 726 CURVE",
"329 684 LINE",
"328 701 OFFCURVE",
"318 689 OFFCURVE",
"313 692 CURVE",
"289 704 OFFCURVE",
"261 709 OFFCURVE",
"230 708 CURVE SMOOTH",
"199 707 OFFCURVE",
"172 699 OFFCURVE",
"150 685 CURVE SMOOTH",
"127 670 OFFCURVE",
"107 652 OFFCURVE",
"88 629 CURVE",
"84 625 OFFCURVE",
"81 621 OFFCURVE",
"78 617 CURVE",
"65 594 OFFCURVE",
"55 571 OFFCURVE",
"48 546 CURVE SMOOTH",
"41 521 OFFCURVE",
"37 495 OFFCURVE",
"34 470 CURVE SMOOTH",
"31 444 OFFCURVE",
"29 418 OFFCURVE",
"30 392 CURVE SMOOTH",
"31 365 OFFCURVE",
"32 339 OFFCURVE",
"33 314 CURVE SMOOTH",
"34 284 OFFCURVE",
"35 254 OFFCURVE",
"37 225 CURVE SMOOTH",
"39 195 OFFCURVE",
"44 166 OFFCURVE",
"53 139 CURVE SMOOTH",
"61 112 OFFCURVE",
"73 87 OFFCURVE",
"90 66 CURVE"
);
},
{
closed = 1;
nodes = (
"133 143 OFFCURVE",
"144 151 OFFCURVE",
"122 90 CURVE",
"102 118 OFFCURVE",
"89 155 OFFCURVE",
"84 200 CURVE SMOOTH",
"78 255 OFFCURVE",
"75 299 OFFCURVE",
"75 333 CURVE SMOOTH",
"75 367 OFFCURVE",
"75 405 OFFCURVE",
"74 446 CURVE",
"76 466 OFFCURVE",
"78 482 OFFCURVE",
"80 494 CURVE SMOOTH",
"82 505 OFFCURVE",
"85 518 OFFCURVE",
"89 532 CURVE SMOOTH",
"93 546 OFFCURVE",
"105 572 OFFCURVE",
"125 610 CURVE SMOOTH",
"144 648 OFFCURVE",
"187 666 OFFCURVE",
"254 665 CURVE",
"277 660 OFFCURVE",
"298 653 OFFCURVE",
"316 642 CURVE",
"309 621 OFFCURVE",
"300 593 OFFCURVE",
"288 556 CURVE SMOOTH",
"270 500 OFFCURVE",
"257 462 OFFCURVE",
"249 441 CURVE SMOOTH",
"228 384 OFFCURVE",
"212 339 OFFCURVE",
"200 306 CURVE SMOOTH",
"188 272 OFFCURVE",
"177 242 OFFCURVE",
"168 217 CURVE"
);
},
{
closed = 1;
nodes = (
"184 99 OFFCURVE",
"182 46 OFFCURVE",
"161 57 CURVE",
"190 139 LINE",
"185 122 OFFCURVE",
"199 160 OFFCURVE",
"203 171 CURVE",
"206 182 OFFCURVE",
"210 192 OFFCURVE",
"213 202 CURVE",
"228 240 OFFCURVE",
"242 278 OFFCURVE",
"255 316 CURVE SMOOTH",
"268 354 OFFCURVE",
"281 392 OFFCURVE",
"294 431 CURVE SMOOTH",
"301 450 OFFCURVE",
"307 469 OFFCURVE",
"314 488 CURVE",
"320 507 OFFCURVE",
"326 527 OFFCURVE",
"333 546 CURVE SMOOTH",
"341 570 OFFCURVE",
"348 593 OFFCURVE",
"353 616 CURVE",
"360 602 OFFCURVE",
"367 589 OFFCURVE",
"372 578 CURVE SMOOTH",
"395 531 OFFCURVE",
"407 489 OFFCURVE",
"409 453 CURVE SMOOTH",
"410 416 OFFCURVE",
"411 388 OFFCURVE",
"411 367 CURVE",
"410 346 OFFCURVE",
"410 326 OFFCURVE",
"409 309 CURVE SMOOTH",
"408 292 OFFCURVE",
"407 276 OFFCURVE",
"406 261 CURVE SMOOTH",
"405 246 OFFCURVE",
"403 227 OFFCURVE",
"399 205 CURVE",
"394 183 OFFCURVE",
"379 151 OFFCURVE",
"353 109 CURVE SMOOTH",
"326 66 OFFCURVE",
"288 43 OFFCURVE",
"239 40 CURVE"
);
}
);
width = 479;
}
);
leftKerningGroup = G;
note = Oslash;
rightKerningGroup = O;
unicode = 00D8;
},
{
glyphname = Otilde;
layers = (
{
hints = (
{
horizontal = 1;
place = "{-13.75, 923.25}";
type = Stem;
},
{
place = "{353.6, 54.4}";
type = Stem;
}
);
layerId = "67FB5424-006C-40A0-BA73-E9B40C667CAC";
paths = (
{
closed = 1;
nodes = (
"283 418 OFFCURVE",
"429 615 OFFCURVE",
"437 592 CURVE",
"442 582 OFFCURVE",
"445 572 OFFCURVE",
"448 562 CURVE",
"450 551 OFFCURVE",
"452 541 OFFCURVE",
"453 530 CURVE SMOOTH",
"454 513 OFFCURVE",
"455 497 OFFCURVE",
"456 481 CURVE",
"456 464 OFFCURVE",
"456 448 OFFCURVE",
"455 431 CURVE SMOOTH",
"453 396 OFFCURVE",
"452 361 OFFCURVE",
"453 328 CURVE SMOOTH",
"454 295 OFFCURVE",
"453 261 OFFCURVE",
"450 226 CURVE SMOOTH",
"447 193 LINE",
"447 181 OFFCURVE",
"442 146 OFFCURVE",
"436 123 CURVE SMOOTH",
"430 99 OFFCURVE",
"421 77 OFFCURVE",
"409 58 CURVE",
"398 42 OFFCURVE",
"383 29 OFFCURVE",
"365 20 CURVE SMOOTH",
"346 10 OFFCURVE",
"327 2 OFFCURVE",
"306 -3 CURVE SMOOTH",
"287 -8 OFFCURVE",
"269 -12 OFFCURVE",
"250 -13 CURVE SMOOTH",
"231 -14 OFFCURVE",
"211 -14 OFFCURVE",
"192 -13 CURVE SMOOTH",
"178 -12 OFFCURVE",
"165 -10 OFFCURVE",
"152 -8 CURVE",
"139 -5 OFFCURVE",
"126 -1 OFFCURVE",
"115 4 CURVE SMOOTH",
"103 9 OFFCURVE",
"92 16 OFFCURVE",
"83 25 CURVE",
"74 33 OFFCURVE",
"66 44 OFFCURVE",
"60 57 CURVE",
"51 74 OFFCURVE",
"45 92 OFFCURVE",
"42 111 CURVE SMOOTH",
"39 130 OFFCURVE",
"37 149 OFFCURVE",
"36 168 CURVE SMOOTH",
"34 220 OFFCURVE",
"32 272 OFFCURVE",
"30 325 CURVE SMOOTH",
"27 377 OFFCURVE",
"28 429 OFFCURVE",
"31 482 CURVE SMOOTH",
"32 512 OFFCURVE",
"36 542 OFFCURVE",
"43 573 CURVE SMOOTH",
"50 603 OFFCURVE",
"63 630 OFFCURVE",
"84 653 CURVE",
"91 660 OFFCURVE",
"98 666 OFFCURVE",
"107 671 CURVE",
"129 682 OFFCURVE",
"153 690 OFFCURVE",
"179 695 CURVE SMOOTH",
"204 700 OFFCURVE",
"230 701 OFFCURVE",
"256 700 CURVE SMOOTH",
"281 699 OFFCURVE",
"306 694 OFFCURVE",
"331 687 CURVE",
"355 679 OFFCURVE",
"377 668 OFFCURVE",
"396 653 CURVE"
);
},
{
closed = 1;
nodes = (
"408 439 LINE",
"402 507 LINE",
"400 556 OFFCURVE",
"402 515 OFFCURVE",
"401 528 CURVE SMOOTH",
"400 541 OFFCURVE",
"399 553 OFFCURVE",
"398 564 CURVE",
"397 583 OFFCURVE",
"390 600 OFFCURVE",
"377 615 CURVE SMOOTH",
"364 630 OFFCURVE",
"349 642 OFFCURVE",
"334 649 CURVE",
"321 654 OFFCURVE",
"297 659 OFFCURVE",
"262 663 CURVE SMOOTH",
"227 666 OFFCURVE",
"186 657 OFFCURVE",
"137 635 CURVE",
"114 617 OFFCURVE",
"98 594 OFFCURVE",
"90 566 CURVE",
"85 541 OFFCURVE",
"80 514 OFFCURVE",
"77 486 CURVE",
"73 458 OFFCURVE",
"72 400 OFFCURVE",
"73 311 CURVE SMOOTH",
"75 224 OFFCURVE",
"78 169 OFFCURVE",
"83 145 CURVE SMOOTH",
"88 120 OFFCURVE",
"93 97 OFFCURVE",
"100 75 CURVE",
"107 62 OFFCURVE",
"120 49 OFFCURVE",
"141 36 CURVE SMOOTH",
"162 23 OFFCURVE",
"195 18 OFFCURVE",
"242 22 CURVE SMOOTH",
"288 26 OFFCURVE",
"318 33 OFFCURVE",
"333 42 CURVE SMOOTH",
"348 51 OFFCURVE",
"360 61 OFFCURVE",
"370 72 CURVE",
"376 80 OFFCURVE",
"380 87 OFFCURVE",
"383 92 CURVE SMOOTH",
"386 97 OFFCURVE",
"389 102 OFFCURVE",
"392 107 CURVE SMOOTH",
"395 112 OFFCURVE",
"397 120 OFFCURVE",
"398 129 CURVE SMOOTH",
"399 138 OFFCURVE",
"401 149 OFFCURVE",
"402 163 CURVE SMOOTH",
"403 176 OFFCURVE",
"404 202 OFFCURVE",
"406 241 CURVE SMOOTH",
"407 279 OFFCURVE",
"408 299 OFFCURVE",
"408 300 CURVE SMOOTH"
);
},
{
closed = 1;
nodes = (
"80 745 LINE",
"181 597 OFFCURVE",
"65 746 OFFCURVE",
"60 746 CURVE SMOOTH",
"54 746 OFFCURVE",
"46 746 OFFCURVE",
"36 745 CURVE",
"38 752 OFFCURVE",
"41 762 OFFCURVE",
"46 774 CURVE",
"50 785 OFFCURVE",
"55 797 OFFCURVE",
"60 810 CURVE SMOOTH",
"65 823 OFFCURVE",
"71 835 OFFCURVE",
"77 846 CURVE SMOOTH",
"83 857 OFFCURVE",
"89 867 OFFCURVE",
"96 874 CURVE SMOOTH",
"105 883 OFFCURVE",
"115 890 OFFCURVE",
"126 896 CURVE SMOOTH",
"137 902 OFFCURVE",
"149 906 OFFCURVE",
"161 908 CURVE SMOOTH",
"173 910 OFFCURVE",
"185 910 OFFCURVE",
"197 908 CURVE",
"209 905 OFFCURVE",
"220 900 OFFCURVE",
"231 893 CURVE",
"241 886 OFFCURVE",
"249 877 OFFCURVE",
"255 868 CURVE",
"260 859 OFFCURVE",
"268 839 OFFCURVE",
"277 809 CURVE SMOOTH",
"286 778 OFFCURVE",
"306 766 OFFCURVE",
"338 773 CURVE SMOOTH",
"370 779 OFFCURVE",
"390 795 OFFCURVE",
"397 821 CURVE SMOOTH",
"404 847 OFFCURVE",
"405 873 OFFCURVE",
"401 900 CURVE",
"438 901 LINE",
"438 900 LINE",
"428 883 OFFCURVE",
"441 866 OFFCURVE",
"438 849 CURVE SMOOTH",
"435 831 OFFCURVE",
"429 814 OFFCURVE",
"421 799 CURVE SMOOTH",
"413 784 OFFCURVE",
"403 771 OFFCURVE",
"390 760 CURVE SMOOTH",
"377 749 OFFCURVE",
"361 742 OFFCURVE",
"344 739 CURVE SMOOTH",
"323 736 OFFCURVE",
"303 737 OFFCURVE",
"284 743 CURVE SMOOTH",
"265 749 OFFCURVE",
"248 774 OFFCURVE",
"235 817 CURVE",
"224 846 OFFCURVE",
"213 863 OFFCURVE",
"202 869 CURVE SMOOTH",
"191 875 OFFCURVE",
"178 877 OFFCURVE",
"163 874 CURVE",
"138 868 OFFCURVE",
"120 854 OFFCURVE",
"108 831 CURVE SMOOTH",
"96 808 OFFCURVE",
"87 779 OFFCURVE",
"80 746 CURVE"
);
}
);
width = 484;
}
);
leftKerningGroup = G;
note = Otilde;
rightKerningGroup = O;
unicode = 00D5;
},
{
glyphname = OE;
layers = (
{
hints = (
{
horizontal = 1;
place = "{45, 280}";
type = Stem;
},
{
horizontal = 1;
place = "{367, 73.58}";
type = Stem;
},
{
place = "{28.25, 782.75}";
type = Stem;
},
{
place = "{73, 335}";
type = Stem;
}
);
layerId = "67FB5424-006C-40A0-BA73-E9B40C667CAC";
paths = (
{
closed = 1;
nodes = (
"808 39 LINE",
"806 3 LINE",
"469 3 OFFCURVE",
"673 3 OFFCURVE",
"611 1 CURVE SMOOTH",
"549 -2 OFFCURVE",
"486 0 OFFCURVE",
"421 5 CURVE",
"421 30 OFFCURVE",
"421 54 OFFCURVE",
"420 79 CURVE",
"417 72 OFFCURVE",
"413 65 OFFCURVE",
"409 58 CURVE",
"398 42 OFFCURVE",
"383 29 OFFCURVE",
"365 20 CURVE SMOOTH",
"346 10 OFFCURVE",
"327 2 OFFCURVE",
"306 -3 CURVE SMOOTH",
"287 -8 OFFCURVE",
"269 -12 OFFCURVE",
"250 -13 CURVE SMOOTH",
"231 -14 OFFCURVE",
"211 -14 OFFCURVE",
"192 -13 CURVE SMOOTH",
"178 -12 OFFCURVE",
"165 -10 OFFCURVE",
"152 -8 CURVE",
"139 -5 OFFCURVE",
"126 -1 OFFCURVE",
"115 4 CURVE SMOOTH",
"103 9 OFFCURVE",
"92 16 OFFCURVE",
"83 25 CURVE",
"74 33 OFFCURVE",
"66 44 OFFCURVE",
"60 57 CURVE",
"51 74 OFFCURVE",
"45 92 OFFCURVE",
"42 111 CURVE SMOOTH",
"39 130 OFFCURVE",
"37 149 OFFCURVE",
"36 168 CURVE SMOOTH",
"34 220 OFFCURVE",
"32 272 OFFCURVE",
"30 325 CURVE SMOOTH",
"27 377 OFFCURVE",
"28 429 OFFCURVE",
"31 482 CURVE SMOOTH",
"32 512 OFFCURVE",
"36 542 OFFCURVE",
"43 573 CURVE SMOOTH",
"50 603 OFFCURVE",
"63 630 OFFCURVE",
"84 653 CURVE",
"91 660 OFFCURVE",
"98 666 OFFCURVE",
"107 671 CURVE",
"129 682 OFFCURVE",
"153 690 OFFCURVE",
"179 695 CURVE SMOOTH",
"204 700 OFFCURVE",
"230 701 OFFCURVE",
"256 700 CURVE SMOOTH",
"281 699 OFFCURVE",
"306 694 OFFCURVE",
"331 687 CURVE",
"355 679 OFFCURVE",
"377 668 OFFCURVE",
"396 653 CURVE",
"405 645 OFFCURVE",
"412 636 OFFCURVE",
"418 627 CURVE",
"419 648 OFFCURVE",
"421 668 OFFCURVE",
"422 689 CURVE",
"448 690 OFFCURVE",
"472 692 OFFCURVE",
"494 693 CURVE SMOOTH",
"516 694 OFFCURVE",
"542 694 OFFCURVE",
"573 695 CURVE SMOOTH",
"604 696 OFFCURVE",
"633 696 OFFCURVE",
"662 697 CURVE SMOOTH",
"691 698 OFFCURVE",
"716 698 OFFCURVE",
"738 698 CURVE SMOOTH",
"760 698 OFFCURVE",
"778 698 OFFCURVE",
"791 697 CURVE SMOOTH",
"804 696 OFFCURVE",
"811 696 OFFCURVE",
"811 695 CURVE SMOOTH",
"810 657 LINE",
"789 671 OFFCURVE",
"768 659 OFFCURVE",
"749 658 CURVE SMOOTH",
"729 657 OFFCURVE",
"708 656 OFFCURVE",
"686 657 CURVE",
"664 657 OFFCURVE",
"642 657 OFFCURVE",
"620 657 CURVE SMOOTH",
"598 657 OFFCURVE",
"548 656 OFFCURVE",
"471 653 CURVE",
"468 653 LINE",
"467 652 LINE",
"469 633 OFFCURVE",
"466 585 OFFCURVE",
"462 509 CURVE SMOOTH",
"458 433 OFFCURVE",
"458 386 OFFCURVE",
"463 368 CURVE",
"464 367 LINE",
"539 367 OFFCURVE",
"587 366 OFFCURVE",
"608 366 CURVE SMOOTH",
"629 366 OFFCURVE",
"649 366 OFFCURVE",
"670 365 CURVE",
"670 364 LINE",
"671 352 OFFCURVE",
"671 342 OFFCURVE",
"671 335 CURVE SMOOTH",
"671 329 LINE",
"644 330 OFFCURVE",
"629 327 OFFCURVE",
"625 326 CURVE SMOOTH",
"621 325 OFFCURVE",
"613 324 OFFCURVE",
"602 325 CURVE SMOOTH",
"590 326 OFFCURVE",
"566 326 OFFCURVE",
"529 325 CURVE SMOOTH",
"492 324 OFFCURVE",
"471 322 OFFCURVE",
"468 319 CURVE",
"465 300 OFFCURVE",
"464 269 OFFCURVE",
"465 228 CURVE SMOOTH",
"466 186 OFFCURVE",
"465 125 OFFCURVE",
"462 46 CURVE",
"463 45 LINE",
"562 46 OFFCURVE",
"633 45 OFFCURVE",
"676 43 CURVE SMOOTH",
"719 40 OFFCURVE",
"763 40 OFFCURVE",
"808 41 CURVE"
);
},
{
closed = 1;
nodes = (
"408 439 LINE",
"402 507 LINE",
"537 352 OFFCURVE",
"402 515 OFFCURVE",
"401 528 CURVE SMOOTH",
"400 541 OFFCURVE",
"399 553 OFFCURVE",
"398 564 CURVE",
"397 583 OFFCURVE",
"390 600 OFFCURVE",
"377 615 CURVE SMOOTH",
"364 630 OFFCURVE",
"349 642 OFFCURVE",
"334 649 CURVE",
"321 654 OFFCURVE",
"297 659 OFFCURVE",
"262 663 CURVE SMOOTH",
"227 666 OFFCURVE",
"186 657 OFFCURVE",
"137 635 CURVE",
"114 617 OFFCURVE",
"98 594 OFFCURVE",
"90 566 CURVE",
"85 541 OFFCURVE",
"80 514 OFFCURVE",
"77 486 CURVE",
"73 458 OFFCURVE",
"72 400 OFFCURVE",
"73 311 CURVE SMOOTH",
"75 224 OFFCURVE",
"78 169 OFFCURVE",
"83 145 CURVE SMOOTH",
"88 120 OFFCURVE",
"93 97 OFFCURVE",
"100 75 CURVE",
"107 62 OFFCURVE",
"120 49 OFFCURVE",
"141 36 CURVE SMOOTH",
"162 23 OFFCURVE",
"195 18 OFFCURVE",
"242 22 CURVE SMOOTH",
"288 26 OFFCURVE",
"318 33 OFFCURVE",
"333 42 CURVE SMOOTH",
"348 51 OFFCURVE",
"360 61 OFFCURVE",
"370 72 CURVE",
"376 80 OFFCURVE",
"380 87 OFFCURVE",
"383 92 CURVE SMOOTH",
"386 97 OFFCURVE",
"389 102 OFFCURVE",
"392 107 CURVE SMOOTH",
"395 112 OFFCURVE",
"397 120 OFFCURVE",
"398 129 CURVE SMOOTH",
"399 138 OFFCURVE",
"401 149 OFFCURVE",
"402 163 CURVE SMOOTH",
"403 176 OFFCURVE",
"404 202 OFFCURVE",
"406 241 CURVE SMOOTH",
"407 279 OFFCURVE",
"408 299 OFFCURVE",
"408 300 CURVE SMOOTH"
);
},
{
closed = 1;
nodes = (
"583 318 OFFCURVE",
"671 328 OFFCURVE",
"672 329 CURVE",
"671 329 LINE"
);
}
);
width = 830;
}
);
leftKerningGroup = G;
note = OE;
rightKerningGroup = AE;
unicode = 0152;
},
{
glyphname = P;
layers = (
{
hints = (
{
horizontal = 1;
place = "{4.75, 709}";
type = Stem;
},
{
place = "{405.83, 37.87}";
type = Stem;
}
);
layerId = "67FB5424-006C-40A0-BA73-E9B40C667CAC";
paths = (
{
closed = 1;
nodes = (
"484 466 LINE",
"319 279 OFFCURVE",
"469 404 OFFCURVE",
"452 377 CURVE SMOOTH",
"435 350 OFFCURVE",
"413 327 OFFCURVE",
"388 308 CURVE SMOOTH",
"363 289 OFFCURVE",
"336 277 OFFCURVE",
"308 270 CURVE SMOOTH",
"279 263 OFFCURVE",
"206 261 OFFCURVE",
"88 262 CURVE",
"89 253 OFFCURVE",
"89 244 OFFCURVE",
"89 235 CURVE SMOOTH",
"89 226 OFFCURVE",
"89 213 OFFCURVE",
"89 196 CURVE SMOOTH",
"89 179 OFFCURVE",
"89 156 OFFCURVE",
"90 127 CURVE SMOOTH",
"90 98 OFFCURVE",
"91 60 OFFCURVE",
"92 11 CURVE SMOOTH",
"92 10 LINE",
"91 10 OFFCURVE",
"91 10 OFFCURVE",
"91 10 CURVE",
"90 9 OFFCURVE",
"90 9 OFFCURVE",
"89 9 CURVE",
"80 6 OFFCURVE",
"73 5 OFFCURVE",
"68 5 CURVE",
"63 4 OFFCURVE",
"55 5 OFFCURVE",
"44 6 CURVE",
"42 55 OFFCURVE",
"41 108 OFFCURVE",
"41 165 CURVE SMOOTH",
"41 222 OFFCURVE",
"41 280 OFFCURVE",
"41 340 CURVE SMOOTH",
"41 400 OFFCURVE",
"41 460 OFFCURVE",
"41 521 CURVE",
"40 582 OFFCURVE",
"39 640 OFFCURVE",
"37 695 CURVE",
"64 702 OFFCURVE",
"94 708 OFFCURVE",
"127 711 CURVE SMOOTH",
"159 714 OFFCURVE",
"191 715 OFFCURVE",
"224 712 CURVE SMOOTH",
"256 709 OFFCURVE",
"287 704 OFFCURVE",
"318 695 CURVE SMOOTH",
"349 686 OFFCURVE",
"376 672 OFFCURVE",
"400 655 CURVE",
"423 637 OFFCURVE",
"443 615 OFFCURVE",
"458 588 CURVE SMOOTH",
"473 561 OFFCURVE",
"482 529 OFFCURVE",
"484 491 CURVE"
);
},
{
closed = 1;
nodes = (
"233 365 OFFCURVE",
"141 302 OFFCURVE",
"208 303 CURVE SMOOTH",
"274 304 OFFCURVE",
"320 311 OFFCURVE",
"347 326 CURVE SMOOTH",
"373 340 OFFCURVE",
"398 365 OFFCURVE",
"421 401 CURVE SMOOTH",
"444 437 OFFCURVE",
"450 481 OFFCURVE",
"437 532 CURVE SMOOTH",
"424 583 OFFCURVE",
"405 617 OFFCURVE",
"380 633 CURVE SMOOTH",
"355 649 OFFCURVE",
"327 661 OFFCURVE",
"298 669 CURVE SMOOTH",
"273 676 OFFCURVE",
"236 679 OFFCURVE",
"187 678 CURVE SMOOTH",
"138 677 OFFCURVE",
"103 673 OFFCURVE",
"82 667 CURVE",
"83 655 OFFCURVE",
"83 642 OFFCURVE",
"83 629 CURVE",
"82 616 OFFCURVE",
"83 566 OFFCURVE",
"84 481 CURVE SMOOTH",
"85 396 OFFCURVE",
"86 336 OFFCURVE",
"87 301 CURVE"
);
}
);
width = 497;
}
);
note = P;
rightKerningGroup = P;
unicode = 0050;
},
{
glyphname = Thorn;
layers = (
{
hints = (
{
horizontal = 1;
place = "{-1, 727.13}";
type = Stem;
},
{
place = "{33.75, 409.25}";
type = Stem;
}
);
layerId = "67FB5424-006C-40A0-BA73-E9B40C667CAC";
paths = (
{
closed = 1;
nodes = (
"97 713 LINE",
"65 462 OFFCURVE",
"98 687 OFFCURVE",
"98 674 CURVE",
"97 661 OFFCURVE",
"97 623 OFFCURVE",
"96 558 CURVE",
"97 564 OFFCURVE",
"108 578 OFFCURVE",
"128 601 CURVE SMOOTH",
"147 624 OFFCURVE",
"176 635 OFFCURVE",
"214 635 CURVE SMOOTH",
"251 635 OFFCURVE",
"281 634 OFFCURVE",
"303 633 CURVE",
"324 631 OFFCURVE",
"344 627 OFFCURVE",
"362 620 CURVE",
"377 615 OFFCURVE",
"389 606 OFFCURVE",
"400 593 CURVE",
"410 580 OFFCURVE",
"418 564 OFFCURVE",
"425 546 CURVE",
"431 527 OFFCURVE",
"436 507 OFFCURVE",
"439 485 CURVE SMOOTH",
"442 463 OFFCURVE",
"443 440 OFFCURVE",
"443 417 CURVE SMOOTH",
"442 384 OFFCURVE",
"439 351 OFFCURVE",
"436 318 CURVE SMOOTH",
"433 285 OFFCURVE",
"426 256 OFFCURVE",
"415 230 CURVE SMOOTH",
"404 203 OFFCURVE",
"387 182 OFFCURVE",
"365 165 CURVE SMOOTH",
"343 148 OFFCURVE",
"313 138 OFFCURVE",
"275 135 CURVE",
"256 132 OFFCURVE",
"233 132 OFFCURVE",
"206 134 CURVE",
"179 135 OFFCURVE",
"155 145 OFFCURVE",
"135 162 CURVE SMOOTH",
"114 179 OFFCURVE",
"99 204 OFFCURVE",
"88 238 CURVE",
"92 211 OFFCURVE",
"94 168 OFFCURVE",
"93 109 CURVE SMOOTH",
"92 49 OFFCURVE",
"92 16 OFFCURVE",
"92 9 CURVE SMOOTH",
"92 6 OFFCURVE",
"92 3 OFFCURVE",
"91 2 CURVE",
"80 3 OFFCURVE",
"62 2 OFFCURVE",
"35 -1 CURVE",
"34 136 OFFCURVE",
"33 231 OFFCURVE",
"34 283 CURVE SMOOTH",
"34 334 OFFCURVE",
"35 387 OFFCURVE",
"36 441 CURVE SMOOTH",
"37 494 OFFCURVE",
"37 549 OFFCURVE",
"37 604 CURVE",
"36 659 OFFCURVE",
"37 699 OFFCURVE",
"40 724 CURVE",
"51 726 OFFCURVE",
"63 727 OFFCURVE",
"77 726 CURVE SMOOTH",
"90 725 OFFCURVE",
"97 725 OFFCURVE",
"97 724 CURVE SMOOTH"
);
},
{
closed = 1;
nodes = (
"296 497 OFFCURVE",
"396 391 OFFCURVE",
"395 406 CURVE SMOOTH",
"394 421 OFFCURVE",
"392 446 OFFCURVE",
"391 481 CURVE SMOOTH",
"390 522 OFFCURVE",
"374 549 OFFCURVE",
"343 563 CURVE SMOOTH",
"312 577 OFFCURVE",
"272 584 OFFCURVE",
"224 584 CURVE SMOOTH",
"200 584 OFFCURVE",
"175 574 OFFCURVE",
"149 553 CURVE SMOOTH",
"123 532 OFFCURVE",
"107 506 OFFCURVE",
"102 476 CURVE SMOOTH",
"97 445 OFFCURVE",
"94 411 OFFCURVE",
"94 373 CURVE SMOOTH",
"94 342 OFFCURVE",
"98 314 OFFCURVE",
"107 289 CURVE SMOOTH",
"116 264 OFFCURVE",
"132 238 OFFCURVE",
"155 213 CURVE SMOOTH",
"178 188 OFFCURVE",
"205 175 OFFCURVE",
"236 175 CURVE SMOOTH",
"261 175 OFFCURVE",
"285 178 OFFCURVE",
"306 185 CURVE",
"327 191 OFFCURVE",
"345 201 OFFCURVE",
"358 215 CURVE",
"371 228 OFFCURVE",
"380 250 OFFCURVE",
"387 281 CURVE SMOOTH",
"393 312 OFFCURVE",
"396 339 OFFCURVE",
"396 364 CURVE"
);
}
);
width = 478;
}
);
note = Thorn;
rightKerningGroup = Thorn;
unicode = 00DE;
},
{
glyphname = Q;
layers = (
{
hints = (
{
horizontal = 1;
place = "{32.25, 64.75}";
type = Stem;
},
{
place = "{395.4, 34.6}";
type = Stem;
}
);
layerId = "67FB5424-006C-40A0-BA73-E9B40C667CAC";
paths = (
{
closed = 1;
nodes = (
"309 159 OFFCURVE",
"463 231 OFFCURVE",
"463 214 CURVE",
"462 197 OFFCURVE",
"460 181 OFFCURVE",
"456 165 CURVE",
"455 157 OFFCURVE",
"454 148 OFFCURVE",
"451 139 CURVE",
"447 123 OFFCURVE",
"423 93 OFFCURVE",
"380 50 CURVE",
"385 45 OFFCURVE",
"389 40 OFFCURVE",
"393 35 CURVE SMOOTH",
"397 30 OFFCURVE",
"402 25 OFFCURVE",
"407 21 CURVE SMOOTH",
"412 17 OFFCURVE",
"402 7 OFFCURVE",
"377 -8 CURVE",
"373 -8 OFFCURVE",
"367 -4 OFFCURVE",
"359 4 CURVE",
"350 12 OFFCURVE",
"344 19 OFFCURVE",
"340 24 CURVE",
"336 19 OFFCURVE",
"330 15 OFFCURVE",
"322 11 CURVE SMOOTH",
"314 7 OFFCURVE",
"305 4 OFFCURVE",
"295 1 CURVE SMOOTH",
"285 -2 OFFCURVE",
"274 -4 OFFCURVE",
"263 -5 CURVE SMOOTH",
"252 -6 OFFCURVE",
"241 -7 OFFCURVE",
"231 -6 CURVE",
"214 -5 OFFCURVE",
"200 -3 OFFCURVE",
"187 1 CURVE",
"174 4 OFFCURVE",
"162 8 OFFCURVE",
"151 13 CURVE SMOOTH",
"140 18 OFFCURVE",
"129 23 OFFCURVE",
"120 30 CURVE",
"110 37 OFFCURVE",
"100 45 OFFCURVE",
"90 54 CURVE SMOOTH",
"73 70 OFFCURVE",
"61 88 OFFCURVE",
"53 107 CURVE",
"44 126 OFFCURVE",
"38 146 OFFCURVE",
"35 168 CURVE SMOOTH",
"32 189 OFFCURVE",
"30 212 OFFCURVE",
"30 235 CURVE SMOOTH",
"30 258 OFFCURVE",
"30 282 OFFCURVE",
"30 307 CURVE SMOOTH",
"30 330 OFFCURVE",
"30 355 OFFCURVE",
"30 382 CURVE SMOOTH",
"30 408 OFFCURVE",
"31 435 OFFCURVE",
"32 462 CURVE SMOOTH",
"33 489 OFFCURVE",
"35 515 OFFCURVE",
"38 542 CURVE SMOOTH",
"41 569 OFFCURVE",
"45 594 OFFCURVE",
"52 618 CURVE",
"57 632 OFFCURVE",
"65 645 OFFCURVE",
"77 657 CURVE",
"89 668 OFFCURVE",
"104 678 OFFCURVE",
"122 687 CURVE SMOOTH",
"139 696 OFFCURVE",
"159 702 OFFCURVE",
"181 707 CURVE SMOOTH",
"203 712 OFFCURVE",
"227 714 OFFCURVE",
"253 714 CURVE SMOOTH",
"276 714 OFFCURVE",
"297 713 OFFCURVE",
"315 712 CURVE",
"333 710 OFFCURVE",
"349 705 OFFCURVE",
"364 698 CURVE SMOOTH",
"379 691 OFFCURVE",
"392 680 OFFCURVE",
"404 665 CURVE SMOOTH",
"416 650 OFFCURVE",
"428 629 OFFCURVE",
"439 602 CURVE",
"450 566 OFFCURVE",
"458 528 OFFCURVE",
"462 488 CURVE SMOOTH",
"466 448 OFFCURVE",
"468 408 OFFCURVE",
"468 368 CURVE SMOOTH",
"468 347 OFFCURVE",
"468 330 OFFCURVE",
"468 316 CURVE",
"467 301 OFFCURVE",
"466 284 OFFCURVE",
"465 264 CURVE"
);
},
{
closed = 1;
nodes = (
"319 121 LINE",
"378 158 OFFCURVE",
"336 104 OFFCURVE",
"338 102 CURVE",
"340 99 OFFCURVE",
"343 96 OFFCURVE",
"348 92 CURVE",
"352 87 OFFCURVE",
"356 83 OFFCURVE",
"360 79 CURVE",
"371 92 OFFCURVE",
"385 111 OFFCURVE",
"402 134 CURVE SMOOTH",
"418 157 OFFCURVE",
"427 200 OFFCURVE",
"430 263 CURVE SMOOTH",
"433 326 OFFCURVE",
"431 384 OFFCURVE",
"426 438 CURVE SMOOTH",
"421 492 OFFCURVE",
"411 544 OFFCURVE",
"398 594 CURVE",
"391 617 OFFCURVE",
"381 634 OFFCURVE",
"367 646 CURVE SMOOTH",
"352 658 OFFCURVE",
"333 666 OFFCURVE",
"309 669 CURVE",
"258 672 OFFCURVE",
"216 670 OFFCURVE",
"181 663 CURVE SMOOTH",
"146 656 OFFCURVE",
"121 643 OFFCURVE",
"107 624 CURVE SMOOTH",
"92 604 OFFCURVE",
"84 580 OFFCURVE",
"82 551 CURVE SMOOTH",
"80 522 OFFCURVE",
"78 500 OFFCURVE",
"77 483 CURVE SMOOTH",
"76 469 OFFCURVE",
"75 456 OFFCURVE",
"74 445 CURVE SMOOTH",
"73 433 OFFCURVE",
"72 420 OFFCURVE",
"72 406 CURVE SMOOTH",
"72 391 OFFCURVE",
"72 378 OFFCURVE",
"72 367 CURVE",
"71 355 OFFCURVE",
"71 342 OFFCURVE",
"71 328 CURVE SMOOTH",
"71 319 OFFCURVE",
"71 308 OFFCURVE",
"70 296 CURVE SMOOTH",
"69 284 OFFCURVE",
"70 270 OFFCURVE",
"71 253 CURVE SMOOTH",
"72 236 OFFCURVE",
"74 220 OFFCURVE",
"75 205 CURVE SMOOTH",
"76 189 OFFCURVE",
"80 170 OFFCURVE",
"85 149 CURVE",
"104 90 OFFCURVE",
"139 54 OFFCURVE",
"191 42 CURVE SMOOTH",
"242 29 OFFCURVE",
"281 29 OFFCURVE",
"308 42 CURVE",
"317 49 OFFCURVE",
"322 54 OFFCURVE",
"321 57 CURVE SMOOTH",
"320 60 OFFCURVE",
"315 67 OFFCURVE",
"306 77 CURVE",
"297 86 OFFCURVE",
"292 93 OFFCURVE",
"290 97 CURVE"
);
}
);
width = 495;
}
);
leftKerningGroup = Q;
note = Q;
rightKerningGroup = Q;
unicode = 0051;
},
{
glyphname = R;
layers = (
{
hints = (
{
horizontal = 1;
place = "{0, 21}";
target = up;
type = BottomGhost;
},
{
horizontal = 1;
place = "{358.88, 311.12}";
type = Stem;
},
{
place = "{97, 71}";
type = Stem;
}
);
layerId = "67FB5424-006C-40A0-BA73-E9B40C667CAC";
paths = (
{
closed = 1;
nodes = (
"517 3 LINE",
"311 2 OFFCURVE",
"463 2 OFFCURVE",
"454 1 CURVE",
"288 152 LINE",
"97 301 LINE",
"216 180 OFFCURVE",
"97 251 OFFCURVE",
"96 214 CURVE SMOOTH",
"95 176 OFFCURVE",
"96 145 OFFCURVE",
"97 122 CURVE SMOOTH",
"98 98 OFFCURVE",
"99 75 OFFCURVE",
"100 54 CURVE SMOOTH",
"101 33 OFFCURVE",
"102 16 OFFCURVE",
"103 3 CURVE",
"84 -1 OFFCURVE",
"70 -2 OFFCURVE",
"60 -1 CURVE SMOOTH",
"50 0 OFFCURVE",
"43 1 OFFCURVE",
"40 0 CURVE",
"41 0 OFFCURVE",
"42 9 OFFCURVE",
"43 28 CURVE SMOOTH",
"44 46 OFFCURVE",
"44 70 OFFCURVE",
"44 100 CURVE SMOOTH",
"44 130 OFFCURVE",
"44 165 OFFCURVE",
"44 204 CURVE SMOOTH",
"44 243 OFFCURVE",
"44 283 OFFCURVE",
"44 325 CURVE",
"43 366 OFFCURVE",
"43 408 OFFCURVE",
"42 449 CURVE SMOOTH",
"41 490 OFFCURVE",
"40 527 OFFCURVE",
"39 562 CURVE SMOOTH",
"38 596 OFFCURVE",
"38 625 OFFCURVE",
"37 650 CURVE SMOOTH",
"36 674 OFFCURVE",
"34 690 OFFCURVE",
"33 699 CURVE",
"70 704 OFFCURVE",
"111 709 OFFCURVE",
"156 714 CURVE SMOOTH",
"201 719 OFFCURVE",
"247 718 OFFCURVE",
"296 713 CURVE",
"335 711 OFFCURVE",
"371 700 OFFCURVE",
"402 679 CURVE SMOOTH",
"433 658 OFFCURVE",
"458 633 OFFCURVE",
"475 602 CURVE SMOOTH",
"492 571 OFFCURVE",
"502 538 OFFCURVE",
"503 501 CURVE SMOOTH",
"504 464 OFFCURVE",
"494 428 OFFCURVE",
"473 393 CURVE",
"460 369 OFFCURVE",
"444 349 OFFCURVE",
"423 333 CURVE SMOOTH",
"402 317 OFFCURVE",
"317 310 OFFCURVE",
"168 312 CURVE",
"240 250 OFFCURVE",
"291 208 OFFCURVE",
"320 185 CURVE SMOOTH",
"349 162 OFFCURVE",
"414 101 OFFCURVE",
"516 3 CURVE"
);
},
{
closed = 1;
nodes = (
"471 264 OFFCURVE",
"452 421 OFFCURVE",
"460 472 CURVE SMOOTH",
"467 523 OFFCURVE",
"462 563 OFFCURVE",
"443 591 CURVE SMOOTH",
"424 619 OFFCURVE",
"402 639 OFFCURVE",
"378 652 CURVE SMOOTH",
"353 665 OFFCURVE",
"319 673 OFFCURVE",
"276 677 CURVE SMOOTH",
"233 681 OFFCURVE",
"167 679 OFFCURVE",
"80 670 CURVE",
"81 661 OFFCURVE",
"82 632 OFFCURVE",
"85 583 CURVE SMOOTH",
"87 534 OFFCURVE",
"88 503 OFFCURVE",
"88 492 CURVE SMOOTH",
"88 481 OFFCURVE",
"88 459 OFFCURVE",
"89 427 CURVE SMOOTH",
"89 394 OFFCURVE",
"90 374 OFFCURVE",
"91 367 CURVE",
"92 367 LINE",
"253 354 OFFCURVE",
"355 356 OFFCURVE",
"396 374 CURVE"
);
}
);
width = 518;
}
);
note = R;
rightKerningGroup = R;
unicode = 0052;
},
{
glyphname = S;
layers = (
{
hints = (
{
horizontal = 1;
place = "{402.04, 71.96}";
type = Stem;
},
{
place = "{11.98, 455.32}";
type = Stem;
},
{
horizontal = 1;
place = "{368, 288.56}";
type = Stem;
}
);
layerId = "67FB5424-006C-40A0-BA73-E9B40C667CAC";
paths = (
{
closed = 1;
nodes = (
"462 474 LINE",
"287 313 OFFCURVE",
"424 471 OFFCURVE",
"410 473 CURVE",
"423 557 OFFCURVE",
"403 611 OFFCURVE",
"348 635 CURVE SMOOTH",
"293 658 OFFCURVE",
"241 663 OFFCURVE",
"192 648 CURVE SMOOTH",
"143 633 OFFCURVE",
"109 611 OFFCURVE",
"91 580 CURVE SMOOTH",
"72 549 OFFCURVE",
"65 517 OFFCURVE",
"68 482 CURVE SMOOTH",
"71 447 OFFCURVE",
"84 419 OFFCURVE",
"109 399 CURVE",
"133 378 OFFCURVE",
"168 368 OFFCURVE",
"213 368 CURVE SMOOTH",
"258 367 OFFCURVE",
"299 364 OFFCURVE",
"336 358 CURVE SMOOTH",
"372 352 OFFCURVE",
"399 342 OFFCURVE",
"418 329 CURVE SMOOTH",
"437 316 OFFCURVE",
"449 301 OFFCURVE",
"456 286 CURVE",
"462 270 OFFCURVE",
"465 251 OFFCURVE",
"465 228 CURVE",
"464 205 OFFCURVE",
"462 184 OFFCURVE",
"459 165 CURVE",
"455 146 OFFCURVE",
"449 127 OFFCURVE",
"441 110 CURVE",
"433 89 OFFCURVE",
"422 72 OFFCURVE",
"409 57 CURVE SMOOTH",
"396 42 OFFCURVE",
"381 30 OFFCURVE",
"364 21 CURVE SMOOTH",
"347 12 OFFCURVE",
"328 5 OFFCURVE",
"309 1 CURVE",
"289 -4 OFFCURVE",
"269 -6 OFFCURVE",
"248 -5 CURVE SMOOTH",
"219 -4 OFFCURVE",
"190 1 OFFCURVE",
"161 11 CURVE SMOOTH",
"132 20 OFFCURVE",
"106 34 OFFCURVE",
"83 51 CURVE SMOOTH",
"60 68 OFFCURVE",
"42 90 OFFCURVE",
"29 115 CURVE SMOOTH",
"16 140 OFFCURVE",
"10 170 OFFCURVE",
"12 206 CURVE",
"31 207 OFFCURVE",
"48 207 OFFCURVE",
"63 206 CURVE",
"61 171 OFFCURVE",
"71 140 OFFCURVE",
"94 113 CURVE",
"116 85 OFFCURVE",
"156 64 OFFCURVE",
"215 50 CURVE SMOOTH",
"273 35 OFFCURVE",
"322 46 OFFCURVE",
"363 82 CURVE SMOOTH",
"403 117 OFFCURVE",
"421 163 OFFCURVE",
"418 218 CURVE",
"413 266 OFFCURVE",
"393 296 OFFCURVE",
"356 309 CURVE SMOOTH",
"319 322 OFFCURVE",
"276 326 OFFCURVE",
"225 323 CURVE SMOOTH",
"174 320 OFFCURVE",
"131 328 OFFCURVE",
"96 349 CURVE SMOOTH",
"61 369 OFFCURVE",
"39 396 OFFCURVE",
"30 430 CURVE SMOOTH",
"21 464 OFFCURVE",
"20 498 OFFCURVE",
"28 531 CURVE SMOOTH",
"36 564 OFFCURVE",
"51 595 OFFCURVE",
"74 622 CURVE SMOOTH",
"96 649 OFFCURVE",
"123 670 OFFCURVE",
"155 683 CURVE SMOOTH",
"171 690 OFFCURVE",
"189 694 OFFCURVE",
"208 697 CURVE",
"227 699 OFFCURVE",
"247 700 OFFCURVE",
"267 699 CURVE SMOOTH",
"286 698 OFFCURVE",
"306 695 OFFCURVE",
"325 690 CURVE SMOOTH",
"344 685 OFFCURVE",
"361 679 OFFCURVE",
"377 672 CURVE",
"409 655 OFFCURVE",
"434 631 OFFCURVE",
"451 598 CURVE SMOOTH",
"468 565 OFFCURVE",
"472 524 OFFCURVE",
"463 474 CURVE"
);
}
);
width = 485;
}
);
leftKerningGroup = S;
note = S;
rightKerningGroup = S;
unicode = 0053;
},
{
glyphname = Scaron;
layers = (
{
hints = (
{
horizontal = 1;
place = "{512.38, -20}";
target = down;
type = TopGhost;
},
{
horizontal = 1;
place = "{699, 115}";
type = Stem;
},
{
place = "{-35.02, 455.32}";
type = Stem;
},
{
horizontal = 1;
place = "{473, 39.38}";
type = Stem;
}
);
layerId = "67FB5424-006C-40A0-BA73-E9B40C667CAC";
paths = (
{
closed = 1;
nodes = (
"404 907 LINE",
"268 604 OFFCURVE",
"398 907 OFFCURVE",
"390 908 CURVE SMOOTH",
"382 909 OFFCURVE",
"372 910 OFFCURVE",
"359 912 CURVE",
"356 912 OFFCURVE",
"342 900 OFFCURVE",
"317 875 CURVE SMOOTH",
"291 850 OFFCURVE",
"276 835 OFFCURVE",
"271 830 CURVE",
"266 824 OFFCURVE",
"262 819 OFFCURVE",
"257 814 CURVE SMOOTH",
"252 809 OFFCURVE",
"248 805 OFFCURVE",
"245 804 CURVE",
"242 805 OFFCURVE",
"237 808 OFFCURVE",
"232 814 CURVE",
"226 820 OFFCURVE",
"221 826 OFFCURVE",
"216 832 CURVE",
"211 837 OFFCURVE",
"198 851 OFFCURVE",
"177 874 CURVE SMOOTH",
"156 896 OFFCURVE",
"144 907 OFFCURVE",
"141 908 CURVE",
"135 909 OFFCURVE",
"129 909 OFFCURVE",
"123 909 CURVE SMOOTH",
"117 909 OFFCURVE",
"104 909 OFFCURVE",
"83 908 CURVE",
"114 871 OFFCURVE",
"142 842 OFFCURVE",
"165 820 CURVE SMOOTH",
"188 798 OFFCURVE",
"214 773 OFFCURVE",
"243 746 CURVE"
);
},
{
closed = 1;
nodes = (
"415 474 LINE",
"337 562 OFFCURVE",
"377 471 OFFCURVE",
"363 473 CURVE",
"376 557 OFFCURVE",
"356 611 OFFCURVE",
"301 635 CURVE SMOOTH",
"246 658 OFFCURVE",
"194 663 OFFCURVE",
"145 648 CURVE SMOOTH",
"96 633 OFFCURVE",
"62 611 OFFCURVE",
"44 580 CURVE SMOOTH",
"25 549 OFFCURVE",
"18 517 OFFCURVE",
"21 482 CURVE SMOOTH",
"24 447 OFFCURVE",
"37 419 OFFCURVE",
"62 399 CURVE",
"86 378 OFFCURVE",
"121 368 OFFCURVE",
"166 368 CURVE SMOOTH",
"211 367 OFFCURVE",
"252 364 OFFCURVE",
"289 358 CURVE SMOOTH",
"325 352 OFFCURVE",
"352 342 OFFCURVE",
"371 329 CURVE SMOOTH",
"390 316 OFFCURVE",
"402 301 OFFCURVE",
"409 286 CURVE",
"415 270 OFFCURVE",
"418 251 OFFCURVE",
"418 228 CURVE",
"417 205 OFFCURVE",
"415 184 OFFCURVE",
"412 165 CURVE",
"408 146 OFFCURVE",
"402 127 OFFCURVE",
"394 110 CURVE",
"386 89 OFFCURVE",
"375 72 OFFCURVE",
"362 57 CURVE SMOOTH",
"349 42 OFFCURVE",
"334 30 OFFCURVE",
"317 21 CURVE SMOOTH",
"300 12 OFFCURVE",
"281 5 OFFCURVE",
"262 1 CURVE",
"242 -4 OFFCURVE",
"222 -6 OFFCURVE",
"201 -5 CURVE SMOOTH",
"172 -4 OFFCURVE",
"143 1 OFFCURVE",
"114 11 CURVE SMOOTH",
"85 20 OFFCURVE",
"59 34 OFFCURVE",
"36 51 CURVE SMOOTH",
"13 68 OFFCURVE",
"-5 90 OFFCURVE",
"-18 115 CURVE SMOOTH",
"-31 140 OFFCURVE",
"-37 170 OFFCURVE",
"-35 206 CURVE",
"-16 207 OFFCURVE",
"1 207 OFFCURVE",
"16 206 CURVE",
"14 171 OFFCURVE",
"24 140 OFFCURVE",
"47 113 CURVE",
"69 85 OFFCURVE",
"109 64 OFFCURVE",
"168 50 CURVE SMOOTH",
"226 35 OFFCURVE",
"275 46 OFFCURVE",
"316 82 CURVE SMOOTH",
"356 117 OFFCURVE",
"374 163 OFFCURVE",
"371 218 CURVE",
"366 266 OFFCURVE",
"346 296 OFFCURVE",
"309 309 CURVE SMOOTH",
"272 322 OFFCURVE",
"229 326 OFFCURVE",
"178 323 CURVE SMOOTH",
"127 320 OFFCURVE",
"84 328 OFFCURVE",
"49 349 CURVE SMOOTH",
"14 369 OFFCURVE",
"-9 396 OFFCURVE",
"-18 430 CURVE SMOOTH",
"-27 464 OFFCURVE",
"-27 498 OFFCURVE",
"-19 531 CURVE SMOOTH",
"-11 564 OFFCURVE",
"4 595 OFFCURVE",
"27 622 CURVE SMOOTH",
"49 649 OFFCURVE",
"76 670 OFFCURVE",
"108 683 CURVE SMOOTH",
"124 690 OFFCURVE",
"142 694 OFFCURVE",
"161 697 CURVE",
"180 699 OFFCURVE",
"200 700 OFFCURVE",
"220 699 CURVE SMOOTH",
"239 698 OFFCURVE",
"259 695 OFFCURVE",
"278 690 CURVE SMOOTH",
"297 685 OFFCURVE",
"314 679 OFFCURVE",
"330 672 CURVE",
"362 655 OFFCURVE",
"387 631 OFFCURVE",
"404 598 CURVE SMOOTH",
"421 565 OFFCURVE",
"425 524 OFFCURVE",
"416 474 CURVE"
);
}
);
width = 485;
}
);
leftKerningGroup = S;
note = Scaron;
rightKerningGroup = S;
unicode = 0160;
},
{
glyphname = T;
layers = (
{
hints = (
{
horizontal = 1;
place = "{600.59, 47.41}";
type = Stem;
},
{
place = "{10, 422}";
type = Stem;
}
);
layerId = "67FB5424-006C-40A0-BA73-E9B40C667CAC";
paths = (
{
closed = 1;
nodes = (
"75 470 OFFCURVE",
"148 705 OFFCURVE",
"221 706 CURVE SMOOTH",
"293 706 OFFCURVE",
"363 702 OFFCURVE",
"432 695 CURVE",
"433 679 OFFCURVE",
"432 662 OFFCURVE",
"429 645 CURVE",
"416 648 OFFCURVE",
"397 649 OFFCURVE",
"372 648 CURVE SMOOTH",
"347 647 OFFCURVE",
"306 647 OFFCURVE",
"250 647 CURVE",
"251 640 OFFCURVE",
"252 634 OFFCURVE",
"252 627 CURVE",
"251 620 OFFCURVE",
"251 591 OFFCURVE",
"251 541 CURVE SMOOTH",
"250 491 OFFCURVE",
"250 454 OFFCURVE",
"251 430 CURVE",
"251 405 OFFCURVE",
"251 374 OFFCURVE",
"252 336 CURVE SMOOTH",
"253 297 OFFCURVE",
"253 251 OFFCURVE",
"254 198 CURVE SMOOTH",
"255 144 OFFCURVE",
"256 81 OFFCURVE",
"257 8 CURVE SMOOTH",
"257 7 LINE",
"257 6 LINE",
"244 5 OFFCURVE",
"233 3 OFFCURVE",
"226 4 CURVE",
"219 4 OFFCURVE",
"208 2 OFFCURVE",
"193 -1 CURVE",
"192 2 OFFCURVE",
"192 14 OFFCURVE",
"193 35 CURVE SMOOTH",
"194 56 OFFCURVE",
"194 88 OFFCURVE",
"195 131 CURVE SMOOTH",
"195 173 OFFCURVE",
"195 227 OFFCURVE",
"194 293 CURVE SMOOTH",
"193 359 OFFCURVE",
"190 474 OFFCURVE",
"187 637 CURVE",
"187 644 LINE",
"178 642 OFFCURVE",
"165 645 OFFCURVE",
"146 646 CURVE SMOOTH",
"127 647 OFFCURVE",
"107 647 OFFCURVE",
"85 648 CURVE",
"63 648 OFFCURVE",
"47 648 OFFCURVE",
"37 648 CURVE SMOOTH",
"27 648 OFFCURVE",
"20 649 OFFCURVE",
"16 650 CURVE",
"15 653 OFFCURVE",
"13 658 OFFCURVE",
"12 666 CURVE",
"10 674 OFFCURVE",
"10 686 OFFCURVE",
"11 702 CURVE",
"11 703 OFFCURVE",
"11 703 OFFCURVE",
"11 703 CURVE SMOOTH",
"10 703 OFFCURVE",
"10 703 OFFCURVE",
"10 704 CURVE"
);
}
);
width = 443;
}
);
leftKerningGroup = T;
note = T;
rightKerningGroup = T;
unicode = 0054;
},
{
glyphname = U;
layers = (
{
hints = (
{
horizontal = 1;
place = "{-15.5, 695.5}";
type = Stem;
},
{
place = "{378.01, 41.99}";
type = Stem;
}
);
layerId = "67FB5424-006C-40A0-BA73-E9B40C667CAC";
paths = (
{
closed = 1;
nodes = (
"305 451 OFFCURVE",
"461 674 OFFCURVE",
"469 669 CURVE",
"473 584 OFFCURVE",
"474 498 OFFCURVE",
"473 411 CURVE SMOOTH",
"472 324 OFFCURVE",
"466 237 OFFCURVE",
"457 151 CURVE SMOOTH",
"452 107 OFFCURVE",
"435 70 OFFCURVE",
"407 39 CURVE SMOOTH",
"379 8 OFFCURVE",
"341 -9 OFFCURVE",
"293 -14 CURVE SMOOTH",
"265 -17 OFFCURVE",
"236 -16 OFFCURVE",
"206 -11 CURVE SMOOTH",
"176 -6 OFFCURVE",
"149 4 OFFCURVE",
"125 17 CURVE SMOOTH",
"100 30 OFFCURVE",
"81 50 OFFCURVE",
"67 79 CURVE SMOOTH",
"53 108 OFFCURVE",
"45 137 OFFCURVE",
"44 168 CURVE",
"39 242 OFFCURVE",
"38 324 OFFCURVE",
"40 413 CURVE SMOOTH",
"42 502 OFFCURVE",
"42 591 OFFCURVE",
"41 679 CURVE",
"40 680 LINE",
"41 680 LINE SMOOTH",
"51 680 OFFCURVE",
"69 680 OFFCURVE",
"94 680 CURVE",
"88 415 OFFCURVE",
"89 246 OFFCURVE",
"98 173 CURVE SMOOTH",
"106 100 OFFCURVE",
"141 55 OFFCURVE",
"202 40 CURVE SMOOTH",
"263 24 OFFCURVE",
"313 33 OFFCURVE",
"351 66 CURVE SMOOTH",
"388 99 OFFCURVE",
"410 150 OFFCURVE",
"415 219 CURVE SMOOTH",
"420 288 OFFCURVE",
"421 361 OFFCURVE",
"420 439 CURVE SMOOTH",
"418 516 OFFCURVE",
"418 594 OFFCURVE",
"420 671 CURVE"
);
}
);
width = 505;
}
);
leftKerningGroup = U;
note = U;
rightKerningGroup = U;
unicode = 0055;
},
{
glyphname = Uacute;
layers = (
{
hints = (
{
horizontal = 1;
place = "{-15.5, 922.5}";
type = Stem;
},
{
place = "{378.01, 41.99}";
type = Stem;
},
{
horizontal = 1;
place = "{751, 111.14}";
type = Stem;
}
);
layerId = "67FB5424-006C-40A0-BA73-E9B40C667CAC";
paths = (
{
closed = 1;
nodes = (
"305 451 OFFCURVE",
"461 674 OFFCURVE",
"469 669 CURVE",
"473 584 OFFCURVE",
"474 498 OFFCURVE",
"473 411 CURVE SMOOTH",
"472 324 OFFCURVE",
"466 237 OFFCURVE",
"457 151 CURVE SMOOTH",
"452 107 OFFCURVE",
"435 70 OFFCURVE",
"407 39 CURVE SMOOTH",
"379 8 OFFCURVE",
"341 -9 OFFCURVE",
"293 -14 CURVE SMOOTH",
"265 -17 OFFCURVE",
"236 -16 OFFCURVE",
"206 -11 CURVE SMOOTH",
"176 -6 OFFCURVE",
"149 4 OFFCURVE",
"125 17 CURVE SMOOTH",
"100 30 OFFCURVE",
"81 50 OFFCURVE",
"67 79 CURVE SMOOTH",
"53 108 OFFCURVE",
"45 137 OFFCURVE",
"44 168 CURVE",
"39 242 OFFCURVE",
"38 324 OFFCURVE",
"40 413 CURVE SMOOTH",
"42 502 OFFCURVE",
"42 591 OFFCURVE",
"41 679 CURVE",
"40 680 LINE",
"41 680 LINE SMOOTH",
"51 680 OFFCURVE",
"69 680 OFFCURVE",
"94 680 CURVE",
"88 415 OFFCURVE",
"89 246 OFFCURVE",
"98 173 CURVE SMOOTH",
"106 100 OFFCURVE",
"141 55 OFFCURVE",
"202 40 CURVE SMOOTH",
"263 24 OFFCURVE",
"313 33 OFFCURVE",
"351 66 CURVE SMOOTH",
"388 99 OFFCURVE",
"410 150 OFFCURVE",
"415 219 CURVE SMOOTH",
"420 288 OFFCURVE",
"421 361 OFFCURVE",
"420 439 CURVE SMOOTH",
"418 516 OFFCURVE",
"418 594 OFFCURVE",
"420 671 CURVE"
);
},
{
closed = 1;
nodes = (
"346 907 LINE",
"363 820 OFFCURVE",
"328 888 OFFCURVE",
"316 876 CURVE",
"304 863 OFFCURVE",
"291 851 OFFCURVE",
"277 838 CURVE SMOOTH",
"263 825 OFFCURVE",
"249 810 OFFCURVE",
"234 794 CURVE SMOOTH",
"219 777 OFFCURVE",
"205 764 OFFCURVE",
"194 753 CURVE",
"199 752 OFFCURVE",
"206 751 OFFCURVE",
"216 750 CURVE SMOOTH",
"226 749 OFFCURVE",
"240 749 OFFCURVE",
"259 751 CURVE",
"262 756 OFFCURVE",
"269 763 OFFCURVE",
"278 772 CURVE SMOOTH",
"287 781 OFFCURVE",
"297 791 OFFCURVE",
"308 803 CURVE",
"319 814 OFFCURVE",
"334 829 OFFCURVE",
"352 848 CURVE SMOOTH",
"369 866 OFFCURVE",
"379 874 OFFCURVE",
"380 871 CURVE"
);
}
);
width = 505;
}
);
leftKerningGroup = U;
note = Uacute;
rightKerningGroup = U;
unicode = 00DA;
},
{
glyphname = Ucircumflex;
layers = (
{
hints = (
{
horizontal = 1;
place = "{680, 73}";
type = Stem;
},
{
place = "{378.01, 41.99}";
type = Stem;
}
);
layerId = "67FB5424-006C-40A0-BA73-E9B40C667CAC";
paths = (
{
closed = 1;
nodes = (
"305 451 OFFCURVE",
"461 674 OFFCURVE",
"469 669 CURVE",
"473 584 OFFCURVE",
"474 498 OFFCURVE",
"473 411 CURVE SMOOTH",
"472 324 OFFCURVE",
"466 237 OFFCURVE",
"457 151 CURVE SMOOTH",
"452 107 OFFCURVE",
"435 70 OFFCURVE",
"407 39 CURVE SMOOTH",
"379 8 OFFCURVE",
"341 -9 OFFCURVE",
"293 -14 CURVE SMOOTH",
"265 -17 OFFCURVE",
"236 -16 OFFCURVE",
"206 -11 CURVE SMOOTH",
"176 -6 OFFCURVE",
"149 4 OFFCURVE",
"125 17 CURVE SMOOTH",
"100 30 OFFCURVE",
"81 50 OFFCURVE",
"67 79 CURVE SMOOTH",
"53 108 OFFCURVE",
"45 137 OFFCURVE",
"44 168 CURVE",
"39 242 OFFCURVE",
"38 324 OFFCURVE",
"40 413 CURVE SMOOTH",
"42 502 OFFCURVE",
"42 591 OFFCURVE",
"41 679 CURVE",
"40 680 LINE",
"41 680 LINE SMOOTH",
"51 680 OFFCURVE",
"69 680 OFFCURVE",
"94 680 CURVE",
"88 415 OFFCURVE",
"89 246 OFFCURVE",
"98 173 CURVE SMOOTH",
"106 100 OFFCURVE",
"141 55 OFFCURVE",
"202 40 CURVE SMOOTH",
"263 24 OFFCURVE",
"313 33 OFFCURVE",
"351 66 CURVE SMOOTH",
"388 99 OFFCURVE",
"410 150 OFFCURVE",
"415 219 CURVE SMOOTH",
"420 288 OFFCURVE",
"421 361 OFFCURVE",
"420 439 CURVE SMOOTH",
"418 516 OFFCURVE",
"418 594 OFFCURVE",
"420 671 CURVE"
);
},
{
closed = 1;
nodes = (
"411 754 LINE",
"413 727 OFFCURVE",
"405 755 OFFCURVE",
"397 754 CURVE SMOOTH",
"389 753 OFFCURVE",
"379 751 OFFCURVE",
"366 749 CURVE",
"363 749 OFFCURVE",
"349 761 OFFCURVE",
"324 786 CURVE SMOOTH",
"298 811 OFFCURVE",
"283 826 OFFCURVE",
"278 832 CURVE",
"273 837 OFFCURVE",
"269 843 OFFCURVE",
"264 848 CURVE SMOOTH",
"259 853 OFFCURVE",
"255 856 OFFCURVE",
"252 857 CURVE",
"249 856 OFFCURVE",
"244 853 OFFCURVE",
"239 847 CURVE",
"233 841 OFFCURVE",
"228 835 OFFCURVE",
"223 830 CURVE",
"218 824 OFFCURVE",
"205 810 OFFCURVE",
"184 788 CURVE SMOOTH",
"163 765 OFFCURVE",
"151 754 OFFCURVE",
"148 753 CURVE",
"142 752 OFFCURVE",
"136 752 OFFCURVE",
"130 752 CURVE SMOOTH",
"124 752 OFFCURVE",
"111 752 OFFCURVE",
"90 753 CURVE",
"121 790 OFFCURVE",
"149 819 OFFCURVE",
"172 841 CURVE SMOOTH",
"195 863 OFFCURVE",
"221 888 OFFCURVE",
"250 915 CURVE"
);
}
);
width = 505;
}
);
leftKerningGroup = U;
note = Ucircumflex;
rightKerningGroup = U;
unicode = 00DB;
},
{
glyphname = Udieresis;
layers = (
{
hints = (
{
horizontal = 1;
place = "{752.81, 7.19}";
type = Stem;
},
{
place = "{90.37, 61.63}";
type = Stem;
},
{
place = "{198, 96.21}";
type = Stem;
},
{
place = "{378.01, 41.99}";
type = Stem;
}
);
layerId = "67FB5424-006C-40A0-BA73-E9B40C667CAC";
paths = (
{
closed = 1;
nodes = (
"305 451 OFFCURVE",
"461 674 OFFCURVE",
"469 669 CURVE",
"473 584 OFFCURVE",
"474 498 OFFCURVE",
"473 411 CURVE SMOOTH",
"472 324 OFFCURVE",
"466 237 OFFCURVE",
"457 151 CURVE SMOOTH",
"452 107 OFFCURVE",
"435 70 OFFCURVE",
"407 39 CURVE SMOOTH",
"379 8 OFFCURVE",
"341 -9 OFFCURVE",
"293 -14 CURVE SMOOTH",
"265 -17 OFFCURVE",
"236 -16 OFFCURVE",
"206 -11 CURVE SMOOTH",
"176 -6 OFFCURVE",
"149 4 OFFCURVE",
"125 17 CURVE SMOOTH",
"100 30 OFFCURVE",
"81 50 OFFCURVE",
"67 79 CURVE SMOOTH",
"53 108 OFFCURVE",
"45 137 OFFCURVE",
"44 168 CURVE",
"39 242 OFFCURVE",
"38 324 OFFCURVE",
"40 413 CURVE SMOOTH",
"42 502 OFFCURVE",
"42 591 OFFCURVE",
"41 679 CURVE",
"40 680 LINE",
"41 680 LINE SMOOTH",
"51 680 OFFCURVE",
"69 680 OFFCURVE",
"94 680 CURVE",
"88 415 OFFCURVE",
"89 246 OFFCURVE",
"98 173 CURVE SMOOTH",
"106 100 OFFCURVE",
"141 55 OFFCURVE",
"202 40 CURVE SMOOTH",
"263 24 OFFCURVE",
"313 33 OFFCURVE",
"351 66 CURVE SMOOTH",
"388 99 OFFCURVE",
"410 150 OFFCURVE",
"415 219 CURVE SMOOTH",
"420 288 OFFCURVE",
"421 361 OFFCURVE",
"420 439 CURVE SMOOTH",
"418 516 OFFCURVE",
"418 594 OFFCURVE",
"420 671 CURVE"
);
},
{
closed = 1;
nodes = (
"196 759 LINE",
"157 760 LINE",
"154 760 LINE",
"241 737 OFFCURVE",
"152 775 OFFCURVE",
"152 785 CURVE",
"151 794 OFFCURVE",
"151 804 OFFCURVE",
"152 814 CURVE",
"152 824 OFFCURVE",
"152 833 OFFCURVE",
"153 842 CURVE",
"153 851 OFFCURVE",
"153 857 OFFCURVE",
"153 861 CURVE",
"159 863 OFFCURVE",
"168 864 OFFCURVE",
"180 865 CURVE",
"191 865 OFFCURVE",
"199 864 OFFCURVE",
"204 862 CURVE",
"204 861 OFFCURVE",
"204 857 OFFCURVE",
"203 848 CURVE SMOOTH",
"202 839 OFFCURVE",
"202 829 OFFCURVE",
"201 818 CURVE SMOOTH",
"200 806 OFFCURVE",
"200 795 OFFCURVE",
"199 784 CURVE SMOOTH",
"198 773 OFFCURVE",
"198 766 OFFCURVE",
"198 761 CURVE SMOOTH",
"198 760 LINE",
"198 759 LINE"
);
},
{
closed = 1;
nodes = (
"354 759 LINE",
"315 760 LINE",
"312 760 LINE",
"273 767 OFFCURVE",
"310 775 OFFCURVE",
"310 785 CURVE",
"309 794 OFFCURVE",
"309 804 OFFCURVE",
"310 814 CURVE",
"310 824 OFFCURVE",
"310 833 OFFCURVE",
"311 842 CURVE",
"311 851 OFFCURVE",
"311 857 OFFCURVE",
"311 861 CURVE",
"317 863 OFFCURVE",
"326 864 OFFCURVE",
"338 865 CURVE",
"349 865 OFFCURVE",
"357 864 OFFCURVE",
"362 862 CURVE",
"362 861 OFFCURVE",
"362 857 OFFCURVE",
"361 848 CURVE SMOOTH",
"360 839 OFFCURVE",
"360 829 OFFCURVE",
"359 818 CURVE SMOOTH",
"358 806 OFFCURVE",
"358 795 OFFCURVE",
"357 784 CURVE SMOOTH",
"356 773 OFFCURVE",
"356 766 OFFCURVE",
"356 761 CURVE SMOOTH",
"356 760 LINE",
"356 759 LINE"
);
}
);
width = 505;
}
);
leftKerningGroup = U;
note = Udieresis;
rightKerningGroup = U;
unicode = 00DC;
},
{
glyphname = Ugrave;
layers = (
{
hints = (
{
horizontal = 1;
place = "{-15.5, 919.5}";
type = Stem;
},
{
place = "{378.01, 41.99}";
type = Stem;
}
);
layerId = "67FB5424-006C-40A0-BA73-E9B40C667CAC";
paths = (
{
closed = 1;
nodes = (
"305 451 OFFCURVE",
"461 674 OFFCURVE",
"469 669 CURVE",
"473 584 OFFCURVE",
"474 498 OFFCURVE",
"473 411 CURVE SMOOTH",
"472 324 OFFCURVE",
"466 237 OFFCURVE",
"457 151 CURVE SMOOTH",
"452 107 OFFCURVE",
"435 70 OFFCURVE",
"407 39 CURVE SMOOTH",
"379 8 OFFCURVE",
"341 -9 OFFCURVE",
"293 -14 CURVE SMOOTH",
"265 -17 OFFCURVE",
"236 -16 OFFCURVE",
"206 -11 CURVE SMOOTH",
"176 -6 OFFCURVE",
"149 4 OFFCURVE",
"125 17 CURVE SMOOTH",
"100 30 OFFCURVE",
"81 50 OFFCURVE",
"67 79 CURVE SMOOTH",
"53 108 OFFCURVE",
"45 137 OFFCURVE",
"44 168 CURVE",
"39 242 OFFCURVE",
"38 324 OFFCURVE",
"40 413 CURVE SMOOTH",
"42 502 OFFCURVE",
"42 591 OFFCURVE",
"41 679 CURVE",
"40 680 LINE",
"41 680 LINE SMOOTH",
"51 680 OFFCURVE",
"69 680 OFFCURVE",
"94 680 CURVE",
"88 415 OFFCURVE",
"89 246 OFFCURVE",
"98 173 CURVE SMOOTH",
"106 100 OFFCURVE",
"141 55 OFFCURVE",
"202 40 CURVE SMOOTH",
"263 24 OFFCURVE",
"313 33 OFFCURVE",
"351 66 CURVE SMOOTH",
"388 99 OFFCURVE",
"410 150 OFFCURVE",
"415 219 CURVE SMOOTH",
"420 288 OFFCURVE",
"421 361 OFFCURVE",
"420 439 CURVE SMOOTH",
"418 516 OFFCURVE",
"418 594 OFFCURVE",
"420 671 CURVE"
);
},
{
closed = 1;
nodes = (
"151 904 LINE",
"249 818 OFFCURVE",
"169 885 OFFCURVE",
"181 873 CURVE",
"193 860 OFFCURVE",
"206 848 OFFCURVE",
"220 835 CURVE SMOOTH",
"234 822 OFFCURVE",
"249 807 OFFCURVE",
"264 791 CURVE SMOOTH",
"279 774 OFFCURVE",
"292 761 OFFCURVE",
"303 750 CURVE",
"298 749 OFFCURVE",
"291 748 OFFCURVE",
"281 747 CURVE SMOOTH",
"271 746 OFFCURVE",
"257 746 OFFCURVE",
"238 748 CURVE",
"235 753 OFFCURVE",
"229 760 OFFCURVE",
"220 769 CURVE SMOOTH",
"211 778 OFFCURVE",
"200 788 OFFCURVE",
"189 800 CURVE",
"178 811 OFFCURVE",
"163 826 OFFCURVE",
"146 845 CURVE",
"128 863 OFFCURVE",
"118 871 OFFCURVE",
"117 868 CURVE"
);
}
);
width = 505;
}
);
leftKerningGroup = U;
note = Ugrave;
rightKerningGroup = U;
unicode = 00D9;
},
{
glyphname = V;
layers = (
{
hints = (
{
horizontal = 1;
place = "{-1, 692.25}";
type = Stem;
},
{
place = "{16, 429}";
type = Stem;
}
);
layerId = "67FB5424-006C-40A0-BA73-E9B40C667CAC";
paths = (
{
closed = 1;
nodes = (
"263 459 OFFCURVE",
"400 688 OFFCURVE",
"411 688 CURVE",
"422 687 OFFCURVE",
"434 686 OFFCURVE",
"445 684 CURVE",
"411 542 OFFCURVE",
"379 419 OFFCURVE",
"350 316 CURVE SMOOTH",
"321 213 OFFCURVE",
"288 108 OFFCURVE",
"252 1 CURVE",
"247 1 OFFCURVE",
"238 1 OFFCURVE",
"225 -1 CURVE",
"212 -2 OFFCURVE",
"200 0 OFFCURVE",
"189 3 CURVE",
"145 138 OFFCURVE",
"112 250 OFFCURVE",
"91 339 CURVE SMOOTH",
"70 427 OFFCURVE",
"45 541 OFFCURVE",
"16 681 CURVE",
"16 682 LINE",
"20 686 OFFCURVE",
"29 690 OFFCURVE",
"42 691 CURVE SMOOTH",
"55 692 OFFCURVE",
"64 691 OFFCURVE",
"69 690 CURVE",
"72 677 OFFCURVE",
"79 635 OFFCURVE",
"90 566 CURVE SMOOTH",
"101 496 OFFCURVE",
"119 418 OFFCURVE",
"143 331 CURVE SMOOTH",
"166 244 OFFCURVE",
"193 154 OFFCURVE",
"224 63 CURVE",
"268 210 OFFCURVE",
"325 418 OFFCURVE",
"394 686 CURVE"
);
}
);
width = 440;
}
);
leftKerningGroup = V;
note = V;
rightKerningGroup = V;
unicode = 0056;
},
{
glyphname = W;
layers = (
{
hints = (
{
horizontal = 1;
place = "{2, 698}";
type = Stem;
},
{
place = "{23, 423}";
type = Stem;
}
);
layerId = "67FB5424-006C-40A0-BA73-E9B40C667CAC";
paths = (
{
closed = 1;
nodes = (
"446 696 LINE",
"287 349 OFFCURVE",
"425 466 OFFCURVE",
"413 351 CURVE SMOOTH",
"400 236 OFFCURVE",
"389 121 OFFCURVE",
"380 5 CURVE",
"375 4 OFFCURVE",
"370 3 OFFCURVE",
"365 3 CURVE SMOOTH",
"359 3 OFFCURVE",
"353 3 OFFCURVE",
"346 3 CURVE SMOOTH",
"310 3 LINE",
"298 3 LINE",
"299 41 OFFCURVE",
"272 79 OFFCURVE",
"265 117 CURVE SMOOTH",
"257 155 OFFCURVE",
"248 205 OFFCURVE",
"239 266 CURVE",
"238 266 LINE",
"232 219 OFFCURVE",
"224 175 OFFCURVE",
"216 132 CURVE SMOOTH",
"208 89 OFFCURVE",
"202 60 OFFCURVE",
"198 44 CURVE SMOOTH",
"194 28 OFFCURVE",
"189 16 OFFCURVE",
"184 7 CURVE",
"175 6 OFFCURVE",
"167 5 OFFCURVE",
"160 4 CURVE SMOOTH",
"153 3 OFFCURVE",
"144 2 OFFCURVE",
"135 2 CURVE SMOOTH",
"124 2 OFFCURVE",
"112 3 OFFCURVE",
"97 5 CURVE",
"96 5 LINE",
"80 119 OFFCURVE",
"64 234 OFFCURVE",
"49 349 CURVE SMOOTH",
"34 464 OFFCURVE",
"25 580 OFFCURVE",
"23 695 CURVE",
"23 696 LINE",
"33 697 OFFCURVE",
"43 698 OFFCURVE",
"54 699 CURVE SMOOTH",
"64 700 OFFCURVE",
"72 700 OFFCURVE",
"79 699 CURVE",
"82 670 OFFCURVE",
"85 616 OFFCURVE",
"88 539 CURVE SMOOTH",
"91 461 OFFCURVE",
"99 367 OFFCURVE",
"112 258 CURVE SMOOTH",
"125 149 OFFCURVE",
"135 81 OFFCURVE",
"143 54 CURVE",
"151 82 OFFCURVE",
"159 110 OFFCURVE",
"166 137 CURVE SMOOTH",
"173 164 OFFCURVE",
"192 256 OFFCURVE",
"224 413 CURVE",
"225 414 OFFCURVE",
"225 415 OFFCURVE",
"225 416 CURVE SMOOTH",
"225 417 OFFCURVE",
"234 417 OFFCURVE",
"251 417 CURVE",
"254 410 OFFCURVE",
"264 360 OFFCURVE",
"283 267 CURVE SMOOTH",
"302 174 OFFCURVE",
"314 118 OFFCURVE",
"319 99 CURVE SMOOTH",
"324 79 OFFCURVE",
"328 64 OFFCURVE",
"332 54 CURVE",
"335 81 OFFCURVE",
"341 144 OFFCURVE",
"350 244 CURVE SMOOTH",
"359 344 OFFCURVE",
"366 415 OFFCURVE",
"369 456 CURVE SMOOTH",
"372 497 OFFCURVE",
"374 540 OFFCURVE",
"377 585 CURVE SMOOTH",
"380 629 OFFCURVE",
"382 666 OFFCURVE",
"385 695 CURVE",
"385 696 LINE",
"396 698 OFFCURVE",
"404 700 OFFCURVE",
"407 700 CURVE SMOOTH",
"410 700 OFFCURVE",
"423 699 OFFCURVE",
"445 697 CURVE"
);
}
);
width = 465;
}
);
leftKerningGroup = W;
note = W;
rightKerningGroup = W;
unicode = 0057;
},
{
glyphname = X;
layers = (
{
hints = (
{
horizontal = 1;
place = "{596.1, 102.9}";
type = Stem;
},
{
place = "{-1, 441}";
type = Stem;
}
);
layerId = "67FB5424-006C-40A0-BA73-E9B40C667CAC";
paths = (
{
closed = 1;
nodes = (
"293 466 OFFCURVE",
"440 699 OFFCURVE",
"440 699 CURVE SMOOTH",
"439 699 OFFCURVE",
"439 699 OFFCURVE",
"439 698 CURVE",
"430 669 OFFCURVE",
"419 641 OFFCURVE",
"407 615 CURVE SMOOTH",
"394 588 OFFCURVE",
"352 505 OFFCURVE",
"279 366 CURVE",
"308 310 OFFCURVE",
"334 256 OFFCURVE",
"356 205 CURVE SMOOTH",
"377 154 OFFCURVE",
"392 114 OFFCURVE",
"401 86 CURVE SMOOTH",
"410 57 OFFCURVE",
"417 29 OFFCURVE",
"424 2 CURVE",
"409 1 OFFCURVE",
"394 0 OFFCURVE",
"379 -1 CURVE",
"310 182 OFFCURVE",
"261 296 OFFCURVE",
"231 339 CURVE",
"175 220 OFFCURVE",
"137 143 OFFCURVE",
"116 108 CURVE SMOOTH",
"95 72 OFFCURVE",
"76 37 OFFCURVE",
"57 2 CURVE",
"58 5 OFFCURVE",
"54 5 OFFCURVE",
"43 2 CURVE SMOOTH",
"32 -1 OFFCURVE",
"19 -1 OFFCURVE",
"6 1 CURVE",
"13 26 OFFCURVE",
"26 53 OFFCURVE",
"46 83 CURVE SMOOTH",
"65 112 OFFCURVE",
"111 207 OFFCURVE",
"183 367 CURVE",
"139 436 OFFCURVE",
"78 544 OFFCURVE",
"-1 689 CURVE",
"27 690 OFFCURVE",
"45 690 OFFCURVE",
"52 690 CURVE SMOOTH",
"59 690 OFFCURVE",
"64 688 OFFCURVE",
"66 685 CURVE",
"70 671 OFFCURVE",
"88 636 OFFCURVE",
"121 579 CURVE SMOOTH",
"154 522 OFFCURVE",
"191 463 OFFCURVE",
"233 402 CURVE",
"298 511 OFFCURVE",
"351 610 OFFCURVE",
"392 698 CURVE",
"392 699 LINE",
"403 700 OFFCURVE",
"419 701 OFFCURVE",
"439 700 CURVE",
"440 700 LINE"
);
}
);
width = 436;
}
);
leftKerningGroup = X;
note = X;
rightKerningGroup = X;
unicode = 0058;
},
{
glyphname = Y;
layers = (
{
hints = (
{
horizontal = 1;
place = "{-0.75, 695.75}";
type = Stem;
},
{
place = "{16, 434}";
type = Stem;
}
);
layerId = "67FB5424-006C-40A0-BA73-E9B40C667CAC";
paths = (
{
closed = 1;
nodes = (
"450 692 LINE",
"281 401 OFFCURVE",
"409 573 OFFCURVE",
"384 516 CURVE SMOOTH",
"359 459 OFFCURVE",
"332 402 OFFCURVE",
"305 345 CURVE SMOOTH",
"278 288 OFFCURVE",
"253 233 OFFCURVE",
"232 181 CURVE SMOOTH",
"210 128 OFFCURVE",
"185 68 OFFCURVE",
"156 0 CURVE",
"152 1 OFFCURVE",
"143 1 OFFCURVE",
"130 0 CURVE SMOOTH",
"116 -1 OFFCURVE",
"107 -1 OFFCURVE",
"103 0 CURVE",
"101 0 LINE",
"156 130 OFFCURVE",
"196 229 OFFCURVE",
"223 298 CURVE",
"193 350 OFFCURVE",
"171 388 OFFCURVE",
"157 413 CURVE",
"142 437 OFFCURVE",
"126 464 OFFCURVE",
"109 494 CURVE SMOOTH",
"92 523 OFFCURVE",
"74 557 OFFCURVE",
"55 594 CURVE SMOOTH",
"36 631 OFFCURVE",
"23 664 OFFCURVE",
"16 692 CURVE",
"29 692 OFFCURVE",
"39 693 OFFCURVE",
"46 694 CURVE SMOOTH",
"53 695 OFFCURVE",
"58 694 OFFCURVE",
"61 693 CURVE",
"94 615 OFFCURVE",
"128 548 OFFCURVE",
"162 492 CURVE SMOOTH",
"196 436 OFFCURVE",
"227 388 OFFCURVE",
"255 347 CURVE",
"300 446 OFFCURVE",
"335 525 OFFCURVE",
"359 583 CURVE SMOOTH",
"383 641 OFFCURVE",
"398 677 OFFCURVE",
"404 692 CURVE",
"413 693 OFFCURVE",
"418 694 OFFCURVE",
"421 695 CURVE",
"423 695 OFFCURVE",
"427 695 OFFCURVE",
"434 695 CURVE",
"441 694 OFFCURVE",
"446 694 OFFCURVE",
"450 693 CURVE"
);
}
);
width = 435;
}
);
leftKerningGroup = Y;
note = Y;
rightKerningGroup = Y;
unicode = 0059;
},
{
glyphname = Yacute;
layers = (
{
hints = (
{
horizontal = 1;
place = "{-0.75, 904.75}";
type = Stem;
},
{
place = "{16, 434}";
type = Stem;
}
);
layerId = "67FB5424-006C-40A0-BA73-E9B40C667CAC";
paths = (
{
closed = 1;
nodes = (
"331 904 LINE",
"213 594 OFFCURVE",
"313 885 OFFCURVE",
"301 873 CURVE",
"289 860 OFFCURVE",
"276 848 OFFCURVE",
"262 835 CURVE SMOOTH",
"248 822 OFFCURVE",
"234 807 OFFCURVE",
"219 791 CURVE SMOOTH",
"204 774 OFFCURVE",
"190 761 OFFCURVE",
"179 750 CURVE",
"184 749 OFFCURVE",
"191 748 OFFCURVE",
"201 747 CURVE SMOOTH",
"211 746 OFFCURVE",
"225 746 OFFCURVE",
"244 748 CURVE",
"247 753 OFFCURVE",
"254 760 OFFCURVE",
"263 769 CURVE SMOOTH",
"272 778 OFFCURVE",
"282 788 OFFCURVE",
"293 800 CURVE",
"304 811 OFFCURVE",
"319 826 OFFCURVE",
"337 845 CURVE SMOOTH",
"354 863 OFFCURVE",
"364 871 OFFCURVE",
"365 868 CURVE"
);
},
{
closed = 1;
nodes = (
"450 692 LINE",
"403 691 OFFCURVE",
"409 573 OFFCURVE",
"384 516 CURVE SMOOTH",
"359 459 OFFCURVE",
"332 402 OFFCURVE",
"305 345 CURVE SMOOTH",
"278 288 OFFCURVE",
"253 233 OFFCURVE",
"232 181 CURVE SMOOTH",
"210 128 OFFCURVE",
"185 68 OFFCURVE",
"156 0 CURVE",
"152 1 OFFCURVE",
"143 1 OFFCURVE",
"130 0 CURVE SMOOTH",
"116 -1 OFFCURVE",
"107 -1 OFFCURVE",
"103 0 CURVE",
"101 0 LINE",
"156 130 OFFCURVE",
"196 229 OFFCURVE",
"223 298 CURVE",
"193 350 OFFCURVE",
"171 388 OFFCURVE",
"157 413 CURVE",
"142 437 OFFCURVE",
"126 464 OFFCURVE",
"109 494 CURVE SMOOTH",
"92 523 OFFCURVE",
"74 557 OFFCURVE",
"55 594 CURVE SMOOTH",
"36 631 OFFCURVE",
"23 664 OFFCURVE",
"16 692 CURVE",
"29 692 OFFCURVE",
"39 693 OFFCURVE",
"46 694 CURVE SMOOTH",
"53 695 OFFCURVE",
"58 694 OFFCURVE",
"61 693 CURVE",
"94 615 OFFCURVE",
"128 548 OFFCURVE",
"162 492 CURVE SMOOTH",
"196 436 OFFCURVE",
"227 388 OFFCURVE",
"255 347 CURVE",
"300 446 OFFCURVE",
"335 525 OFFCURVE",
"359 583 CURVE SMOOTH",
"383 641 OFFCURVE",
"398 677 OFFCURVE",
"404 692 CURVE",
"413 693 OFFCURVE",
"418 694 OFFCURVE",
"421 695 CURVE",
"423 695 OFFCURVE",
"427 695 OFFCURVE",
"434 695 CURVE",
"441 694 OFFCURVE",
"446 694 OFFCURVE",
"450 693 CURVE"
);
}
);
width = 434;
}
);
leftKerningGroup = Y;
note = Yacute;
rightKerningGroup = Y;
unicode = 00DD;
},
{
glyphname = Ydieresis;
layers = (
{
hints = (
{
horizontal = 1;
place = "{-0.75, 865.75}";
type = Stem;
},
{
place = "{161, 96.21}";
type = Stem;
},
{
horizontal = 1;
place = "{694, 66}";
type = Stem;
}
);
layerId = "67FB5424-006C-40A0-BA73-E9B40C667CAC";
paths = (
{
closed = 1;
nodes = (
"450 692 LINE",
"281 401 OFFCURVE",
"409 573 OFFCURVE",
"384 516 CURVE SMOOTH",
"359 459 OFFCURVE",
"332 402 OFFCURVE",
"305 345 CURVE SMOOTH",
"278 288 OFFCURVE",
"253 233 OFFCURVE",
"232 181 CURVE SMOOTH",
"210 128 OFFCURVE",
"185 68 OFFCURVE",
"156 0 CURVE",
"152 1 OFFCURVE",
"143 1 OFFCURVE",
"130 0 CURVE SMOOTH",
"116 -1 OFFCURVE",
"107 -1 OFFCURVE",
"103 0 CURVE",
"101 0 LINE",
"156 130 OFFCURVE",
"196 229 OFFCURVE",
"223 298 CURVE",
"193 350 OFFCURVE",
"171 388 OFFCURVE",
"157 413 CURVE",
"142 437 OFFCURVE",
"126 464 OFFCURVE",
"109 494 CURVE SMOOTH",
"92 523 OFFCURVE",
"74 557 OFFCURVE",
"55 594 CURVE SMOOTH",
"36 631 OFFCURVE",
"23 664 OFFCURVE",
"16 692 CURVE",
"29 692 OFFCURVE",
"39 693 OFFCURVE",
"46 694 CURVE SMOOTH",
"53 695 OFFCURVE",
"58 694 OFFCURVE",
"61 693 CURVE",
"94 615 OFFCURVE",
"128 548 OFFCURVE",
"162 492 CURVE SMOOTH",
"196 436 OFFCURVE",
"227 388 OFFCURVE",
"255 347 CURVE",
"300 446 OFFCURVE",
"335 525 OFFCURVE",
"359 583 CURVE SMOOTH",
"383 641 OFFCURVE",
"398 677 OFFCURVE",
"404 692 CURVE",
"413 693 OFFCURVE",
"418 694 OFFCURVE",
"421 695 CURVE",
"423 695 OFFCURVE",
"427 695 OFFCURVE",
"434 695 CURVE",
"441 694 OFFCURVE",
"446 694 OFFCURVE",
"450 693 CURVE"
);
},
{
closed = 1;
nodes = (
"159 759 LINE",
"120 760 LINE",
"117 760 LINE",
"227 744 OFFCURVE",
"115 775 OFFCURVE",
"115 785 CURVE",
"114 794 OFFCURVE",
"114 804 OFFCURVE",
"115 814 CURVE",
"115 824 OFFCURVE",
"115 833 OFFCURVE",
"116 842 CURVE",
"116 851 OFFCURVE",
"116 857 OFFCURVE",
"116 861 CURVE",
"122 863 OFFCURVE",
"131 864 OFFCURVE",
"143 865 CURVE",
"154 865 OFFCURVE",
"162 864 OFFCURVE",
"167 862 CURVE",
"167 861 OFFCURVE",
"167 857 OFFCURVE",
"166 848 CURVE SMOOTH",
"165 839 OFFCURVE",
"165 829 OFFCURVE",
"164 818 CURVE SMOOTH",
"163 806 OFFCURVE",
"163 795 OFFCURVE",
"162 784 CURVE SMOOTH",
"161 773 OFFCURVE",
"161 766 OFFCURVE",
"161 761 CURVE SMOOTH",
"161 760 LINE",
"161 759 LINE"
);
},
{
closed = 1;
nodes = (
"317 759 LINE",
"278 760 LINE",
"275 760 LINE",
"236 767 OFFCURVE",
"273 775 OFFCURVE",
"273 785 CURVE",
"272 794 OFFCURVE",
"272 804 OFFCURVE",
"273 814 CURVE",
"273 824 OFFCURVE",
"273 833 OFFCURVE",
"274 842 CURVE",
"274 851 OFFCURVE",
"274 857 OFFCURVE",
"274 861 CURVE",
"280 863 OFFCURVE",
"289 864 OFFCURVE",
"301 865 CURVE",
"312 865 OFFCURVE",
"320 864 OFFCURVE",
"325 862 CURVE",
"325 861 OFFCURVE",
"325 857 OFFCURVE",
"324 848 CURVE SMOOTH",
"323 839 OFFCURVE",
"323 829 OFFCURVE",
"322 818 CURVE SMOOTH",
"321 806 OFFCURVE",
"321 795 OFFCURVE",
"320 784 CURVE SMOOTH",
"319 773 OFFCURVE",
"319 766 OFFCURVE",
"319 761 CURVE SMOOTH",
"319 760 LINE",
"319 759 LINE"
);
}
);
width = 434;
}
);
leftKerningGroup = Y;
note = Ydieresis;
rightKerningGroup = Y;
unicode = 0178;
},
{
glyphname = Z;
layers = (
{
hints = (
{
horizontal = 1;
place = "{567.94, 87.06}";
type = Stem;
},
{
place = "{13, 441}";
type = Stem;
}
);
layerId = "67FB5424-006C-40A0-BA73-E9B40C667CAC";
paths = (
{
closed = 1;
nodes = (
"304 437 OFFCURVE",
"455 653 OFFCURVE",
"454 650 CURVE",
"325 419 OFFCURVE",
"204 217 OFFCURVE",
"93 46 CURVE",
"124 45 OFFCURVE",
"150 46 OFFCURVE",
"169 47 CURVE SMOOTH",
"188 48 OFFCURVE",
"206 49 OFFCURVE",
"224 50 CURVE",
"241 50 OFFCURVE",
"260 50 OFFCURVE",
"280 51 CURVE",
"299 51 OFFCURVE",
"354 51 OFFCURVE",
"445 50 CURVE",
"446 41 OFFCURVE",
"445 24 OFFCURVE",
"443 0 CURVE",
"443 -2 LINE",
"380 2 OFFCURVE",
"314 3 OFFCURVE",
"245 4 CURVE SMOOTH",
"176 5 OFFCURVE",
"105 3 OFFCURVE",
"34 -1 CURVE",
"36 11 OFFCURVE",
"36 27 OFFCURVE",
"35 48 CURVE",
"83 121 OFFCURVE",
"130 195 OFFCURVE",
"177 270 CURVE SMOOTH",
"224 345 OFFCURVE",
"269 420 OFFCURVE",
"313 497 CURVE SMOOTH",
"357 573 OFFCURVE",
"387 625 OFFCURVE",
"403 652 CURVE",
"391 654 OFFCURVE",
"348 655 OFFCURVE",
"275 655 CURVE SMOOTH",
"202 654 OFFCURVE",
"153 655 OFFCURVE",
"130 656 CURVE SMOOTH",
"107 657 OFFCURVE",
"85 657 OFFCURVE",
"64 656 CURVE SMOOTH",
"43 655 OFFCURVE",
"26 654 OFFCURVE",
"14 654 CURVE",
"15 661 OFFCURVE",
"14 673 OFFCURVE",
"13 690 CURVE",
"82 697 OFFCURVE",
"153 699 OFFCURVE",
"226 698 CURVE SMOOTH",
"299 696 OFFCURVE",
"374 695 OFFCURVE",
"451 694 CURVE"
);
}
);
width = 474;
}
);
leftKerningGroup = Z;
note = Z;
rightKerningGroup = Z;
unicode = 005A;
},
{
glyphname = Zcaron;
layers = (
{
hints = (
{
horizontal = 1;
place = "{694, 120}";
type = Stem;
},
{
place = "{-2, 441}";
type = Stem;
}
);
layerId = "67FB5424-006C-40A0-BA73-E9B40C667CAC";
paths = (
{
closed = 1;
nodes = (
"404 907 LINE",
"268 604 OFFCURVE",
"398 907 OFFCURVE",
"390 908 CURVE SMOOTH",
"382 909 OFFCURVE",
"372 910 OFFCURVE",
"359 912 CURVE",
"356 912 OFFCURVE",
"342 900 OFFCURVE",
"317 875 CURVE SMOOTH",
"291 850 OFFCURVE",
"276 835 OFFCURVE",
"271 830 CURVE",
"266 824 OFFCURVE",
"262 819 OFFCURVE",
"257 814 CURVE SMOOTH",
"252 809 OFFCURVE",
"248 805 OFFCURVE",
"245 804 CURVE",
"242 805 OFFCURVE",
"237 808 OFFCURVE",
"232 814 CURVE",
"226 820 OFFCURVE",
"221 826 OFFCURVE",
"216 832 CURVE",
"211 837 OFFCURVE",
"198 851 OFFCURVE",
"177 874 CURVE SMOOTH",
"156 896 OFFCURVE",
"144 907 OFFCURVE",
"141 908 CURVE",
"135 909 OFFCURVE",
"129 909 OFFCURVE",
"123 909 CURVE SMOOTH",
"117 909 OFFCURVE",
"104 909 OFFCURVE",
"83 908 CURVE",
"114 871 OFFCURVE",
"142 842 OFFCURVE",
"165 820 CURVE SMOOTH",
"188 798 OFFCURVE",
"214 773 OFFCURVE",
"243 746 CURVE"
);
},
{
closed = 1;
nodes = (
"375 685 OFFCURVE",
"440 653 OFFCURVE",
"439 650 CURVE",
"310 419 OFFCURVE",
"189 217 OFFCURVE",
"78 46 CURVE",
"109 45 OFFCURVE",
"135 46 OFFCURVE",
"154 47 CURVE SMOOTH",
"173 48 OFFCURVE",
"191 49 OFFCURVE",
"209 50 CURVE",
"226 50 OFFCURVE",
"245 50 OFFCURVE",
"265 51 CURVE",
"284 51 OFFCURVE",
"339 51 OFFCURVE",
"430 50 CURVE",
"431 41 OFFCURVE",
"430 24 OFFCURVE",
"428 0 CURVE",
"428 -2 LINE",
"365 2 OFFCURVE",
"299 3 OFFCURVE",
"230 4 CURVE SMOOTH",
"161 5 OFFCURVE",
"90 3 OFFCURVE",
"19 -1 CURVE",
"21 11 OFFCURVE",
"21 27 OFFCURVE",
"20 48 CURVE",
"68 121 OFFCURVE",
"115 195 OFFCURVE",
"162 270 CURVE SMOOTH",
"209 345 OFFCURVE",
"254 420 OFFCURVE",
"298 497 CURVE SMOOTH",
"342 573 OFFCURVE",
"372 625 OFFCURVE",
"388 652 CURVE",
"376 654 OFFCURVE",
"333 655 OFFCURVE",
"260 655 CURVE SMOOTH",
"187 654 OFFCURVE",
"138 655 OFFCURVE",
"115 656 CURVE SMOOTH",
"92 657 OFFCURVE",
"70 657 OFFCURVE",
"49 656 CURVE SMOOTH",
"28 655 OFFCURVE",
"11 654 OFFCURVE",
"-1 654 CURVE",
"0 661 OFFCURVE",
"-1 673 OFFCURVE",
"-2 690 CURVE",
"67 697 OFFCURVE",
"138 699 OFFCURVE",
"211 698 CURVE SMOOTH",
"284 696 OFFCURVE",
"359 695 OFFCURVE",
"436 694 CURVE"
);
}
);
width = 474;
}
);
leftKerningGroup = Z;
note = Zcaron;
rightKerningGroup = Z;
unicode = 017D;
},
{
glyphname = a;
layers = (
{
hints = (
{
horizontal = 1;
place = "{425.73, 39.65}";
type = Stem;
},
{
place = "{19, 424.5}";
type = Stem;
}
);
layerId = "67FB5424-006C-40A0-BA73-E9B40C667CAC";
paths = (
{
closed = 1;
nodes = (
"259 333 OFFCURVE",
"391 500 OFFCURVE",
"396 501 CURVE",
"400 501 OFFCURVE",
"403 501 OFFCURVE",
"405 501 CURVE",
"406 500 OFFCURVE",
"418 499 OFFCURVE",
"439 498 CURVE",
"440 494 OFFCURVE",
"440 490 OFFCURVE",
"441 486 CURVE",
"441 482 OFFCURVE",
"441 478 OFFCURVE",
"441 474 CURVE SMOOTH",
"441 464 LINE SMOOTH",
"439 395 OFFCURVE",
"439 321 OFFCURVE",
"442 252 CURVE SMOOTH",
"445 182 OFFCURVE",
"444 111 OFFCURVE",
"439 40 CURVE",
"439 31 OFFCURVE",
"439 23 OFFCURVE",
"439 14 CURVE",
"438 5 OFFCURVE",
"434 0 OFFCURVE",
"426 -1 CURVE",
"407 -1 OFFCURVE",
"398 -1 OFFCURVE",
"399 -2 CURVE",
"394 -1 OFFCURVE",
"392 3 OFFCURVE",
"392 10 CURVE",
"391 17 OFFCURVE",
"391 24 OFFCURVE",
"391 33 CURVE SMOOTH",
"391 41 OFFCURVE",
"391 48 OFFCURVE",
"391 55 CURVE",
"369 20 OFFCURVE",
"332 1 OFFCURVE",
"280 0 CURVE SMOOTH",
"227 -1 OFFCURVE",
"189 -2 OFFCURVE",
"166 -2 CURVE SMOOTH",
"140 -2 OFFCURVE",
"118 7 OFFCURVE",
"100 25 CURVE SMOOTH",
"81 43 OFFCURVE",
"66 65 OFFCURVE",
"54 92 CURVE SMOOTH",
"42 119 OFFCURVE",
"33 148 OFFCURVE",
"28 179 CURVE SMOOTH",
"22 210 OFFCURVE",
"19 239 OFFCURVE",
"19 266 CURVE SMOOTH",
"19 299 OFFCURVE",
"23 330 OFFCURVE",
"32 358 CURVE SMOOTH",
"41 386 OFFCURVE",
"53 410 OFFCURVE",
"68 431 CURVE SMOOTH",
"83 451 OFFCURVE",
"100 467 OFFCURVE",
"121 479 CURVE",
"142 490 OFFCURVE",
"164 496 OFFCURVE",
"187 497 CURVE SMOOTH",
"204 498 OFFCURVE",
"231 498 OFFCURVE",
"269 497 CURVE SMOOTH",
"307 496 OFFCURVE",
"331 494 OFFCURVE",
"341 489 CURVE SMOOTH",
"351 484 OFFCURVE",
"359 479 OFFCURVE",
"366 474 CURVE",
"372 469 OFFCURVE",
"378 460 OFFCURVE",
"385 448 CURVE",
"388 465 OFFCURVE",
"389 482 OFFCURVE",
"389 499 CURVE"
);
},
{
closed = 1;
nodes = (
"246 476 OFFCURVE",
"160 451 OFFCURVE",
"130 426 CURVE SMOOTH",
"100 401 OFFCURVE",
"81 372 OFFCURVE",
"74 341 CURVE",
"69 324 OFFCURVE",
"67 307 OFFCURVE",
"66 290 CURVE SMOOTH",
"65 273 OFFCURVE",
"64 256 OFFCURVE",
"64 239 CURVE",
"67 172 OFFCURVE",
"81 121 OFFCURVE",
"105 85 CURVE SMOOTH",
"129 49 OFFCURVE",
"173 34 OFFCURVE",
"236 39 CURVE",
"267 38 OFFCURVE",
"293 41 OFFCURVE",
"314 48 CURVE SMOOTH",
"334 55 OFFCURVE",
"352 67 OFFCURVE",
"367 86 CURVE SMOOTH",
"382 104 OFFCURVE",
"389 127 OFFCURVE",
"390 156 CURVE SMOOTH",
"390 185 OFFCURVE",
"390 217 OFFCURVE",
"390 253 CURVE SMOOTH",
"390 298 OFFCURVE",
"388 334 OFFCURVE",
"385 362 CURVE",
"381 389 OFFCURVE",
"374 408 OFFCURVE",
"364 418 CURVE",
"353 427 OFFCURVE",
"341 436 OFFCURVE",
"328 445 CURVE",
"315 453 OFFCURVE",
"286 458 OFFCURVE",
"243 461 CURVE"
);
}
);
width = 476;
}
);
leftKerningGroup = a;
note = a;
rightKerningGroup = a;
unicode = 0061;
},
{
glyphname = aacute;
layers = (
{
hints = (
{
horizontal = 1;
place = "{497, 86}";
type = Stem;
},
{
place = "{19, 424.5}";
type = Stem;
}
);
layerId = "67FB5424-006C-40A0-BA73-E9B40C667CAC";
paths = (
{
closed = 1;
nodes = (
"343 737 LINE",
"221 483 OFFCURVE",
"325 718 OFFCURVE",
"313 706 CURVE",
"301 693 OFFCURVE",
"288 681 OFFCURVE",
"274 668 CURVE SMOOTH",
"260 655 OFFCURVE",
"246 640 OFFCURVE",
"231 624 CURVE SMOOTH",
"216 607 OFFCURVE",
"202 594 OFFCURVE",
"191 583 CURVE",
"196 582 OFFCURVE",
"203 581 OFFCURVE",
"213 580 CURVE SMOOTH",
"223 579 OFFCURVE",
"237 579 OFFCURVE",
"256 581 CURVE",
"259 586 OFFCURVE",
"266 593 OFFCURVE",
"275 602 CURVE SMOOTH",
"284 611 OFFCURVE",
"294 621 OFFCURVE",
"305 633 CURVE",
"316 644 OFFCURVE",
"331 659 OFFCURVE",
"349 678 CURVE SMOOTH",
"366 696 OFFCURVE",
"376 704 OFFCURVE",
"377 701 CURVE"
);
},
{
closed = 1;
nodes = (
"385 567 OFFCURVE",
"391 500 OFFCURVE",
"396 501 CURVE",
"400 501 OFFCURVE",
"403 501 OFFCURVE",
"405 501 CURVE",
"406 500 OFFCURVE",
"418 499 OFFCURVE",
"439 498 CURVE",
"440 494 OFFCURVE",
"440 490 OFFCURVE",
"441 486 CURVE",
"441 482 OFFCURVE",
"441 478 OFFCURVE",
"441 474 CURVE SMOOTH",
"441 464 LINE SMOOTH",
"439 395 OFFCURVE",
"439 321 OFFCURVE",
"442 252 CURVE SMOOTH",
"445 182 OFFCURVE",
"444 111 OFFCURVE",
"439 40 CURVE",
"439 31 OFFCURVE",
"439 23 OFFCURVE",
"439 14 CURVE",
"438 5 OFFCURVE",
"434 0 OFFCURVE",
"426 -1 CURVE",
"407 -1 OFFCURVE",
"398 -1 OFFCURVE",
"399 -2 CURVE",
"394 -1 OFFCURVE",
"392 3 OFFCURVE",
"392 10 CURVE",
"391 17 OFFCURVE",
"391 24 OFFCURVE",
"391 33 CURVE SMOOTH",
"391 41 OFFCURVE",
"391 48 OFFCURVE",
"391 55 CURVE",
"369 20 OFFCURVE",
"332 1 OFFCURVE",
"280 0 CURVE SMOOTH",
"227 -1 OFFCURVE",
"189 -2 OFFCURVE",
"166 -2 CURVE SMOOTH",
"140 -2 OFFCURVE",
"118 7 OFFCURVE",
"100 25 CURVE SMOOTH",
"81 43 OFFCURVE",
"66 65 OFFCURVE",
"54 92 CURVE SMOOTH",
"42 119 OFFCURVE",
"33 148 OFFCURVE",
"28 179 CURVE SMOOTH",
"22 210 OFFCURVE",
"19 239 OFFCURVE",
"19 266 CURVE SMOOTH",
"19 299 OFFCURVE",
"23 330 OFFCURVE",
"32 358 CURVE SMOOTH",
"41 386 OFFCURVE",
"53 410 OFFCURVE",
"68 431 CURVE SMOOTH",
"83 451 OFFCURVE",
"100 467 OFFCURVE",
"121 479 CURVE",
"142 490 OFFCURVE",
"164 496 OFFCURVE",
"187 497 CURVE SMOOTH",
"204 498 OFFCURVE",
"231 498 OFFCURVE",
"269 497 CURVE SMOOTH",
"307 496 OFFCURVE",
"331 494 OFFCURVE",
"341 489 CURVE SMOOTH",
"351 484 OFFCURVE",
"359 479 OFFCURVE",
"366 474 CURVE",
"372 469 OFFCURVE",
"378 460 OFFCURVE",
"385 448 CURVE",
"388 465 OFFCURVE",
"389 482 OFFCURVE",
"389 499 CURVE"
);
},
{
closed = 1;
nodes = (
"246 476 OFFCURVE",
"160 451 OFFCURVE",
"130 426 CURVE SMOOTH",
"100 401 OFFCURVE",
"81 372 OFFCURVE",
"74 341 CURVE",
"69 324 OFFCURVE",
"67 307 OFFCURVE",
"66 290 CURVE SMOOTH",
"65 273 OFFCURVE",
"64 256 OFFCURVE",
"64 239 CURVE",
"67 172 OFFCURVE",
"81 121 OFFCURVE",
"105 85 CURVE SMOOTH",
"129 49 OFFCURVE",
"173 34 OFFCURVE",
"236 39 CURVE",
"267 38 OFFCURVE",
"293 41 OFFCURVE",
"314 48 CURVE SMOOTH",
"334 55 OFFCURVE",
"352 67 OFFCURVE",
"367 86 CURVE SMOOTH",
"382 104 OFFCURVE",
"389 127 OFFCURVE",
"390 156 CURVE SMOOTH",
"390 185 OFFCURVE",
"390 217 OFFCURVE",
"390 253 CURVE SMOOTH",
"390 298 OFFCURVE",
"388 334 OFFCURVE",
"385 362 CURVE",
"381 389 OFFCURVE",
"374 408 OFFCURVE",
"364 418 CURVE",
"353 427 OFFCURVE",
"341 436 OFFCURVE",
"328 445 CURVE",
"315 453 OFFCURVE",
"286 458 OFFCURVE",
"243 461 CURVE"
);
}
);
width = 476;
}
);
leftKerningGroup = a;
note = aacute;
rightKerningGroup = a;
unicode = 00E1;
},
{
glyphname = acircumflex;
layers = (
{
hints = (
{
horizontal = 1;
place = "{497, 97}";
type = Stem;
},
{
place = "{19, 424.5}";
type = Stem;
},
{
horizontal = 1;
place = "{507.48, 82.52}";
type = Stem;
}
);
layerId = "67FB5424-006C-40A0-BA73-E9B40C667CAC";
paths = (
{
closed = 1;
nodes = (
"414 595 LINE",
"275 397 OFFCURVE",
"408 596 OFFCURVE",
"400 595 CURVE SMOOTH",
"392 594 OFFCURVE",
"382 592 OFFCURVE",
"369 590 CURVE",
"366 590 OFFCURVE",
"352 602 OFFCURVE",
"327 627 CURVE SMOOTH",
"301 652 OFFCURVE",
"286 667 OFFCURVE",
"281 673 CURVE",
"276 678 OFFCURVE",
"272 684 OFFCURVE",
"267 689 CURVE SMOOTH",
"262 694 OFFCURVE",
"258 697 OFFCURVE",
"255 698 CURVE",
"252 697 OFFCURVE",
"247 694 OFFCURVE",
"242 688 CURVE",
"236 682 OFFCURVE",
"231 676 OFFCURVE",
"226 671 CURVE",
"221 665 OFFCURVE",
"208 651 OFFCURVE",
"187 629 CURVE SMOOTH",
"166 606 OFFCURVE",
"154 595 OFFCURVE",
"151 594 CURVE",
"145 593 OFFCURVE",
"139 593 OFFCURVE",
"133 593 CURVE SMOOTH",
"127 593 OFFCURVE",
"114 593 OFFCURVE",
"93 594 CURVE",
"124 631 OFFCURVE",
"152 660 OFFCURVE",
"175 682 CURVE SMOOTH",
"198 704 OFFCURVE",
"224 729 OFFCURVE",
"253 756 CURVE"
);
},
{
closed = 1;
nodes = (
"344 585 OFFCURVE",
"391 500 OFFCURVE",
"396 501 CURVE",
"400 501 OFFCURVE",
"403 501 OFFCURVE",
"405 501 CURVE",
"406 500 OFFCURVE",
"418 499 OFFCURVE",
"439 498 CURVE",
"440 494 OFFCURVE",
"440 490 OFFCURVE",
"441 486 CURVE",
"441 482 OFFCURVE",
"441 478 OFFCURVE",
"441 474 CURVE SMOOTH",
"441 464 LINE SMOOTH",
"439 395 OFFCURVE",
"439 321 OFFCURVE",
"442 252 CURVE SMOOTH",
"445 182 OFFCURVE",
"444 111 OFFCURVE",
"439 40 CURVE",
"439 31 OFFCURVE",
"439 23 OFFCURVE",
"439 14 CURVE",
"438 5 OFFCURVE",
"434 0 OFFCURVE",
"426 -1 CURVE",
"407 -1 OFFCURVE",
"398 -1 OFFCURVE",
"399 -2 CURVE",
"394 -1 OFFCURVE",
"392 3 OFFCURVE",
"392 10 CURVE",
"391 17 OFFCURVE",
"391 24 OFFCURVE",
"391 33 CURVE SMOOTH",
"391 41 OFFCURVE",
"391 48 OFFCURVE",
"391 55 CURVE",
"369 20 OFFCURVE",
"332 1 OFFCURVE",
"280 0 CURVE SMOOTH",
"227 -1 OFFCURVE",
"189 -2 OFFCURVE",
"166 -2 CURVE SMOOTH",
"140 -2 OFFCURVE",
"118 7 OFFCURVE",
"100 25 CURVE SMOOTH",
"81 43 OFFCURVE",
"66 65 OFFCURVE",
"54 92 CURVE SMOOTH",
"42 119 OFFCURVE",
"33 148 OFFCURVE",
"28 179 CURVE SMOOTH",
"22 210 OFFCURVE",
"19 239 OFFCURVE",
"19 266 CURVE SMOOTH",
"19 299 OFFCURVE",
"23 330 OFFCURVE",
"32 358 CURVE SMOOTH",
"41 386 OFFCURVE",
"53 410 OFFCURVE",
"68 431 CURVE SMOOTH",
"83 451 OFFCURVE",
"100 467 OFFCURVE",
"121 479 CURVE",
"142 490 OFFCURVE",
"164 496 OFFCURVE",
"187 497 CURVE SMOOTH",
"204 498 OFFCURVE",
"231 498 OFFCURVE",
"269 497 CURVE SMOOTH",
"307 496 OFFCURVE",
"331 494 OFFCURVE",
"341 489 CURVE SMOOTH",
"351 484 OFFCURVE",
"359 479 OFFCURVE",
"366 474 CURVE",
"372 469 OFFCURVE",
"378 460 OFFCURVE",
"385 448 CURVE",
"388 465 OFFCURVE",
"389 482 OFFCURVE",
"389 499 CURVE"
);
},
{
closed = 1;
nodes = (
"246 476 OFFCURVE",
"160 451 OFFCURVE",
"130 426 CURVE SMOOTH",
"100 401 OFFCURVE",
"81 372 OFFCURVE",
"74 341 CURVE",
"69 324 OFFCURVE",
"67 307 OFFCURVE",
"66 290 CURVE SMOOTH",
"65 273 OFFCURVE",
"64 256 OFFCURVE",
"64 239 CURVE",
"67 172 OFFCURVE",
"81 121 OFFCURVE",
"105 85 CURVE SMOOTH",
"129 49 OFFCURVE",
"173 34 OFFCURVE",
"236 39 CURVE",
"267 38 OFFCURVE",
"293 41 OFFCURVE",
"314 48 CURVE SMOOTH",
"334 55 OFFCURVE",
"352 67 OFFCURVE",
"367 86 CURVE SMOOTH",
"382 104 OFFCURVE",
"389 127 OFFCURVE",
"390 156 CURVE SMOOTH",
"390 185 OFFCURVE",
"390 217 OFFCURVE",
"390 253 CURVE SMOOTH",
"390 298 OFFCURVE",
"388 334 OFFCURVE",
"385 362 CURVE",
"381 389 OFFCURVE",
"374 408 OFFCURVE",
"364 418 CURVE",
"353 427 OFFCURVE",
"341 436 OFFCURVE",
"328 445 CURVE",
"315 453 OFFCURVE",
"286 458 OFFCURVE",
"243 461 CURVE"
);
}
);
width = 476;
}
);
leftKerningGroup = a;
note = acircumflex;
rightKerningGroup = a;
unicode = 00E2;
},
{
glyphname = adieresis;
layers = (
{
hints = (
{
horizontal = 1;
place = "{425.73, 39.65}";
type = Stem;
},
{
horizontal = 1;
place = "{497, 139}";
type = Stem;
},
{
place = "{176, 8.54}";
type = Stem;
},
{
place = "{220, 96.21}";
type = Stem;
}
);
layerId = "67FB5424-006C-40A0-BA73-E9B40C667CAC";
paths = (
{
closed = 1;
nodes = (
"259 333 OFFCURVE",
"391 500 OFFCURVE",
"396 501 CURVE",
"400 501 OFFCURVE",
"403 501 OFFCURVE",
"405 501 CURVE",
"406 500 OFFCURVE",
"418 499 OFFCURVE",
"439 498 CURVE",
"440 494 OFFCURVE",
"440 490 OFFCURVE",
"441 486 CURVE",
"441 482 OFFCURVE",
"441 478 OFFCURVE",
"441 474 CURVE SMOOTH",
"441 464 LINE SMOOTH",
"439 395 OFFCURVE",
"439 321 OFFCURVE",
"442 252 CURVE SMOOTH",
"445 182 OFFCURVE",
"444 111 OFFCURVE",
"439 40 CURVE",
"439 31 OFFCURVE",
"439 23 OFFCURVE",
"439 14 CURVE",
"438 5 OFFCURVE",
"434 0 OFFCURVE",
"426 -1 CURVE",
"407 -1 OFFCURVE",
"398 -1 OFFCURVE",
"399 -2 CURVE",
"394 -1 OFFCURVE",
"392 3 OFFCURVE",
"392 10 CURVE",
"391 17 OFFCURVE",
"391 24 OFFCURVE",
"391 33 CURVE SMOOTH",
"391 41 OFFCURVE",
"391 48 OFFCURVE",
"391 55 CURVE",
"369 20 OFFCURVE",
"332 1 OFFCURVE",
"280 0 CURVE SMOOTH",
"227 -1 OFFCURVE",
"189 -2 OFFCURVE",
"166 -2 CURVE SMOOTH",
"140 -2 OFFCURVE",
"118 7 OFFCURVE",
"100 25 CURVE SMOOTH",
"81 43 OFFCURVE",
"66 65 OFFCURVE",
"54 92 CURVE SMOOTH",
"42 119 OFFCURVE",
"33 148 OFFCURVE",
"28 179 CURVE SMOOTH",
"22 210 OFFCURVE",
"19 239 OFFCURVE",
"19 266 CURVE SMOOTH",
"19 299 OFFCURVE",
"23 330 OFFCURVE",
"32 358 CURVE SMOOTH",
"41 386 OFFCURVE",
"53 410 OFFCURVE",
"68 431 CURVE SMOOTH",
"83 451 OFFCURVE",
"100 467 OFFCURVE",
"121 479 CURVE",
"142 490 OFFCURVE",
"164 496 OFFCURVE",
"187 497 CURVE SMOOTH",
"204 498 OFFCURVE",
"231 498 OFFCURVE",
"269 497 CURVE SMOOTH",
"307 496 OFFCURVE",
"331 494 OFFCURVE",
"341 489 CURVE SMOOTH",
"351 484 OFFCURVE",
"359 479 OFFCURVE",
"366 474 CURVE",
"372 469 OFFCURVE",
"378 460 OFFCURVE",
"385 448 CURVE",
"388 465 OFFCURVE",
"389 482 OFFCURVE",
"389 499 CURVE"
);
},
{
closed = 1;
nodes = (
"246 476 OFFCURVE",
"160 451 OFFCURVE",
"130 426 CURVE SMOOTH",
"100 401 OFFCURVE",
"81 372 OFFCURVE",
"74 341 CURVE",
"69 324 OFFCURVE",
"67 307 OFFCURVE",
"66 290 CURVE SMOOTH",
"65 273 OFFCURVE",
"64 256 OFFCURVE",
"64 239 CURVE",
"67 172 OFFCURVE",
"81 121 OFFCURVE",
"105 85 CURVE SMOOTH",
"129 49 OFFCURVE",
"173 34 OFFCURVE",
"236 39 CURVE",
"267 38 OFFCURVE",
"293 41 OFFCURVE",
"314 48 CURVE SMOOTH",
"334 55 OFFCURVE",
"352 67 OFFCURVE",
"367 86 CURVE SMOOTH",
"382 104 OFFCURVE",
"389 127 OFFCURVE",
"390 156 CURVE SMOOTH",
"390 185 OFFCURVE",
"390 217 OFFCURVE",
"390 253 CURVE SMOOTH",
"390 298 OFFCURVE",
"388 334 OFFCURVE",
"385 362 CURVE",
"381 389 OFFCURVE",
"374 408 OFFCURVE",
"364 418 CURVE",
"353 427 OFFCURVE",
"341 436 OFFCURVE",
"328 445 CURVE",
"315 453 OFFCURVE",
"286 458 OFFCURVE",
"243 461 CURVE"
);
},
{
closed = 1;
nodes = (
"218 635 LINE",
"179 636 LINE",
"176 636 LINE",
"197 584 OFFCURVE",
"174 651 OFFCURVE",
"174 661 CURVE",
"173 670 OFFCURVE",
"173 680 OFFCURVE",
"174 690 CURVE",
"174 700 OFFCURVE",
"174 709 OFFCURVE",
"175 718 CURVE",
"175 727 OFFCURVE",
"175 733 OFFCURVE",
"175 737 CURVE",
"181 739 OFFCURVE",
"190 740 OFFCURVE",
"202 741 CURVE",
"213 741 OFFCURVE",
"221 740 OFFCURVE",
"226 738 CURVE",
"226 737 OFFCURVE",
"226 733 OFFCURVE",
"225 724 CURVE SMOOTH",
"224 715 OFFCURVE",
"224 705 OFFCURVE",
"223 694 CURVE SMOOTH",
"222 682 OFFCURVE",
"222 671 OFFCURVE",
"221 660 CURVE SMOOTH",
"220 649 OFFCURVE",
"220 642 OFFCURVE",
"220 637 CURVE SMOOTH",
"220 636 LINE",
"220 635 LINE"
);
},
{
closed = 1;
nodes = (
"376 635 LINE",
"337 636 LINE",
"334 636 LINE",
"295 643 OFFCURVE",
"332 651 OFFCURVE",
"332 661 CURVE",
"331 670 OFFCURVE",
"331 680 OFFCURVE",
"332 690 CURVE",
"332 700 OFFCURVE",
"332 709 OFFCURVE",
"333 718 CURVE",
"333 727 OFFCURVE",
"333 733 OFFCURVE",
"333 737 CURVE",
"339 739 OFFCURVE",
"348 740 OFFCURVE",
"360 741 CURVE",
"371 741 OFFCURVE",
"379 740 OFFCURVE",
"384 738 CURVE",
"384 737 OFFCURVE",
"384 733 OFFCURVE",
"383 724 CURVE SMOOTH",
"382 715 OFFCURVE",
"382 705 OFFCURVE",
"381 694 CURVE SMOOTH",
"380 682 OFFCURVE",
"380 671 OFFCURVE",
"379 660 CURVE SMOOTH",
"378 649 OFFCURVE",
"378 642 OFFCURVE",
"378 637 CURVE SMOOTH",
"378 636 LINE",
"378 635 LINE"
);
}
);
width = 476;
}
);
leftKerningGroup = a;
note = adieresis;
rightKerningGroup = a;
unicode = 00E4;
},
{
glyphname = agrave;
layers = (
{
hints = (
{
horizontal = 1;
place = "{497, 89}";
type = Stem;
},
{
place = "{151.74, 17.26}";
type = Stem;
},
{
place = "{351.94, 37.06}";
type = Stem;
}
);
layerId = "67FB5424-006C-40A0-BA73-E9B40C667CAC";
paths = (
{
closed = 1;
nodes = (
"169 742 LINE",
"121 486 OFFCURVE",
"187 723 OFFCURVE",
"199 711 CURVE",
"211 698 OFFCURVE",
"224 686 OFFCURVE",
"238 673 CURVE SMOOTH",
"252 660 OFFCURVE",
"267 645 OFFCURVE",
"282 629 CURVE SMOOTH",
"297 612 OFFCURVE",
"310 599 OFFCURVE",
"321 588 CURVE",
"316 587 OFFCURVE",
"309 586 OFFCURVE",
"299 585 CURVE SMOOTH",
"289 584 OFFCURVE",
"275 584 OFFCURVE",
"256 586 CURVE",
"253 591 OFFCURVE",
"247 598 OFFCURVE",
"238 607 CURVE SMOOTH",
"229 616 OFFCURVE",
"218 626 OFFCURVE",
"207 638 CURVE",
"196 649 OFFCURVE",
"181 664 OFFCURVE",
"164 683 CURVE",
"146 701 OFFCURVE",
"136 709 OFFCURVE",
"135 706 CURVE"
);
},
{
closed = 1;
nodes = (
"304 569 OFFCURVE",
"391 500 OFFCURVE",
"396 501 CURVE",
"400 501 OFFCURVE",
"403 501 OFFCURVE",
"405 501 CURVE",
"406 500 OFFCURVE",
"418 499 OFFCURVE",
"439 498 CURVE",
"440 494 OFFCURVE",
"440 490 OFFCURVE",
"441 486 CURVE",
"441 482 OFFCURVE",
"441 478 OFFCURVE",
"441 474 CURVE SMOOTH",
"441 464 LINE SMOOTH",
"439 395 OFFCURVE",
"439 321 OFFCURVE",
"442 252 CURVE SMOOTH",
"445 182 OFFCURVE",
"444 111 OFFCURVE",
"439 40 CURVE",
"439 31 OFFCURVE",
"439 23 OFFCURVE",
"439 14 CURVE",
"438 5 OFFCURVE",
"434 0 OFFCURVE",
"426 -1 CURVE",
"407 -1 OFFCURVE",
"398 -1 OFFCURVE",
"399 -2 CURVE",
"394 -1 OFFCURVE",
"392 3 OFFCURVE",
"392 10 CURVE",
"391 17 OFFCURVE",
"391 24 OFFCURVE",
"391 33 CURVE SMOOTH",
"391 41 OFFCURVE",
"391 48 OFFCURVE",
"391 55 CURVE",
"369 20 OFFCURVE",
"332 1 OFFCURVE",
"280 0 CURVE SMOOTH",
"227 -1 OFFCURVE",
"189 -2 OFFCURVE",
"166 -2 CURVE SMOOTH",
"140 -2 OFFCURVE",
"118 7 OFFCURVE",
"100 25 CURVE SMOOTH",
"81 43 OFFCURVE",
"66 65 OFFCURVE",
"54 92 CURVE SMOOTH",
"42 119 OFFCURVE",
"33 148 OFFCURVE",
"28 179 CURVE SMOOTH",
"22 210 OFFCURVE",
"19 239 OFFCURVE",
"19 266 CURVE SMOOTH",
"19 299 OFFCURVE",
"23 330 OFFCURVE",
"32 358 CURVE SMOOTH",
"41 386 OFFCURVE",
"53 410 OFFCURVE",
"68 431 CURVE SMOOTH",
"83 451 OFFCURVE",
"100 467 OFFCURVE",
"121 479 CURVE",
"142 490 OFFCURVE",
"164 496 OFFCURVE",
"187 497 CURVE SMOOTH",
"204 498 OFFCURVE",
"231 498 OFFCURVE",
"269 497 CURVE SMOOTH",
"307 496 OFFCURVE",
"331 494 OFFCURVE",
"341 489 CURVE SMOOTH",
"351 484 OFFCURVE",
"359 479 OFFCURVE",
"366 474 CURVE",
"372 469 OFFCURVE",
"378 460 OFFCURVE",
"385 448 CURVE",
"388 465 OFFCURVE",
"389 482 OFFCURVE",
"389 499 CURVE"
);
},
{
closed = 1;
nodes = (
"246 476 OFFCURVE",
"160 451 OFFCURVE",
"130 426 CURVE SMOOTH",
"100 401 OFFCURVE",
"81 372 OFFCURVE",
"74 341 CURVE",
"69 324 OFFCURVE",
"67 307 OFFCURVE",
"66 290 CURVE SMOOTH",
"65 273 OFFCURVE",
"64 256 OFFCURVE",
"64 239 CURVE",
"67 172 OFFCURVE",
"81 121 OFFCURVE",
"105 85 CURVE SMOOTH",
"129 49 OFFCURVE",
"173 34 OFFCURVE",
"236 39 CURVE",
"267 38 OFFCURVE",
"293 41 OFFCURVE",
"314 48 CURVE SMOOTH",
"334 55 OFFCURVE",
"352 67 OFFCURVE",
"367 86 CURVE SMOOTH",
"382 104 OFFCURVE",
"389 127 OFFCURVE",
"390 156 CURVE SMOOTH",
"390 185 OFFCURVE",
"390 217 OFFCURVE",
"390 253 CURVE SMOOTH",
"390 298 OFFCURVE",
"388 334 OFFCURVE",
"385 362 CURVE",
"381 389 OFFCURVE",
"374 408 OFFCURVE",
"364 418 CURVE",
"353 427 OFFCURVE",
"341 436 OFFCURVE",
"328 445 CURVE",
"315 453 OFFCURVE",
"286 458 OFFCURVE",
"243 461 CURVE"
);
}
);
width = 476;
}
);
leftKerningGroup = a;
note = agrave;
rightKerningGroup = a;
unicode = 00E0;
},
{
glyphname = aring;
layers = (
{
hints = (
{
horizontal = 1;
place = "{497, 71}";
type = Stem;
},
{
place = "{288.5, 7.5}";
type = Stem;
}
);
layerId = "67FB5424-006C-40A0-BA73-E9B40C667CAC";
paths = (
{
closed = 1;
nodes = (
"228 461 OFFCURVE",
"342 681 OFFCURVE",
"341 658 CURVE SMOOTH",
"340 635 OFFCURVE",
"335 614 OFFCURVE",
"327 594 CURVE",
"321 585 OFFCURVE",
"312 579 OFFCURVE",
"301 576 CURVE SMOOTH",
"290 573 OFFCURVE",
"278 571 OFFCURVE",
"267 570 CURVE SMOOTH",
"258 569 OFFCURVE",
"248 568 OFFCURVE",
"239 568 CURVE SMOOTH",
"230 568 OFFCURVE",
"220 568 OFFCURVE",
"211 569 CURVE SMOOTH",
"202 570 OFFCURVE",
"193 573 OFFCURVE",
"184 578 CURVE SMOOTH",
"175 583 OFFCURVE",
"169 589 OFFCURVE",
"166 598 CURVE",
"163 617 OFFCURVE",
"161 636 OFFCURVE",
"160 656 CURVE SMOOTH",
"159 675 OFFCURVE",
"160 694 OFFCURVE",
"165 712 CURVE SMOOTH",
"167 719 OFFCURVE",
"171 725 OFFCURVE",
"176 732 CURVE",
"185 741 OFFCURVE",
"197 747 OFFCURVE",
"211 750 CURVE SMOOTH",
"224 753 OFFCURVE",
"239 753 OFFCURVE",
"254 752 CURVE SMOOTH",
"268 751 OFFCURVE",
"283 749 OFFCURVE",
"299 745 CURVE SMOOTH",
"314 741 OFFCURVE",
"326 734 OFFCURVE",
"333 723 CURVE"
);
},
{
closed = 1;
nodes = (
"267 713 OFFCURVE",
"230 706 OFFCURVE",
"221 702 CURVE",
"213 697 OFFCURVE",
"208 691 OFFCURVE",
"206 682 CURVE",
"205 675 OFFCURVE",
"204 670 OFFCURVE",
"204 665 CURVE SMOOTH",
"204 658 OFFCURVE",
"204 650 OFFCURVE",
"205 642 CURVE SMOOTH",
"206 633 OFFCURVE",
"209 626 OFFCURVE",
"214 621 CURVE",
"221 615 OFFCURVE",
"229 612 OFFCURVE",
"239 612 CURVE SMOOTH",
"249 612 LINE",
"253 613 OFFCURVE",
"265 614 OFFCURVE",
"274 615 CURVE SMOOTH",
"283 616 OFFCURVE",
"289 620 OFFCURVE",
"292 627 CURVE",
"293 634 OFFCURVE",
"295 641 OFFCURVE",
"296 649 CURVE SMOOTH",
"297 657 OFFCURVE",
"298 665 OFFCURVE",
"297 672 CURVE SMOOTH",
"296 681 OFFCURVE",
"293 689 OFFCURVE",
"290 694 CURVE",
"285 699 OFFCURVE",
"279 703 OFFCURVE",
"272 705 CURVE SMOOTH",
"265 707 OFFCURVE",
"258 708 OFFCURVE",
"251 708 CURVE"
);
},
{
closed = 1;
nodes = (
"343 569 OFFCURVE",
"391 500 OFFCURVE",
"396 501 CURVE",
"400 501 OFFCURVE",
"403 501 OFFCURVE",
"405 501 CURVE",
"406 500 OFFCURVE",
"418 499 OFFCURVE",
"439 498 CURVE",
"440 494 OFFCURVE",
"440 490 OFFCURVE",
"441 486 CURVE",
"441 482 OFFCURVE",
"441 478 OFFCURVE",
"441 474 CURVE SMOOTH",
"441 464 LINE SMOOTH",
"439 395 OFFCURVE",
"439 321 OFFCURVE",
"442 252 CURVE SMOOTH",
"445 182 OFFCURVE",
"444 111 OFFCURVE",
"439 40 CURVE",
"439 31 OFFCURVE",
"439 23 OFFCURVE",
"439 14 CURVE",
"438 5 OFFCURVE",
"434 0 OFFCURVE",
"426 -1 CURVE",
"407 -1 OFFCURVE",
"398 -1 OFFCURVE",
"399 -2 CURVE",
"394 -1 OFFCURVE",
"392 3 OFFCURVE",
"392 10 CURVE",
"391 17 OFFCURVE",
"391 24 OFFCURVE",
"391 33 CURVE SMOOTH",
"391 41 OFFCURVE",
"391 48 OFFCURVE",
"391 55 CURVE",
"369 20 OFFCURVE",
"332 1 OFFCURVE",
"280 0 CURVE SMOOTH",
"227 -1 OFFCURVE",
"189 -2 OFFCURVE",
"166 -2 CURVE SMOOTH",
"140 -2 OFFCURVE",
"118 7 OFFCURVE",
"100 25 CURVE SMOOTH",
"81 43 OFFCURVE",
"66 65 OFFCURVE",
"54 92 CURVE SMOOTH",
"42 119 OFFCURVE",
"33 148 OFFCURVE",
"28 179 CURVE SMOOTH",
"22 210 OFFCURVE",
"19 239 OFFCURVE",
"19 266 CURVE SMOOTH",
"19 299 OFFCURVE",
"23 330 OFFCURVE",
"32 358 CURVE SMOOTH",
"41 386 OFFCURVE",
"53 410 OFFCURVE",
"68 431 CURVE SMOOTH",
"83 451 OFFCURVE",
"100 467 OFFCURVE",
"121 479 CURVE",
"142 490 OFFCURVE",
"164 496 OFFCURVE",
"187 497 CURVE SMOOTH",
"204 498 OFFCURVE",
"231 498 OFFCURVE",
"269 497 CURVE SMOOTH",
"307 496 OFFCURVE",
"331 494 OFFCURVE",
"341 489 CURVE SMOOTH",
"351 484 OFFCURVE",
"359 479 OFFCURVE",
"366 474 CURVE",
"372 469 OFFCURVE",
"378 460 OFFCURVE",
"385 448 CURVE",
"388 465 OFFCURVE",
"389 482 OFFCURVE",
"389 499 CURVE"
);
},
{
closed = 1;
nodes = (
"246 476 OFFCURVE",
"160 451 OFFCURVE",
"130 426 CURVE SMOOTH",
"100 401 OFFCURVE",
"81 372 OFFCURVE",
"74 341 CURVE",
"69 324 OFFCURVE",
"67 307 OFFCURVE",
"66 290 CURVE SMOOTH",
"65 273 OFFCURVE",
"64 256 OFFCURVE",
"64 239 CURVE",
"67 172 OFFCURVE",
"81 121 OFFCURVE",
"105 85 CURVE SMOOTH",
"129 49 OFFCURVE",
"173 34 OFFCURVE",
"236 39 CURVE",
"267 38 OFFCURVE",
"293 41 OFFCURVE",
"314 48 CURVE SMOOTH",
"334 55 OFFCURVE",
"352 67 OFFCURVE",
"367 86 CURVE SMOOTH",
"382 104 OFFCURVE",
"389 127 OFFCURVE",
"390 156 CURVE SMOOTH",
"390 185 OFFCURVE",
"390 217 OFFCURVE",
"390 253 CURVE SMOOTH",
"390 298 OFFCURVE",
"388 334 OFFCURVE",
"385 362 CURVE",
"381 389 OFFCURVE",
"374 408 OFFCURVE",
"364 418 CURVE",
"353 427 OFFCURVE",
"341 436 OFFCURVE",
"328 445 CURVE",
"315 453 OFFCURVE",
"286 458 OFFCURVE",
"243 461 CURVE"
);
}
);
width = 476;
}
);
leftKerningGroup = a;
note = aring;
rightKerningGroup = a;
unicode = 00E5;
},
{
glyphname = atilde;
layers = (
{
hints = (
{
horizontal = 1;
place = "{425.73, 39.65}";
type = Stem;
},
{
horizontal = 1;
place = "{497, 88}";
type = Stem;
},
{
place = "{19, 428}";
type = Stem;
}
);
layerId = "67FB5424-006C-40A0-BA73-E9B40C667CAC";
paths = (
{
closed = 1;
nodes = (
"259 333 OFFCURVE",
"391 500 OFFCURVE",
"396 501 CURVE",
"400 501 OFFCURVE",
"403 501 OFFCURVE",
"405 501 CURVE",
"406 500 OFFCURVE",
"418 499 OFFCURVE",
"439 498 CURVE",
"440 494 OFFCURVE",
"440 490 OFFCURVE",
"441 486 CURVE",
"441 482 OFFCURVE",
"441 478 OFFCURVE",
"441 474 CURVE SMOOTH",
"441 464 LINE SMOOTH",
"439 395 OFFCURVE",
"439 321 OFFCURVE",
"442 252 CURVE SMOOTH",
"445 182 OFFCURVE",
"444 111 OFFCURVE",
"439 40 CURVE",
"439 31 OFFCURVE",
"439 23 OFFCURVE",
"439 14 CURVE",
"438 5 OFFCURVE",
"434 0 OFFCURVE",
"426 -1 CURVE",
"407 -1 OFFCURVE",
"398 -1 OFFCURVE",
"399 -2 CURVE",
"394 -1 OFFCURVE",
"392 3 OFFCURVE",
"392 10 CURVE",
"391 17 OFFCURVE",
"391 24 OFFCURVE",
"391 33 CURVE SMOOTH",
"391 41 OFFCURVE",
"391 48 OFFCURVE",
"391 55 CURVE",
"369 20 OFFCURVE",
"332 1 OFFCURVE",
"280 0 CURVE SMOOTH",
"227 -1 OFFCURVE",
"189 -2 OFFCURVE",
"166 -2 CURVE SMOOTH",
"140 -2 OFFCURVE",
"118 7 OFFCURVE",
"100 25 CURVE SMOOTH",
"81 43 OFFCURVE",
"66 65 OFFCURVE",
"54 92 CURVE SMOOTH",
"42 119 OFFCURVE",
"33 148 OFFCURVE",
"28 179 CURVE SMOOTH",
"22 210 OFFCURVE",
"19 239 OFFCURVE",
"19 266 CURVE SMOOTH",
"19 299 OFFCURVE",
"23 330 OFFCURVE",
"32 358 CURVE SMOOTH",
"41 386 OFFCURVE",
"53 410 OFFCURVE",
"68 431 CURVE SMOOTH",
"83 451 OFFCURVE",
"100 467 OFFCURVE",
"121 479 CURVE",
"142 490 OFFCURVE",
"164 496 OFFCURVE",
"187 497 CURVE SMOOTH",
"204 498 OFFCURVE",
"231 498 OFFCURVE",
"269 497 CURVE SMOOTH",
"307 496 OFFCURVE",
"331 494 OFFCURVE",
"341 489 CURVE SMOOTH",
"351 484 OFFCURVE",
"359 479 OFFCURVE",
"366 474 CURVE",
"372 469 OFFCURVE",
"378 460 OFFCURVE",
"385 448 CURVE",
"388 465 OFFCURVE",
"389 482 OFFCURVE",
"389 499 CURVE"
);
},
{
closed = 1;
nodes = (
"246 476 OFFCURVE",
"160 451 OFFCURVE",
"130 426 CURVE SMOOTH",
"100 401 OFFCURVE",
"81 372 OFFCURVE",
"74 341 CURVE",
"69 324 OFFCURVE",
"67 307 OFFCURVE",
"66 290 CURVE SMOOTH",
"65 273 OFFCURVE",
"64 256 OFFCURVE",
"64 239 CURVE",
"67 172 OFFCURVE",
"81 121 OFFCURVE",
"105 85 CURVE SMOOTH",
"129 49 OFFCURVE",
"173 34 OFFCURVE",
"236 39 CURVE",
"267 38 OFFCURVE",
"293 41 OFFCURVE",
"314 48 CURVE SMOOTH",
"334 55 OFFCURVE",
"352 67 OFFCURVE",
"367 86 CURVE SMOOTH",
"382 104 OFFCURVE",
"389 127 OFFCURVE",
"390 156 CURVE SMOOTH",
"390 185 OFFCURVE",
"390 217 OFFCURVE",
"390 253 CURVE SMOOTH",
"390 298 OFFCURVE",
"388 334 OFFCURVE",
"385 362 CURVE",
"381 389 OFFCURVE",
"374 408 OFFCURVE",
"364 418 CURVE",
"353 427 OFFCURVE",
"341 436 OFFCURVE",
"328 445 CURVE",
"315 453 OFFCURVE",
"286 458 OFFCURVE",
"243 461 CURVE"
);
},
{
closed = 1;
nodes = (
"89 591 LINE",
"132 548 OFFCURVE",
"74 592 OFFCURVE",
"69 592 CURVE SMOOTH",
"63 592 OFFCURVE",
"55 592 OFFCURVE",
"45 591 CURVE",
"47 598 OFFCURVE",
"50 608 OFFCURVE",
"55 620 CURVE",
"59 631 OFFCURVE",
"64 643 OFFCURVE",
"69 656 CURVE SMOOTH",
"74 669 OFFCURVE",
"80 681 OFFCURVE",
"86 692 CURVE SMOOTH",
"92 703 OFFCURVE",
"98 713 OFFCURVE",
"105 720 CURVE SMOOTH",
"114 729 OFFCURVE",
"124 736 OFFCURVE",
"135 742 CURVE SMOOTH",
"146 748 OFFCURVE",
"158 752 OFFCURVE",
"170 754 CURVE SMOOTH",
"182 756 OFFCURVE",
"194 756 OFFCURVE",
"206 754 CURVE",
"218 751 OFFCURVE",
"229 746 OFFCURVE",
"240 739 CURVE",
"250 732 OFFCURVE",
"258 723 OFFCURVE",
"264 714 CURVE",
"269 705 OFFCURVE",
"277 685 OFFCURVE",
"286 655 CURVE SMOOTH",
"295 624 OFFCURVE",
"315 612 OFFCURVE",
"347 619 CURVE SMOOTH",
"379 625 OFFCURVE",
"399 641 OFFCURVE",
"406 667 CURVE SMOOTH",
"413 693 OFFCURVE",
"414 719 OFFCURVE",
"410 746 CURVE",
"447 747 LINE",
"447 746 LINE",
"437 729 OFFCURVE",
"450 712 OFFCURVE",
"447 695 CURVE SMOOTH",
"444 677 OFFCURVE",
"438 660 OFFCURVE",
"430 645 CURVE SMOOTH",
"422 630 OFFCURVE",
"412 617 OFFCURVE",
"399 606 CURVE SMOOTH",
"386 595 OFFCURVE",
"370 588 OFFCURVE",
"353 585 CURVE SMOOTH",
"332 582 OFFCURVE",
"312 583 OFFCURVE",
"293 589 CURVE SMOOTH",
"274 595 OFFCURVE",
"257 620 OFFCURVE",
"244 663 CURVE",
"233 692 OFFCURVE",
"222 709 OFFCURVE",
"211 715 CURVE SMOOTH",
"200 721 OFFCURVE",
"187 723 OFFCURVE",
"172 720 CURVE",
"147 714 OFFCURVE",
"129 700 OFFCURVE",
"117 677 CURVE SMOOTH",
"105 654 OFFCURVE",
"96 625 OFFCURVE",
"89 592 CURVE"
);
}
);
width = 476;
}
);
leftKerningGroup = a;
note = atilde;
rightKerningGroup = a;
unicode = 00E3;
},
